<?xml version="1.0" standalone="no"?>
<!DOCTYPE svg PUBLIC "-//W3C//DTD SVG 20010904//EN"
 "http://www.w3.org/TR/2001/REC-SVG-20010904/DTD/svg10.dtd">
<svg version="1.0" xmlns="http://www.w3.org/2000/svg"
 width="864.000000pt" height="864.000000pt" viewBox="0 0 864.000000 864.000000"
 preserveAspectRatio="xMidYMid meet">

<g transform="translate(0.000000,864.000000) scale(0.100000,-0.100000)"
fill="#000000" stroke="none">
<path d="M6405 5931 c-11 -5 -22 -7 -25 -5 -4 1 -11 -5 -17 -15 -10 -16 -8
-16 28 2 21 10 39 21 39 23 0 5 1 5 -25 -5z"/>
<path d="M6289 5803 c-29 -35 -41 -53 -36 -53 2 0 17 16 31 35 28 36 31 49 5
18z"/>
<path d="M6044 5625 c-10 -8 -14 -14 -9 -15 15 0 40 18 34 24 -3 3 -14 -1 -25
-9z"/>
<path d="M5755 5459 c-21 -30 -50 -38 -58 -16 -3 8 -7 6 -12 -6 -9 -23 33 -73
49 -57 10 10 47 102 43 106 -1 2 -11 -10 -22 -27z"/>
<path d="M6105 5407 c39 -25 84 -56 100 -69 19 -14 25 -16 16 -5 -16 20 -138
103 -167 113 -10 4 13 -14 51 -39z"/>
<path d="M4490 5406 c0 -14 5 -26 10 -26 6 0 10 9 10 19 0 11 -4 23 -10 26 -6
4 -10 -5 -10 -19z"/>
<path d="M6820 5373 c0 -12 -6 -23 -12 -26 -10 -3 -10 -10 1 -30 11 -21 17
-24 28 -16 17 15 17 50 -2 75 -14 19 -14 19 -15 -3z"/>
<path d="M5660 5300 c0 -5 5 -10 10 -10 6 0 10 5 10 10 0 6 -4 10 -10 10 -5 0
-10 -4 -10 -10z"/>
<path d="M3385 5269 c-4 -6 -5 -12 -2 -15 2 -3 7 2 10 11 7 17 1 20 -8 4z"/>
<path d="M5610 5185 c0 -16 16 -20 24 -6 3 5 -1 11 -9 15 -9 3 -15 0 -15 -9z"/>
<path d="M6365 5139 c-4 -6 -5 -12 -2 -15 2 -3 7 2 10 11 7 17 1 20 -8 4z"/>
<path d="M5569 5034 c-5 -15 -8 -29 -5 -31 2 -2 8 10 14 26 13 38 5 41 -9 5z"/>
<path d="M5542 4933 c-10 -34 -10 -49 -1 -59 8 -10 15 -11 24 -4 21 18 23 44
5 77 l-16 31 -12 -45z"/>
<path d="M3340 4961 c0 -6 5 -11 10 -11 6 0 10 -11 10 -25 0 -16 -6 -25 -16
-25 -9 0 -12 -5 -8 -12 5 -7 2 -9 -9 -5 -8 3 -21 -1 -27 -9 -10 -11 -9 -14 6
-14 11 0 27 7 36 14 21 15 52 86 39 86 -5 0 -16 3 -25 6 -9 3 -16 1 -16 -5z"/>
<path d="M5362 4923 c-25 -49 -27 -63 -9 -63 15 0 42 70 35 91 -3 8 -14 -3
-26 -28z"/>
<path d="M3200 4935 c-18 -21 -3 -32 16 -13 10 9 12 18 6 22 -5 3 -15 -1 -22
-9z"/>
<path d="M3195 4889 c-4 -6 -5 -12 -2 -15 2 -3 7 2 10 11 7 17 1 20 -8 4z"/>
<path d="M5503 4845 c-10 -22 -9 -25 7 -25 19 0 34 25 24 41 -9 15 -18 10 -31
-16z"/>
<path d="M2183 4218 c-15 -16 -15 -18 0 -18 10 0 17 5 17 10 0 6 9 10 19 10
11 0 22 3 24 8 10 15 -45 6 -60 -10z"/>
<path d="M4471 4121 c-10 -24 -10 -24 3 -7 8 10 18 16 23 13 4 -2 17 -1 28 3
17 6 15 8 -12 12 -26 4 -33 0 -42 -21z"/>
<path d="M7073 3520 c0 -25 2 -35 4 -22 2 12 2 32 0 45 -2 12 -4 2 -4 -23z"/>
<path d="M7192 3115 c0 -16 2 -22 5 -12 2 9 2 23 0 30 -3 6 -5 -1 -5 -18z"/>
<path d="M7166 3038 c-47 -101 -250 -182 -490 -195 -96 -5 -110 -4 -118 11 -6
11 -14 14 -21 8 -17 -13 -63 -23 -71 -15 -12 12 -40 13 -87 2 -62 -14 -81 -17
-101 -18 -16 -1 -18 -12 -18 -80 l0 -79 43 9 c54 11 347 16 347 7 0 -5 -12 -8
-27 -9 -163 -6 -217 -10 -231 -18 -19 -10 -111 -26 -129 -22 -7 1 -13 -3 -13
-10 0 -8 17 -10 58 -6 l57 5 -47 -12 c-26 -6 -53 -17 -60 -24 -11 -11 -6 -13
27 -8 39 6 39 5 -7 -8 -26 -8 -67 -25 -91 -40 -68 -39 -185 -50 -564 -50 -240
-1 -335 2 -344 11 -7 7 -31 9 -66 6 -43 -5 -53 -3 -51 8 2 8 -1 13 -7 13 -117
-17 -117 -17 -110 5 7 22 -9 30 -20 10 -4 -6 -13 -8 -21 -5 -17 6 -73 -12 -96
-31 -11 -10 -22 -12 -33 -6 -15 9 -15 11 -1 26 10 10 12 18 6 22 -5 3 -10 3
-10 -1 0 -3 -6 -1 -14 5 -22 18 -60 -7 -43 -28 10 -12 3 -13 -53 -8 -104 10
-282 36 -315 47 -16 5 -75 11 -130 14 -112 6 -208 22 -213 35 -2 5 -34 15 -73
22 -64 11 -70 11 -83 -6 -8 -11 -18 -15 -25 -10 -7 4 -47 16 -89 26 -73 18
-78 19 -89 2 -12 -16 -13 -16 -13 0 0 9 -4 17 -10 17 -5 0 -10 -4 -10 -9 0
-12 -44 -3 -133 27 -64 21 -80 23 -87 13 -6 -10 -19 -12 -46 -7 -22 4 -46 7
-54 6 -8 -1 -46 -3 -85 -4 -38 -2 -77 -6 -85 -8 -8 -3 -33 -10 -55 -14 -22 -5
-40 -13 -39 -19 3 -29 169 -87 344 -120 110 -21 228 -64 208 -77 -7 -4 -21 -8
-30 -8 -9 0 -28 -4 -42 -9 -18 -8 -23 -15 -19 -30 3 -12 11 -21 18 -21 7 0 16
-7 19 -16 13 -34 1844 1 2171 42 28 3 122 23 210 44 368 88 525 106 1070 120
365 9 638 29 673 50 14 8 11 9 -13 10 -16 0 -35 4 -41 8 -17 10 4 26 41 30 49
5 49 19 0 16 -26 -1 -53 -8 -61 -15 -11 -9 -14 -7 -14 12 l0 22 -26 -24 c-27
-24 -27 -24 -21 -2 5 22 4 22 -24 8 -35 -19 -43 -19 -35 0 3 8 1 15 -5 15 -5
0 -12 -6 -15 -14 -3 -8 -13 -12 -25 -9 -13 4 -19 0 -19 -12 0 -15 -1 -15 -16
0 -24 23 -50 15 -47 -15 3 -25 3 -25 -7 -2 -11 25 -60 32 -60 8 0 -7 -9 -16
-21 -19 -20 -5 -20 -5 -2 15 18 20 18 20 -27 14 l-45 -7 25 21 c21 18 21 21 5
15 -74 -26 -151 -27 -183 -2 -7 5 -79 13 -160 17 -81 4 -156 11 -167 16 -19 8
-19 8 5 15 20 6 17 7 -17 8 -42 1 -87 26 -77 43 3 4 -2 8 -10 8 -36 0 -12 18
32 24 88 13 247 57 307 85 34 15 78 43 98 61 38 33 71 84 65 100 -2 4 -11 -10
-22 -32z m-453 -345 c-7 -2 -19 -2 -25 0 -7 3 -2 5 12 5 14 0 19 -2 13 -5z
m-253 -50 c0 -5 -19 -9 -43 -9 -34 -2 -37 0 -17 6 33 11 60 12 60 3z"/>
<path d="M990 2897 c0 -27 -20 -35 -50 -20 -20 9 -35 11 -47 5 -10 -5 -31 -16
-47 -23 -23 -11 -25 -15 -11 -18 14 -2 15 -5 4 -12 -10 -6 -4 -9 19 -9 18 0
31 -4 28 -8 -7 -12 210 -79 314 -96 47 -8 130 -20 185 -27 71 -8 116 -20 155
-39 30 -15 69 -33 87 -40 18 -7 31 -17 30 -24 -3 -16 920 -15 1063 1 58 7 157
15 220 18 63 3 124 5 135 6 17 0 15 3 -7 13 -15 6 -62 11 -105 10 -90 -2 -105
3 -72 23 l24 14 -25 -5 c-14 -3 -31 -6 -39 -6 -8 0 -11 -6 -7 -15 9 -25 -28
-17 -53 11 -12 14 -25 23 -29 20 -3 -4 0 -12 6 -18 25 -25 9 -29 -95 -21 -60
4 -127 7 -150 6 -46 -1 -54 11 -25 33 15 12 13 13 -21 11 -34 -2 -37 -4 -32
-24 4 -19 1 -23 -17 -23 -13 0 -18 3 -12 8 8 5 5 13 -8 27 -19 19 -19 19 -25
-3 -5 -20 -11 -22 -74 -20 -45 2 -65 6 -59 12 16 16 12 23 -16 29 -20 3 -28 0
-31 -14 -5 -18 -6 -18 -24 3 -15 17 -17 23 -7 30 9 5 3 8 -14 8 -21 0 -28 -5
-28 -20 0 -14 -7 -20 -24 -20 -45 0 -86 12 -79 24 4 6 -1 4 -12 -4 -16 -14
-17 -13 -11 6 6 19 2 23 -30 29 -26 4 -39 3 -45 -6 -6 -10 -13 -7 -30 11 -14
17 -23 21 -26 13 -7 -19 -54 -15 -97 8 -25 13 -41 17 -45 10 -8 -13 -25 -2
-40 27 -12 23 -35 25 -37 4 -1 -7 -2 -16 -3 -22 0 -5 -23 4 -50 20 -54 34 -66
37 -57 15 9 -24 -5 -18 -41 17 -18 18 -33 27 -33 21 0 -7 5 -15 10 -18 6 -4 8
-10 5 -15 -3 -5 4 -12 16 -15 11 -4 18 -9 16 -12 -3 -2 -19 3 -36 12 -18 9
-35 13 -40 11 -5 -3 -14 1 -21 9 -7 8 -18 15 -25 15 -8 0 -15 6 -18 13 -3 8
-10 6 -26 -8 -19 -16 -24 -17 -31 -5 -6 8 -10 11 -10 6 0 -6 -5 -5 -12 2 -20
20 -58 15 -58 -9 0 -14 -4 -18 -12 -12 -7 4 -17 8 -23 8 -5 0 -26 9 -45 19
-19 11 -56 20 -82 20 -27 1 -48 3 -48 6 0 3 -9 11 -20 18 -16 10 -20 10 -20
-1z"/>
<path d="M1190 2860 c0 -5 5 -10 11 -10 5 0 7 5 4 10 -3 6 -8 10 -11 10 -2 0
-4 -4 -4 -10z"/>
<path d="M6853 2753 c9 -2 25 -2 35 0 9 3 1 5 -18 5 -19 0 -27 -2 -17 -5z"/>
<path d="M2060 2726 c0 -20 26 -38 47 -33 14 4 13 5 -4 6 -15 1 -21 6 -17 15
3 7 -2 16 -10 19 -10 4 -16 1 -16 -7z"/>
<path d="M2310 2691 c0 -5 9 -7 20 -4 11 3 20 7 20 9 0 2 -9 4 -20 4 -11 0
-20 -4 -20 -9z"/>
<path d="M2630 2680 c0 -6 7 -10 15 -10 8 0 15 2 15 4 0 2 -7 6 -15 10 -8 3
-15 1 -15 -4z"/>
<path d="M2690 2684 c1 -16 28 -45 34 -36 3 5 -3 17 -14 27 -11 10 -20 14 -20
9z"/>
<path d="M4200 2619 c0 -5 5 -7 10 -4 6 3 10 8 10 11 0 2 -4 4 -10 4 -5 0 -10
-5 -10 -11z"/>
<path d="M4843 2603 c9 -2 23 -2 30 0 6 3 -1 5 -18 5 -16 0 -22 -2 -12 -5z"/>
<path d="M4788 2593 c7 -3 16 -2 19 1 4 3 -2 6 -13 5 -11 0 -14 -3 -6 -6z"/>
<path d="M5010 2590 c-35 -7 -35 -7 -5 -9 17 0 37 4 45 9 17 11 11 11 -40 0z"/>
<path d="M4917 2574 c-4 -4 -7 -14 -7 -23 0 -11 3 -12 11 -4 6 6 10 16 7 23
-2 6 -7 8 -11 4z"/>
<path d="M5116 2572 c-2 -4 11 -6 30 -4 19 2 34 6 34 8 0 8 -59 4 -64 -4z"/>
<path d="M5240 2560 l-25 -8 25 0 c14 0 34 3 45 8 l20 9 -20 -1 c-11 0 -31 -4
-45 -8z"/>
<path d="M5800 2555 c0 -8 5 -15 10 -15 6 0 10 7 10 15 0 8 -4 15 -10 15 -5 0
-10 -7 -10 -15z"/>
<path d="M5353 2543 c9 -2 25 -2 35 0 9 3 1 5 -18 5 -19 0 -27 -2 -17 -5z"/>
<path d="M5880 2534 c0 -14 3 -14 15 -4 8 7 15 14 15 16 0 2 -7 4 -15 4 -8 0
-15 -7 -15 -16z"/>
<path d="M5963 2533 c-19 -7 -16 -19 5 -20 10 -1 19 5 19 13 0 15 -4 16 -24 7z"/>
<path d="M6100 2529 c0 -5 5 -7 10 -4 6 3 10 8 10 11 0 2 -4 4 -10 4 -5 0 -10
-5 -10 -11z"/>
<path d="M6015 2520 c-3 -5 -2 -10 4 -10 5 0 13 5 16 10 3 6 2 10 -4 10 -5 0
-13 -4 -16 -10z"/>
<path d="M5815 2510 c-19 -8 -19 -9 3 -9 12 -1 22 4 22 9 0 6 -1 10 -2 9 -2 0
-12 -4 -23 -9z"/>
<path d="M5905 2510 c4 -6 11 -8 16 -5 14 9 11 15 -7 15 -8 0 -12 -5 -9 -10z"/>
<path d="M5443 2503 c9 -2 23 -2 30 0 6 3 -1 5 -18 5 -16 0 -22 -2 -12 -5z"/>
<path d="M5538 2493 c7 -3 16 -2 19 1 4 3 -2 6 -13 5 -11 0 -14 -3 -6 -6z"/>
</g>
</svg>
