<?xml version="1.0" standalone="no"?>
<!DOCTYPE svg PUBLIC "-//W3C//DTD SVG 20010904//EN"
 "http://www.w3.org/TR/2001/REC-SVG-20010904/DTD/svg10.dtd">
<svg version="1.0" xmlns="http://www.w3.org/2000/svg"
 width="864.000000pt" height="864.000000pt" viewBox="0 0 864.000000 864.000000"
 preserveAspectRatio="xMidYMid meet">

<g transform="translate(0.000000,864.000000) scale(0.100000,-0.100000)"
fill="#000000" stroke="none">
<path d="M6168 6772 c-47 -49 -58 -111 -28 -160 26 -43 26 -51 -11 -95 -30
-37 -30 -37 -12 -61 10 -13 27 -49 38 -79 l19 -56 -26 -53 c-44 -89 -44 -100
-4 -144 20 -22 36 -34 37 -29 0 6 0 49 0 97 -2 104 8 128 50 128 17 0 28 4 24
9 -9 15 25 101 63 161 19 30 42 71 50 90 13 31 16 33 23 15 5 -14 8 -1 8 38 1
40 5 56 12 51 16 -10 -6 29 -25 46 -9 7 -16 19 -16 27 0 8 -4 12 -8 9 -4 -3
-28 0 -53 6 -24 5 -48 11 -54 12 -5 1 -16 5 -22 9 -7 5 -13 5 -13 0 0 -4 -4
-2 -8 4 -6 9 -18 2 -44 -25z"/>
<path d="M6020 6779 c0 -5 5 -7 10 -4 6 3 10 8 10 11 0 2 -4 4 -10 4 -5 0 -10
-5 -10 -11z"/>
<path d="M5910 6769 c0 -5 5 -7 10 -4 6 3 10 8 10 11 0 2 -4 4 -10 4 -5 0 -10
-5 -10 -11z"/>
<path d="M5800 6759 c0 -5 5 -7 10 -4 6 3 10 8 10 11 0 2 -4 4 -10 4 -5 0 -10
-5 -10 -11z"/>
<path d="M4064 6664 c-4 -23 -21 -51 -44 -74 -35 -35 -37 -40 -30 -83 4 -27
18 -58 34 -78 23 -27 25 -35 14 -43 -7 -6 -25 -26 -40 -45 -23 -31 -25 -37
-12 -56 11 -17 21 -20 49 -17 34 4 35 5 19 23 -23 26 -11 63 38 118 22 25 57
80 77 121 20 41 41 78 46 82 7 5 6 14 -2 27 -7 11 -10 27 -7 34 4 11 -8 15
-57 16 -33 1 -65 3 -70 6 -4 3 -11 -11 -15 -31z"/>
<path d="M5987 6693 c-4 -3 -7 -11 -7 -17 0 -6 5 -5 12 2 6 6 9 14 7 17 -3 3
-9 2 -12 -2z"/>
<path d="M5870 6675 c0 -8 5 -15 10 -15 6 0 10 7 10 15 0 8 -4 15 -10 15 -5 0
-10 -7 -10 -15z"/>
<path d="M5760 6669 c0 -5 5 -7 10 -4 6 3 10 8 10 11 0 2 -4 4 -10 4 -5 0 -10
-5 -10 -11z"/>
<path d="M3870 6615 c0 -8 2 -15 4 -15 2 0 6 7 10 15 3 8 1 15 -4 15 -6 0 -10
-7 -10 -15z"/>
<path d="M3755 6611 c-3 -5 -1 -12 5 -16 5 -3 10 1 10 9 0 18 -6 21 -15 7z"/>
<path d="M3640 6601 c0 -6 5 -13 10 -16 6 -3 10 1 10 9 0 9 -4 16 -10 16 -5 0
-10 -4 -10 -9z"/>
<path d="M5846 6575 c-3 -8 -1 -15 4 -15 13 0 22 18 11 24 -5 3 -11 -1 -15 -9z"/>
<path d="M5960 6575 c0 -8 5 -15 10 -15 6 0 10 7 10 15 0 8 -4 15 -10 15 -5 0
-10 -7 -10 -15z"/>
<path d="M5737 6573 c-4 -3 -7 -11 -7 -17 0 -6 5 -5 12 2 6 6 9 14 7 17 -3 3
-9 2 -12 -2z"/>
<path d="M3840 6521 c0 -6 5 -13 10 -16 6 -3 10 1 10 9 0 9 -4 16 -10 16 -5 0
-10 -4 -10 -9z"/>
<path d="M3730 6511 c0 -6 5 -13 10 -16 6 -3 10 1 10 9 0 9 -4 16 -10 16 -5 0
-10 -4 -10 -9z"/>
<path d="M3630 6494 c0 -8 5 -12 10 -9 6 3 10 10 10 16 0 5 -4 9 -10 9 -5 0
-10 -7 -10 -16z"/>
<path d="M5834 6469 c-3 -6 -1 -16 5 -22 8 -8 11 -5 11 11 0 24 -5 28 -16 11z"/>
<path d="M5952 6464 c4 -21 22 -23 26 -1 2 10 -3 17 -13 17 -10 0 -15 -6 -13
-16z"/>
<path d="M6395 6436 c-12 -23 -31 -45 -43 -51 -23 -10 -40 -50 -28 -62 9 -10
65 47 86 87 9 19 15 42 11 51 -4 11 -12 4 -26 -25z"/>
<path d="M5720 6455 c0 -8 2 -15 4 -15 2 0 6 7 10 15 3 8 1 15 -4 15 -6 0 -10
-7 -10 -15z"/>
<path d="M3830 6421 c0 -6 5 -13 10 -16 6 -3 10 1 10 9 0 9 -4 16 -10 16 -5 0
-10 -4 -10 -9z"/>
<path d="M3730 6406 c0 -8 5 -18 10 -21 6 -3 10 3 10 14 0 12 -4 21 -10 21 -5
0 -10 -6 -10 -14z"/>
<path d="M3625 6400 c-3 -5 -1 -10 4 -10 6 0 11 5 11 10 0 6 -2 10 -4 10 -3 0
-8 -4 -11 -10z"/>
<path d="M5952 6354 c1 -9 9 -19 16 -22 9 -3 13 2 10 14 -1 9 -9 19 -16 22 -9
3 -13 -2 -10 -14z"/>
<path d="M4160 6336 c-13 -25 -8 -56 9 -56 12 0 23 44 11 48 -5 2 -6 10 -3 18
9 23 -3 16 -17 -10z"/>
<path d="M5716 6351 c-4 -7 -5 -15 -2 -18 9 -9 19 4 14 18 -4 11 -6 11 -12 0z"/>
<path d="M5830 6345 c0 -8 5 -15 10 -15 6 0 10 7 10 15 0 8 -4 15 -10 15 -5 0
-10 -7 -10 -15z"/>
<path d="M6440 6349 c0 -5 5 -7 10 -4 6 3 10 8 10 11 0 2 -4 4 -10 4 -5 0 -10
-5 -10 -11z"/>
<path d="M6450 6319 c0 -7 3 -10 6 -6 3 3 18 1 33 -4 15 -6 22 -6 16 -1 -18
17 -55 24 -55 11z"/>
<path d="M3727 6306 c-3 -8 1 -17 9 -20 8 -3 14 1 14 9 0 20 -17 28 -23 11z"/>
<path d="M3830 6311 c0 -6 5 -13 10 -16 6 -3 10 1 10 9 0 9 -4 16 -10 16 -5 0
-10 -4 -10 -9z"/>
<path d="M3620 6289 c0 -5 5 -7 10 -4 6 3 10 8 10 11 0 2 -4 4 -10 4 -5 0 -10
-5 -10 -11z"/>
<path d="M6627 6278 c6 -11 31 -10 37 1 3 5 -5 8 -18 7 -13 0 -22 -4 -19 -8z"/>
<path d="M6785 6280 c3 -5 8 -10 11 -10 2 0 4 5 4 10 0 6 -5 10 -11 10 -5 0
-7 -4 -4 -10z"/>
<path d="M6816 6275 c-3 -9 1 -18 10 -22 21 -8 25 -1 9 20 -11 15 -13 16 -19
2z"/>
<path d="M6879 6263 c-8 -9 -9 -14 -2 -10 6 4 13 1 16 -5 2 -7 8 -9 13 -5 5 4
2 13 -6 18 -12 9 -12 10 3 5 9 -3 17 -1 17 4 0 16 -26 11 -41 -7z"/>
<path d="M6665 6260 c-3 -6 -1 -10 4 -10 6 0 39 -13 73 -30 68 -32 138 -90
138 -114 0 -8 4 -17 9 -21 16 -9 24 -91 12 -127 -5 -18 -12 -46 -15 -61 -7
-42 -54 -117 -74 -118 -64 -4 -89 -11 -104 -29 -9 -11 -20 -20 -26 -20 -5 0
-30 -23 -56 -50 -26 -28 -51 -48 -57 -45 -5 4 -9 -1 -9 -9 0 -22 -77 -99 -90
-91 -5 3 -10 2 -10 -3 0 -9 89 -28 94 -20 2 2 16 21 31 43 38 53 99 111 133
129 36 19 129 45 170 48 26 2 32 7 32 24 0 14 8 25 20 29 11 3 20 14 20 23 0
15 2 15 10 2 5 -8 10 -13 11 -10 0 3 3 23 5 45 3 22 14 50 26 62 17 18 19 27
10 51 -6 17 -6 35 -1 43 15 25 11 59 -8 59 -17 1 -17 1 0 14 20 16 21 23 5 41
-7 8 -29 35 -48 60 -19 25 -42 45 -50 45 -9 0 -21 5 -27 11 -8 8 -13 8 -17 0
-4 -6 0 -11 8 -11 9 0 16 -4 16 -10 0 -5 -9 -10 -20 -10 -11 0 -20 -4 -20 -9
0 -4 12 -7 27 -5 28 3 53 -11 53 -28 0 -7 -5 -7 -12 -1 -7 5 -25 8 -39 7 -20
-2 -29 4 -38 22 -6 14 -15 23 -20 19 -12 -7 -81 25 -81 37 0 5 -4 6 -10 3 -5
-3 -23 1 -39 10 -19 9 -32 11 -36 5z m285 -160 c0 -5 -4 -10 -10 -10 -5 0 -10
5 -10 10 0 6 5 10 10 10 6 0 10 -4 10 -10z m25 -16 c-10 -10 -13 -24 -9 -38 6
-19 5 -20 -7 -4 -8 10 -23 24 -34 32 -19 13 -18 14 7 9 14 -3 29 0 32 6 4 6
12 11 17 11 6 0 3 -7 -6 -16z m18 -71 c-7 -2 -19 -2 -25 0 -7 3 -2 5 12 5 14
0 19 -2 13 -5z"/>
<path d="M5955 6250 c-7 -12 2 -30 16 -30 5 0 9 9 9 20 0 21 -15 27 -25 10z"/>
<path d="M5714 6239 c-3 -6 -1 -16 5 -22 8 -8 11 -5 11 11 0 24 -5 28 -16 11z"/>
<path d="M5830 6235 c0 -8 4 -15 9 -15 5 0 11 7 15 15 3 9 0 15 -9 15 -8 0
-15 -7 -15 -15z"/>
<path d="M4663 6197 c3 -39 33 -81 54 -73 7 3 13 1 13 -3 0 -5 -4 -11 -9 -13
-5 -1 -1 -22 10 -45 17 -36 18 -49 8 -95 -21 -102 -60 -218 -77 -228 -13 -7
-8 -9 25 -10 23 0 45 5 49 12 4 6 3 8 -4 4 -6 -3 -14 -1 -18 5 -3 6 0 15 7 20
8 5 17 3 21 -4 6 -9 8 -8 8 3 0 12 2 12 9 2 7 -11 9 -11 14 1 4 11 -3 14 -26
13 -18 0 -32 2 -32 4 0 25 31 108 38 103 5 -3 6 4 2 18 -7 22 -7 22 10 5 13
-13 15 -20 6 -29 -17 -17 -13 -37 9 -37 12 0 20 7 20 18 0 9 14 30 30 45 30
29 38 47 21 47 -5 0 -5 18 0 42 6 23 8 47 5 53 -6 17 -93 58 -106 50 -16 -10
-12 11 5 25 22 18 18 32 -7 25 -22 -6 -22 -5 1 8 26 15 14 32 -14 21 -9 -4
-20 -3 -24 2 -3 5 -16 17 -28 28 l-22 18 2 -35z m130 -194 c-7 -2 -19 -2 -25
0 -7 3 -2 5 12 5 14 0 19 -2 13 -5z"/>
<path d="M3830 6211 c0 -5 7 -14 15 -21 13 -10 15 -9 15 9 0 12 -6 21 -15 21
-8 0 -15 -4 -15 -9z"/>
<path d="M3732 6199 c2 -7 10 -15 17 -17 8 -3 12 1 9 9 -2 7 -10 15 -17 17 -8
3 -12 -1 -9 -9z"/>
<path d="M3615 6190 c-3 -5 -1 -10 4 -10 6 0 11 5 11 10 0 6 -2 10 -4 10 -3 0
-8 -4 -11 -10z"/>
<path d="M3986 6173 c-12 -39 -8 -120 7 -153 15 -34 16 -33 11 64 -4 102 -8
121 -18 89z"/>
<path d="M5960 6130 c0 -11 7 -20 15 -20 8 0 15 9 15 20 0 11 -7 20 -15 20 -8
0 -15 -9 -15 -20z"/>
<path d="M5717 6125 c-4 -8 -2 -17 3 -20 6 -4 10 3 10 14 0 25 -6 27 -13 6z"/>
<path d="M5836 6131 c-3 -5 1 -14 8 -20 16 -13 32 2 21 19 -8 12 -22 13 -29 1z"/>
<path d="M3840 6106 c0 -8 5 -18 10 -21 6 -3 10 1 10 9 0 8 -4 18 -10 21 -5 3
-10 -1 -10 -9z"/>
<path d="M3735 6100 c-7 -12 2 -30 16 -30 5 0 9 9 9 20 0 21 -15 27 -25 10z"/>
<path d="M3615 6091 c-3 -5 -1 -12 5 -16 5 -3 10 1 10 9 0 18 -6 21 -15 7z"/>
<path d="M5962 6023 c2 -10 10 -18 18 -18 22 0 18 29 -3 33 -14 3 -18 -1 -15
-15z"/>
<path d="M5730 6020 c-11 -7 -12 -12 -4 -20 8 -8 13 -6 17 9 3 12 4 21 4 21
-1 0 -9 -5 -17 -10z"/>
<path d="M5835 6004 c-11 -17 -12 -24 -4 -18 8 5 21 9 29 9 19 0 26 35 7 35
-8 0 -22 -12 -32 -26z"/>
<path d="M3740 5991 c0 -12 6 -21 16 -21 9 0 14 7 12 17 -5 25 -28 28 -28 4z"/>
<path d="M3842 5998 c6 -18 28 -21 28 -4 0 9 -7 16 -16 16 -9 0 -14 -5 -12
-12z"/>
<path d="M3506 5963 c-13 -87 -11 -118 6 -117 10 1 14 -4 11 -12 -3 -8 -10
-11 -16 -7 -6 3 -7 1 -3 -5 4 -6 14 -8 23 -5 12 5 15 2 10 -10 -3 -9 -1 -19 5
-23 6 -4 8 -3 4 4 -3 5 0 12 6 15 10 4 11 7 1 18 -7 7 -13 21 -13 31 0 10 -7
18 -16 18 -15 0 -16 9 -10 65 7 70 1 90 -8 28z"/>
<path d="M3622 5993 c-10 -4 -10 -8 -1 -19 15 -18 29 -18 29 0 0 18 -11 25
-28 19z"/>
<path d="M4580 5985 c0 -8 2 -15 4 -15 2 0 6 7 10 15 3 8 1 15 -4 15 -6 0 -10
-7 -10 -15z"/>
<path d="M6157 5968 c-3 -18 -8 -41 -12 -50 -4 -10 -3 -18 3 -18 5 0 13 21 17
46 7 52 1 72 -8 22z"/>
<path d="M6745 5989 c-4 -6 -5 -12 -2 -15 2 -3 7 2 10 11 7 17 1 20 -8 4z"/>
<path d="M4600 5952 c0 -12 3 -12 15 -2 8 7 15 13 15 15 0 1 -7 2 -15 2 -8 0
-15 -7 -15 -15z"/>
<path d="M3520 5920 c0 -6 7 -10 15 -10 8 0 15 2 15 4 0 2 -7 6 -15 10 -8 3
-15 1 -15 -4z"/>
<path d="M5857 5913 c-8 -7 11 -33 24 -33 5 0 9 9 9 20 0 19 -20 27 -33 13z"/>
<path d="M5967 5913 c-8 -7 11 -33 24 -33 5 0 9 9 9 20 0 19 -20 27 -33 13z"/>
<path d="M3852 5896 c1 -10 8 -17 13 -17 15 1 12 24 -3 29 -9 3 -13 -2 -10
-12z"/>
<path d="M5736 5901 c-3 -5 1 -14 9 -21 13 -10 15 -9 15 9 0 21 -14 28 -24 12z"/>
<path d="M3740 5891 c0 -5 7 -14 15 -21 13 -10 15 -9 15 9 0 12 -6 21 -15 21
-8 0 -15 -4 -15 -9z"/>
<path d="M4595 5890 c4 -7 2 -16 -6 -21 -11 -7 -10 -9 4 -9 19 0 23 25 5 36
-7 5 -8 3 -3 -6z"/>
<path d="M3618 5865 c-6 -14 -15 -25 -20 -25 -4 0 -8 -4 -8 -10 0 -5 7 -7 15
-4 8 4 15 13 15 21 0 10 6 13 16 9 21 -8 34 1 27 19 -8 23 -32 18 -45 -10z"/>
<path d="M3653 5836 c-24 -11 -31 -26 -12 -26 11 0 44 29 38 33 -2 2 -14 -2
-26 -7z"/>
<path d="M3983 5815 c-3 -9 -3 -18 -1 -21 3 -3 8 4 11 16 6 23 -1 27 -10 5z"/>
<path d="M5976 5805 c-3 -9 1 -18 10 -22 19 -7 28 2 21 22 -8 19 -23 19 -31 0z"/>
<path d="M3857 5804 c-8 -14 8 -37 22 -33 8 3 8 10 -2 23 -8 11 -17 15 -20 10z"/>
<path d="M5745 5800 c-7 -12 2 -30 16 -30 5 0 9 9 9 20 0 21 -15 27 -25 10z"/>
<path d="M5862 5794 c4 -21 22 -23 26 -1 2 10 -3 17 -13 17 -10 0 -15 -6 -13
-16z"/>
<path d="M3755 5790 c-7 -12 2 -30 16 -30 12 0 12 27 0 35 -5 3 -12 1 -16 -5z"/>
<path d="M3645 5780 c-8 -14 3 -30 21 -30 16 0 16 2 8 24 -7 18 -20 21 -29 6z"/>
<path d="M6147 5725 c-13 -18 -16 -34 -11 -60 6 -35 24 -49 24 -20 0 8 3 15 8
15 4 0 13 9 19 19 9 15 9 25 0 45 -15 32 -17 32 -40 1z"/>
<path d="M3835 5700 c3 -5 8 -10 11 -10 2 0 4 5 4 10 0 6 -5 10 -11 10 -5 0
-7 -4 -4 -10z"/>
<path d="M5700 5706 c0 -2 7 -7 16 -10 8 -3 12 -2 9 4 -6 10 -25 14 -25 6z"/>
<path d="M3725 5690 c3 -5 8 -10 11 -10 2 0 4 5 4 10 0 6 -5 10 -11 10 -5 0
-7 -4 -4 -10z"/>
<path d="M4455 5683 c-29 -15 -84 -63 -72 -63 5 0 106 66 116 76 10 10 -16 2
-44 -13z"/>
<path d="M6953 5664 c4 -7 -9 -10 -39 -9 -62 3 -131 -13 -174 -40 -41 -26
-110 -104 -110 -124 0 -8 12 5 28 27 65 98 148 127 333 118 69 -3 145 -12 167
-20 52 -19 55 -11 5 10 -47 20 -66 24 -133 25 -30 1 -61 6 -69 13 -10 7 -13 7
-8 0z"/>
<path d="M4630 5651 c-44 -9 -160 -63 -160 -74 0 -5 15 1 34 12 63 39 134 55
240 54 54 -1 96 0 93 3 -9 9 -171 13 -207 5z"/>
<path d="M4878 5633 c7 -3 16 -2 19 1 4 3 -2 6 -13 5 -11 0 -14 -3 -6 -6z"/>
<path d="M3990 5558 c-13 -40 -25 -76 -27 -80 -2 -5 1 -8 7 -8 17 0 48 80 48
123 0 20 -1 37 -2 37 -1 0 -13 -33 -26 -72z"/>
<path d="M5591 5584 c0 -11 3 -14 6 -6 3 7 2 16 -1 19 -3 4 -6 -2 -5 -13z"/>
<path d="M7709 5569 c-52 -55 -74 -187 -59 -353 10 -105 59 -290 60 -224 0 14
6 39 14 55 26 51 75 187 87 238 6 28 18 66 26 86 17 41 12 142 -7 180 -27 51
-82 59 -121 18z"/>
<path d="M3840 5571 c0 -6 5 -13 10 -16 6 -3 10 1 10 9 0 9 -4 16 -10 16 -5 0
-10 -4 -10 -9z"/>
<path d="M5835 5570 c-4 -6 -3 -16 3 -22 13 -13 23 4 13 21 -7 10 -10 10 -16
1z"/>
<path d="M5955 5570 c-8 -13 4 -32 16 -25 12 8 12 35 0 35 -6 0 -13 -4 -16
-10z"/>
<path d="M3625 5561 c-3 -5 -1 -12 5 -16 5 -3 10 1 10 9 0 18 -6 21 -15 7z"/>
<path d="M3730 5560 c0 -5 5 -10 10 -10 6 0 10 5 10 10 0 6 -4 10 -10 10 -5 0
-10 -4 -10 -10z"/>
<path d="M5717 5564 c-8 -8 1 -24 14 -24 5 0 9 7 9 15 0 15 -12 20 -23 9z"/>
<path d="M4429 5543 c-13 -17 -13 -17 6 -3 11 8 22 16 24 17 2 2 0 3 -6 3 -6
0 -17 -8 -24 -17z"/>
<path d="M6134 5513 c4 -8 2 -13 -7 -13 -8 0 -17 -8 -20 -19 -4 -16 0 -18 32
-15 20 3 69 6 109 8 40 2 76 7 79 10 4 3 -8 4 -25 2 -17 -2 -33 2 -36 8 -3 8
-7 7 -14 -2 -7 -10 -11 -10 -21 2 -11 14 -17 14 -47 1 -19 -8 -32 -10 -29 -6
2 5 -3 15 -12 22 -12 10 -14 10 -9 2z"/>
<path d="M6343 5497 c-2 -4 1 -6 9 -5 8 2 12 -5 11 -19 -2 -13 2 -23 7 -23 6
0 10 5 10 10 0 6 4 10 9 10 6 0 8 -9 6 -20 -2 -12 0 -18 6 -15 5 4 7 11 4 16
-4 5 0 9 7 9 10 0 10 2 0 9 -8 4 -13 11 -13 15 3 20 -2 24 -25 22 -14 0 -28
-4 -31 -9z"/>
<path d="M6010 5490 c0 -5 7 -7 15 -4 8 4 15 8 15 10 0 2 -7 4 -15 4 -8 0 -15
-4 -15 -10z"/>
<path d="M6064 5485 c10 -8 24 -11 29 -8 6 4 2 10 -9 14 -31 12 -40 9 -20 -6z"/>
<path d="M4700 5483 c8 -3 30 -14 48 -25 17 -11 32 -17 32 -15 0 9 -67 47 -81
46 -11 0 -10 -2 1 -6z"/>
<path d="M6424 5468 c0 -13 4 -26 10 -30 6 -4 5 -12 -4 -22 -11 -14 -10 -16 3
-11 8 4 18 16 22 28 7 21 7 21 12 3 3 -12 -2 -25 -13 -34 -17 -13 -17 -14 -1
-9 9 4 17 1 17 -4 0 -7 -9 -9 -22 -5 -13 3 -31 6 -41 6 -10 0 -16 4 -12 9 3 6
-9 7 -31 4 -21 -4 -35 -2 -32 3 4 5 -28 9 -73 9 -43 0 -79 -4 -79 -9 0 -5 -6
-3 -13 3 -8 6 -17 8 -20 4 -4 -3 -31 -7 -59 -8 -59 -2 -109 -12 -121 -25 -9
-8 51 -32 85 -35 9 -1 23 -7 32 -14 13 -11 20 -10 43 5 34 22 120 27 127 7 3
-7 21 -13 42 -13 28 0 35 -3 30 -15 -3 -9 0 -15 10 -15 8 0 12 -5 9 -10 -4 -6
-1 -18 6 -27 11 -13 10 -18 -10 -34 -13 -11 -22 -21 -20 -24 3 -2 21 -15 41
-28 l36 -25 11 25 c19 43 63 93 74 86 6 -4 8 0 4 9 -4 11 2 17 19 21 27 5 31
-12 14 -60 -9 -26 -9 -27 5 -9 8 11 15 23 15 28 0 4 13 14 30 23 32 17 110 21
110 5 0 -5 7 -6 17 -3 10 4 14 2 9 -5 -3 -6 -2 -13 3 -16 5 -3 11 3 14 14 3
11 1 18 -4 14 -5 -3 -9 0 -9 5 0 15 15 14 29 -3 8 -10 9 -16 1 -21 -12 -7 32
-75 77 -117 38 -36 143 -57 143 -29 0 4 -16 8 -35 9 -45 2 -102 29 -116 54
-10 18 -9 19 20 4 33 -18 45 -20 38 -8 -3 4 15 7 41 8 58 1 82 28 82 91 0 80
-54 149 -102 130 -7 -3 -3 -6 10 -6 12 -1 22 -6 22 -12 0 -5 -4 -7 -10 -4 -7
4 -7 -2 -1 -18 10 -25 6 -37 -11 -37 -5 0 -8 7 -6 16 2 10 -2 19 -8 21 -16 5
-26 -37 -10 -43 6 -2 13 -21 14 -42 1 -31 0 -34 -8 -14 -5 12 -12 22 -15 22
-4 0 -3 -4 0 -10 3 -5 1 -10 -4 -10 -6 0 -11 4 -11 10 0 15 -191 72 -218 65
-15 -4 -21 -2 -17 5 3 5 2 10 -4 10 -5 0 -17 3 -27 7 -12 4 -15 3 -10 -5 4 -7
2 -12 -3 -12 -6 0 -11 7 -11 15 0 11 -10 13 -40 10 -22 -2 -38 0 -35 5 3 5 11
8 18 6 7 -1 9 -1 5 1 -17 10 -6 24 13 18 12 -4 31 -8 43 -9 13 -2 28 -6 33 -9
6 -4 14 1 17 10 6 15 8 14 20 -2 14 -19 36 -13 36 11 0 17 16 19 26 2 4 -7 3
-8 -4 -4 -7 4 -12 3 -12 -2 0 -5 9 -12 19 -15 14 -3 18 -1 14 10 -4 11 -1 14
13 10 10 -3 34 -9 53 -12 33 -7 34 -8 16 -21 -10 -8 -14 -14 -8 -14 7 0 15 5
18 10 12 19 26 10 20 -12 -7 -23 -7 -23 9 -3 l16 20 -7 -20 c-8 -25 0 -18 17
14 8 15 8 21 1 17 -6 -4 -11 -2 -11 4 0 6 -4 8 -10 5 -5 -3 -18 -1 -28 4 -11
6 -33 13 -51 16 -17 3 -51 12 -74 20 -48 16 -173 44 -227 51 -32 4 -36 2 -36
-18z m166 -29 c0 -11 -27 -12 -34 -1 -2 4 4 9 15 9 10 1 19 -2 19 -8z m45 -9
c3 -5 1 -10 -4 -10 -6 0 -11 5 -11 10 0 6 2 10 4 10 3 0 8 -4 11 -10z m-145
-20 c0 -5 -5 -10 -11 -10 -5 0 -7 5 -4 10 3 6 8 10 11 10 2 0 4 -4 4 -10z
m489 -137 c1 -18 0 -33 -1 -33 -84 -13 -84 -13 -67 6 9 11 24 37 34 59 16 35
19 37 26 20 4 -11 8 -35 8 -52z m-289 27 c0 -5 -7 -7 -15 -4 -8 4 -15 8 -15
10 0 2 7 4 15 4 8 0 15 -4 15 -10z m137 -72 c-3 -8 -6 -5 -6 6 -1 11 2 17 5
13 3 -3 4 -12 1 -19z m126 -15 c-7 -2 -19 -2 -25 0 -7 3 -2 5 12 5 14 0 19 -2
13 -5z"/>
<path d="M6815 5480 c4 -6 11 -8 16 -5 14 9 11 15 -7 15 -8 0 -12 -5 -9 -10z"/>
<path d="M6886 5474 c-6 -12 -10 -15 -13 -6 -3 6 -9 9 -14 6 -17 -10 10 -32
31 -27 27 7 78 -15 91 -38 5 -11 17 -19 26 -19 12 0 13 3 4 13 -6 8 -7 17 -3
21 4 4 0 6 -8 4 -10 -2 -14 4 -13 17 1 11 0 14 -3 8 -4 -10 -11 -10 -27 2 -12
8 -29 15 -38 15 -10 0 -19 5 -21 12 -3 7 -8 4 -12 -8z"/>
<path d="M3710 5459 c0 -11 5 -17 10 -14 6 3 10 13 10 21 0 8 -4 14 -10 14 -5
0 -10 -9 -10 -21z"/>
<path d="M3820 5465 c0 -8 5 -15 10 -15 6 0 10 7 10 15 0 8 -4 15 -10 15 -5 0
-10 -7 -10 -15z"/>
<path d="M3600 5455 c0 -8 5 -15 10 -15 6 0 10 7 10 15 0 8 -4 15 -10 15 -5 0
-10 -7 -10 -15z"/>
<path d="M5605 5450 c27 -12 43 -12 25 0 -8 5 -22 9 -30 9 -10 0 -8 -3 5 -9z"/>
<path d="M5650 5440 c0 -5 5 -10 11 -10 5 0 7 5 4 10 -3 6 -8 10 -11 10 -2 0
-4 -4 -4 -10z"/>
<path d="M5985 5440 c-3 -6 1 -7 9 -4 18 7 21 14 7 14 -6 0 -13 -4 -16 -10z"/>
<path d="M3510 5403 c19 -8 43 -19 52 -24 10 -5 23 -9 30 -8 17 1 -83 48 -102
48 -8 0 1 -7 20 -16z"/>
<path d="M3565 5410 c27 -12 43 -12 25 0 -8 5 -22 9 -30 9 -10 0 -8 -3 5 -9z"/>
<path d="M5738 5403 c7 -3 16 -2 19 1 4 3 -2 6 -13 5 -11 0 -14 -3 -6 -6z"/>
<path d="M5940 5400 c-9 -6 -10 -10 -3 -10 6 0 15 5 18 10 8 12 4 12 -15 0z"/>
<path d="M3450 5396 c0 -2 7 -7 16 -10 8 -3 12 -2 9 4 -6 10 -25 14 -25 6z"/>
<path d="M5523 5386 c4 -10 7 -27 7 -38 0 -16 3 -18 14 -9 11 10 21 6 45 -18
18 -17 39 -31 48 -31 29 0 -6 -26 -57 -43 -88 -30 -119 -47 -149 -84 -17 -20
-29 -38 -27 -40 9 -9 56 18 56 32 0 18 24 28 136 57 80 19 87 20 137 5 28 -9
86 -21 127 -27 75 -11 201 -39 209 -46 2 -2 -1 -10 -8 -18 -9 -11 -5 -18 24
-35 20 -11 47 -24 60 -27 18 -4 25 -13 25 -29 0 -13 7 -26 16 -29 13 -5 14 -3
6 7 -8 10 -6 13 9 14 11 1 19 -5 19 -13 0 -8 13 -17 31 -21 19 -4 28 -10 25
-19 -4 -10 1 -11 20 -4 33 13 34 13 34 -5 0 -9 9 -15 24 -15 13 0 29 -7 36
-15 7 -8 18 -15 25 -15 15 0 47 -35 39 -43 -4 -3 -15 -2 -26 4 -11 6 -32 12
-46 14 -15 2 -73 13 -129 24 -130 27 -126 27 -110 -11 13 -33 56 -56 108 -57
14 -1 34 -10 44 -21 l18 -20 27 25 c42 40 119 30 107 -14 -4 -18 -2 -20 18
-15 13 3 28 -1 37 -9 12 -13 18 -13 39 -1 13 7 32 13 43 14 10 0 35 10 55 22
20 13 39 23 44 23 4 0 7 5 6 10 0 6 -6 9 -13 9 -7 -1 -13 5 -12 14 0 8 -5 17
-12 19 -7 3 -12 1 -11 -4 3 -19 -2 -34 -10 -29 -5 4 -11 0 -14 -6 -3 -9 -13
-5 -32 12 -16 14 -25 19 -21 13 4 -7 3 -13 -3 -13 -5 0 -12 6 -14 13 -4 10 -6
10 -6 0 -1 -7 -6 -13 -13 -13 -6 0 -8 3 -5 6 11 11 -14 46 -29 40 -9 -3 -14 1
-14 12 0 17 -151 112 -178 112 -7 0 -12 4 -12 10 0 5 -11 12 -25 16 -14 3 -25
10 -25 14 0 5 -9 12 -21 15 -11 4 -48 22 -82 42 -57 32 -226 105 -339 147 -27
10 -48 22 -48 27 0 5 -3 8 -7 7 -14 -3 -68 15 -115 39 -25 13 -61 26 -79 30
-28 5 -31 4 -26 -11z m1067 -526 c0 -5 -2 -10 -4 -10 -3 0 -8 5 -11 10 -3 6
-1 10 4 10 6 0 11 -4 11 -10z"/>
<path d="M4704 5343 c6 -35 5 -37 -9 -19 -8 11 -15 14 -15 7 0 -7 -5 -9 -10
-6 -6 4 -7 11 -4 17 5 7 2 8 -6 3 -7 -4 -16 -2 -21 6 -6 10 -8 7 -6 -9 1 -14
6 -21 15 -17 7 2 11 1 7 -4 -3 -5 1 -12 7 -15 7 -3 4 -4 -7 -1 -83 20 -117 22
-130 9 -10 -10 -29 -12 -72 -8 -32 4 -71 7 -88 9 -16 1 -63 6 -104 10 -97 9
-222 12 -227 4 -2 -4 -46 -7 -98 -8 -52 -1 -105 -4 -118 -7 -27 -6 -56 -11
-80 -13 -9 0 -23 -8 -32 -16 -13 -13 -15 -13 -21 5 -4 11 -11 18 -16 14 -5 -3
-6 -11 -2 -17 4 -7 -1 -6 -11 2 -25 21 -64 20 -121 -1 -51 -20 -85 -44 -85
-60 0 -5 10 -13 23 -17 21 -9 21 -10 -13 -25 -70 -32 -159 -98 -141 -104 14
-5 71 17 71 27 0 4 30 8 68 9 37 2 99 10 137 18 118 26 154 26 236 2 66 -20
81 -29 118 -72 24 -27 46 -59 51 -71 7 -17 14 -21 34 -18 16 3 26 1 26 -6 0
-8 6 -7 20 1 15 9 23 10 28 2 4 -6 15 -10 25 -8 17 2 77 -23 77 -32 0 -10
-195 1 -203 11 -6 7 -8 7 -5 -1 2 -5 22 -27 45 -48 l43 -38 31 26 c17 14 35
26 40 26 23 0 50 -22 45 -36 -4 -11 -1 -12 12 -6 21 11 40 6 68 -20 21 -19 23
-19 74 -2 30 10 62 26 72 36 11 11 26 17 34 14 8 -3 14 -1 14 4 0 6 -5 10 -11
10 -6 0 -8 8 -4 19 3 11 0 21 -8 24 -14 5 -39 -6 -38 -17 1 -3 -2 -6 -6 -7 -5
0 -11 -6 -15 -14 -9 -15 -48 -8 -48 9 0 15 -80 59 -230 127 -69 31 -161 74
-205 96 -44 22 -107 50 -140 64 -41 16 -54 25 -40 27 29 5 108 34 122 45 7 5
20 7 28 3 11 -4 14 -2 9 6 -15 24 70 -2 172 -52 57 -29 108 -49 114 -45 5 3
10 15 10 26 0 25 52 79 75 79 9 0 19 -8 22 -19 4 -16 9 -17 39 -8 24 7 58 7
121 -3 80 -12 90 -16 127 -52 59 -58 145 -95 160 -69 3 4 -5 8 -17 8 -27 -1
-94 29 -124 56 -23 21 -32 44 -13 32 6 -4 25 -9 43 -11 75 -10 111 -13 95 -8
-25 8 -22 28 8 74 26 39 26 41 9 60 -28 30 -38 24 -31 -17z m-604 -293 c12 -8
9 -10 -12 -10 -16 0 -28 5 -28 10 0 13 20 13 40 0z"/>
<path d="M5821 5376 c2 -2 15 -9 29 -15 24 -11 24 -11 6 3 -16 13 -49 24 -35
12z"/>
<path d="M3530 5356 c7 -7 13 -7 20 0 6 6 3 10 -10 10 -13 0 -16 -4 -10 -10z"/>
<path d="M4586 5342 c-3 -5 1 -9 9 -9 8 0 12 4 9 9 -3 4 -7 8 -9 8 -2 0 -6 -4
-9 -8z"/>
<path d="M5880 5346 c0 -2 7 -7 16 -10 8 -3 12 -2 9 4 -6 10 -25 14 -25 6z"/>
<path d="M3434 5333 c3 -6 2 -23 -4 -37 -12 -32 -10 -32 24 -1 28 26 34 40 12
32 -7 -3 -19 0 -26 6 -10 9 -11 9 -6 0z"/>
<path d="M5867 5329 c7 -7 15 -10 18 -7 3 3 -2 9 -12 12 -14 6 -15 5 -6 -5z"/>
<path d="M4845 5320 c-3 -5 -2 -10 4 -10 5 0 13 5 16 10 3 6 2 10 -4 10 -5 0
-13 -4 -16 -10z"/>
<path d="M5910 5310 c0 -5 5 -10 11 -10 5 0 7 5 4 10 -3 6 -8 10 -11 10 -2 0
-4 -4 -4 -10z"/>
<path d="M7046 5301 c-3 -5 1 -11 9 -15 15 -6 29 7 18 18 -9 9 -21 8 -27 -3z"/>
<path d="M3640 5010 c0 -17 -5 -19 -32 -13 -18 3 -40 9 -49 14 -8 4 -22 3 -30
-2 -11 -7 -9 -9 9 -9 12 0 22 -4 22 -9 0 -5 8 -7 18 -4 10 2 30 -6 45 -18 24
-18 28 -27 25 -63 l-3 -41 -85 -6 c-47 -4 -167 -12 -266 -18 -100 -7 -194 -16
-210 -21 -32 -10 17 -8 404 15 129 7 235 15 237 17 1 2 6 14 9 28 6 22 6 23
-7 8 -22 -28 -57 -12 -57 26 0 17 -7 42 -16 54 -8 12 -11 22 -7 22 5 0 9 9 9
20 0 11 -4 20 -8 20 -4 0 -8 -9 -8 -20z"/>
<path d="M5738 5023 c7 -3 16 -2 19 1 4 3 -2 6 -13 5 -11 0 -14 -3 -6 -6z"/>
<path d="M3670 5001 c0 -14 4 -20 11 -15 6 3 15 0 20 -7 4 -7 10 -11 13 -8 3
3 -5 16 -19 29 l-25 23 0 -22z"/>
<path d="M5688 5013 c7 -3 16 -2 19 1 4 3 -2 6 -13 5 -11 0 -14 -3 -6 -6z"/>
<path d="M5750 4995 c0 -8 -7 -15 -15 -15 -8 0 -15 3 -15 8 0 4 -39 8 -88 8
-82 1 -83 1 -22 -5 l65 -6 -60 -23 c-78 -31 -125 -39 -125 -22 0 8 -10 4 -25
-10 -34 -32 -31 -44 9 -37 30 5 33 3 29 -14 -5 -16 0 -19 31 -19 42 0 95 20
114 43 11 13 10 17 -10 28 -20 11 -21 10 -11 -3 16 -19 -1 -38 -34 -38 -29 0
-29 9 1 38 32 29 93 54 116 47 32 -10 70 -64 70 -99 l0 -32 -247 -33 c-306
-40 -373 -51 -373 -60 0 -4 33 -4 73 1 526 58 633 76 641 107 8 36 5 70 -9 81
-9 7 -19 10 -22 6 -4 -4 -1 -11 7 -17 13 -8 13 -10 0 -19 -10 -6 -11 -10 -2
-10 6 0 12 -9 12 -21 0 -16 -5 -20 -27 -17 -21 2 -29 10 -36 38 -5 19 -18 45
-29 57 -16 17 -17 22 -5 25 13 3 13 5 1 16 -12 11 -14 10 -14 -3z"/>
<path d="M5785 4985 c0 -27 10 -33 19 -12 5 10 7 10 12 0 3 -7 11 -13 17 -13
6 0 0 11 -13 25 -13 14 -26 25 -29 25 -3 0 -6 -11 -6 -25z"/>
<path d="M5505 4990 c-16 -7 -17 -9 -3 -9 9 -1 20 4 23 9 7 11 7 11 -20 0z"/>
<path d="M6145 4990 c-3 -5 -1 -10 4 -10 6 0 11 5 11 10 0 6 -2 10 -4 10 -3 0
-8 -4 -11 -10z"/>
<path d="M3466 4956 c-44 -15 -60 -18 -63 -9 -3 9 -11 8 -29 -3 -29 -20 -24
-33 11 -26 20 3 24 1 19 -12 -5 -13 1 -16 30 -16 47 0 106 25 106 44 0 9 -5
16 -11 16 -5 0 -7 -4 -4 -10 7 -12 -42 -37 -52 -27 -8 9 29 45 59 57 46 18 -9
7 -66 -14z"/>
<path d="M3710 4950 c0 -5 5 -10 10 -10 6 0 10 5 10 10 0 6 -4 10 -10 10 -5 0
-10 -4 -10 -10z"/>
<path d="M3716 4925 c-11 -8 -15 -15 -9 -15 19 0 43 12 43 21 0 13 -12 11 -34
-6z"/>
<path d="M3262 4906 c7 -8 17 -12 22 -9 4 3 2 9 -5 14 -22 13 -31 11 -17 -5z"/>
<path d="M3205 4890 c-4 -6 5 -10 20 -10 15 0 24 4 20 10 -3 6 -12 10 -20 10
-8 0 -17 -4 -20 -10z"/>
<path d="M5330 4889 c0 -5 -11 -15 -25 -21 -14 -6 -25 -15 -25 -20 0 -15 54
-8 82 10 l27 18 -29 11 c-17 7 -30 7 -30 2z m20 -19 c0 -5 -7 -10 -16 -10 -8
0 -12 5 -9 10 3 6 10 10 16 10 5 0 9 -4 9 -10z"/>
<path d="M7178 4873 c7 -3 16 -2 19 1 4 3 -2 6 -13 5 -11 0 -14 -3 -6 -6z"/>
<path d="M5428 4843 c18 -2 45 -2 60 0 15 2 0 4 -33 4 -33 0 -45 -2 -27 -4z"/>
<path d="M5528 4833 c7 -3 16 -2 19 1 4 3 -2 6 -13 5 -11 0 -14 -3 -6 -6z"/>
<path d="M4117 4819 c7 -7 15 -10 18 -7 3 3 -2 9 -12 12 -14 6 -15 5 -6 -5z"/>
<path d="M4600 4820 c-9 -6 -10 -10 -3 -10 6 0 15 5 18 10 8 12 4 12 -15 0z"/>
<path d="M6155 4813 c4 -10 18 -45 30 -77 13 -36 25 -54 29 -47 12 18 36 -6
36 -36 l0 -24 53 34 c52 34 61 49 31 53 -24 4 -44 -6 -44 -22 0 -8 -3 -14 -6
-14 -13 0 -77 68 -100 108 -25 42 -43 58 -29 25z"/>
<path d="M4550 4804 c-17 -9 -20 -14 -9 -14 9 0 22 7 29 15 15 18 13 18 -20
-1z"/>
<path d="M3980 4786 c0 -9 5 -16 10 -16 6 0 10 4 10 9 0 6 -4 13 -10 16 -5 3
-10 -1 -10 -9z"/>
<path d="M4068 4780 c-14 -11 -30 -20 -35 -20 -5 0 -8 -13 -5 -30 2 -16 7 -30
9 -30 3 0 27 12 55 27 38 21 45 29 34 35 -9 5 -19 15 -24 24 -7 13 -12 12 -34
-6z"/>
<path d="M4490 4780 c-9 -6 -10 -10 -3 -10 6 0 15 5 18 10 8 12 4 12 -15 0z"/>
<path d="M6410 4775 c0 -2 7 -8 15 -15 12 -10 15 -10 15 2 0 8 -7 15 -15 15
-8 0 -15 -1 -15 -2z"/>
<path d="M4255 4715 c-49 -24 -85 -43 -80 -44 6 0 51 20 100 44 50 24 86 43
80 43 -5 0 -50 -19 -100 -43z"/>
<path d="M6340 4750 c0 -6 11 -10 25 -10 14 0 28 0 32 -1 4 0 9 4 11 9 1 5
-13 9 -33 10 -19 1 -35 -3 -35 -8z"/>
<path d="M6552 4701 c-127 -63 -265 -142 -258 -149 3 -2 11 0 18 5 13 10 210
115 308 164 30 15 50 28 44 28 -6 1 -56 -21 -112 -48z"/>
<path d="M7555 4743 c6 -5 33 -30 60 -54 37 -32 42 -35 20 -10 -16 18 -43 42
-60 54 -16 11 -25 16 -20 10z"/>
<path d="M3405 4683 c-21 -3 -35 -13 -47 -33 -11 -19 -25 -30 -39 -30 -40 0
-87 -30 -91 -58 l-4 -28 46 10 c36 7 63 4 133 -13 48 -12 92 -19 97 -16 4 3
10 1 12 -4 4 -11 100 -53 106 -46 3 3 0 5 -6 5 -7 0 -12 6 -12 13 0 12 -99 48
-132 47 -10 0 -18 5 -18 10 0 6 -9 10 -20 10 -11 0 -20 7 -20 15 0 13 7 15 38
9 20 -4 46 -11 57 -17 11 -6 31 -12 44 -13 30 -4 77 -38 74 -53 -2 -6 3 -11
11 -11 9 0 12 8 8 25 -2 15 0 25 7 25 6 0 11 5 11 10 0 6 -5 10 -11 10 -6 0
-27 7 -46 17 l-35 16 23 18 c13 10 35 19 48 19 24 0 24 0 5 15 -16 13 -17 16
-4 25 13 9 13 10 0 10 -8 -1 -24 -7 -34 -15 -27 -20 -73 -19 -104 4 -33 22
-58 29 -97 24z"/>
<path d="M4120 4655 c-14 -8 -20 -14 -15 -14 6 0 21 6 35 14 14 8 21 14 15 14
-5 0 -21 -6 -35 -14z"/>
<path d="M7720 4583 c72 -78 75 -81 59 -57 -26 39 -94 114 -103 114 -5 0 15
-26 44 -57z"/>
<path d="M5837 4616 l-49 -11 53 -22 c49 -21 53 -22 65 -5 10 14 9 19 -7 28
-11 5 -16 13 -13 17 4 4 5 6 3 6 -2 -1 -26 -7 -52 -13z"/>
<path d="M4900 4613 c-8 -3 -26 -16 -39 -29 -13 -13 -28 -21 -33 -18 -6 4 -13
2 -17 -3 -6 -8 -28 -18 -178 -75 -66 -25 -68 -26 -61 -34 3 -3 26 3 50 14 23
11 61 25 83 32 22 7 51 18 65 26 14 7 50 24 81 38 68 30 109 71 49 49z"/>
<path d="M5614 4593 l-52 -26 -30 21 -29 22 -36 -55 c-21 -31 -50 -60 -69 -69
-19 -9 -54 -36 -79 -60 l-46 -44 -113 -7 -113 -8 35 -18 c30 -15 42 -17 69 -7
26 9 38 8 64 -6 31 -17 34 -17 65 -1 49 25 116 16 171 -23 66 -47 124 -100
116 -108 -9 -10 -149 14 -216 37 -61 22 -131 39 -131 33 0 -12 148 -68 210
-79 8 -1 22 -5 30 -8 63 -23 90 -28 110 -17 15 8 19 17 14 28 -3 9 -9 28 -12
41 -4 21 -2 22 19 16 13 -4 32 -14 42 -23 13 -11 17 -12 17 -2 0 17 30 39 54
40 16 0 16 2 -5 19 -22 18 -26 18 -41 4 -10 -8 -17 -18 -16 -22 4 -39 -57 -10
-158 74 -33 27 -69 55 -80 61 -18 11 -17 13 13 30 18 11 33 22 33 26 0 4 9 12
20 18 24 13 46 3 104 -47 33 -27 45 -32 71 -27 21 4 57 -4 112 -24 68 -25 85
-28 99 -17 17 12 16 14 -4 40 -30 37 -28 45 11 46 17 0 25 3 17 6 -8 2 -22 7
-30 10 -8 4 -35 13 -58 22 -24 9 -44 21 -43 26 0 6 24 15 53 21 52 11 53 11
25 22 -16 7 -33 12 -38 12 -5 0 -9 7 -9 15 0 14 -58 35 -95 34 -11 0 -43 -12
-71 -26z m151 -148 c27 -22 28 -24 9 -25 -28 0 -84 20 -84 30 0 9 17 18 35 19
6 1 24 -10 40 -24z"/>
<path d="M4765 4590 c-22 -4 -80 -20 -130 -35 -49 -14 -102 -29 -117 -32 -16
-3 -28 -10 -28 -15 0 -5 -4 -7 -9 -4 -4 3 -44 -8 -87 -24 -44 -16 -73 -29 -66
-30 7 0 10 -5 7 -10 -4 -6 -11 -8 -16 -5 -5 4 -9 1 -9 -4 0 -6 -7 -11 -15 -11
-8 0 -15 -5 -15 -11 0 -7 7 -8 18 -4 77 31 207 80 252 95 30 10 75 26 100 35
24 9 81 27 125 40 77 23 72 31 -10 15z m-358 -126 c-3 -3 -12 -4 -19 -1 -8 3
-5 6 6 6 11 1 17 -2 13 -5z m-37 -14 c0 -5 -2 -10 -4 -10 -3 0 -8 5 -11 10 -3
6 -1 10 4 10 6 0 11 -4 11 -10z"/>
<path d="M3718 4545 c-6 -13 -15 -22 -21 -18 -6 3 -7 1 -3 -5 5 -9 19 -6 49
10 37 18 40 22 22 29 -31 12 -35 11 -47 -16z"/>
<path d="M7125 4559 c-12 -19 2 -21 32 -5 l28 15 -27 1 c-15 0 -30 -5 -33 -11z"/>
<path d="M7216 4545 c-5 -13 -2 -14 17 -4 32 17 33 19 10 19 -12 0 -23 -7 -27
-15z"/>
<path d="M6210 4509 c-73 -46 -107 -75 -45 -39 77 46 115 70 115 75 0 8 -1 7
-70 -36z"/>
<path d="M6973 4538 c-18 -6 -33 -15 -33 -19 0 -5 -7 -9 -16 -9 -22 0 -131
-53 -117 -57 9 -3 86 28 198 82 34 17 16 18 -32 3z"/>
<path d="M7302 4535 c-16 -19 -3 -19 22 0 14 11 16 15 5 15 -8 -1 -20 -7 -27
-15z"/>
<path d="M2949 4518 c-10 -19 -6 -21 46 -21 82 0 105 4 105 17 0 11 -18 15
-71 18 -60 2 -73 0 -80 -14z"/>
<path d="M4773 4486 c-88 -34 -108 -46 -78 -46 18 0 54 15 150 61 63 30 18 21
-72 -15z"/>
<path d="M5896 4502 c-9 -15 5 -73 20 -79 7 -2 29 6 49 20 32 22 34 26 19 38
-9 7 -21 14 -28 16 -6 1 -21 5 -32 8 -12 4 -24 2 -28 -3z"/>
<path d="M7430 4499 c0 -5 5 -7 10 -4 6 3 10 8 10 11 0 2 -4 4 -10 4 -5 0 -10
-5 -10 -11z"/>
<path d="M3190 4491 c0 -5 -30 -12 -67 -17 l-68 -8 65 -8 c134 -18 133 -18
178 -64 36 -38 42 -41 42 -23 0 15 4 19 16 15 9 -3 -5 15 -31 40 -26 25 -66
52 -88 60 -47 17 -47 17 -47 5z"/>
<path d="M6945 4468 c-67 -34 -71 -36 -63 -44 7 -7 128 57 128 68 0 4 -1 8 -2
7 -2 -1 -30 -15 -63 -31z"/>
<path d="M7464 4479 c-5 -9 -9 -28 -17 -94 -1 -11 -6 -26 -10 -33 -14 -21 -18
-94 -5 -86 7 5 9 0 5 -15 -3 -14 -1 -21 6 -18 7 2 12 15 13 28 2 71 17 167 30
186 17 28 17 30 -1 36 -8 4 -17 1 -21 -4z"/>
<path d="M2731 4438 c-28 -23 -49 -43 -48 -45 7 -6 137 57 137 66 0 7 -23 21
-34 21 -2 0 -26 -19 -55 -42z"/>
<path d="M2998 4463 c6 -2 18 -2 25 0 6 3 1 5 -13 5 -14 0 -19 -2 -12 -5z"/>
<path d="M7060 4460 c0 -5 5 -10 11 -10 5 0 7 5 4 10 -3 6 -8 10 -11 10 -2 0
-4 -4 -4 -10z"/>
<path d="M4525 4444 l-30 -14 30 6 c31 6 41 11 34 18 -2 2 -17 -2 -34 -10z"/>
<path d="M6685 4439 c-22 -10 -29 -16 -15 -13 28 7 80 33 65 33 -5 0 -28 -9
-50 -20z"/>
<path d="M7516 4451 c-3 -5 1 -11 9 -15 8 -3 15 -1 15 4 0 13 -18 22 -24 11z"/>
<path d="M4755 4425 c-27 -14 -71 -32 -97 -41 -26 -8 -50 -19 -53 -23 -2 -5
-25 -14 -50 -21 -25 -7 -48 -17 -52 -23 -4 -7 1 -8 13 -3 10 5 42 16 69 26 84
31 194 78 217 94 33 24 10 19 -47 -9z"/>
<path d="M5042 4439 c-45 -17 -19 -26 70 -25 63 1 93 5 96 14 2 7 -6 12 -20
13 -98 5 -128 5 -146 -2z"/>
<path d="M6765 4441 c-3 -5 -19 -12 -35 -16 -17 -4 -30 -11 -30 -16 0 -5 1 -9
3 -9 8 0 87 41 87 45 0 9 -19 5 -25 -4z"/>
<path d="M3500 4430 c0 -5 5 -10 10 -10 6 0 10 5 10 10 0 6 -4 10 -10 10 -5 0
-10 -4 -10 -10z"/>
<path d="M4570 4405 c-47 -19 -80 -34 -73 -35 17 0 156 50 168 61 16 16 -7 9
-95 -26z"/>
<path d="M5984 4359 c-109 -75 -163 -115 -124 -94 15 9 155 100 217 143 29 19
40 32 30 32 -2 0 -57 -37 -123 -81z"/>
<path d="M6988 4422 c-41 -25 -34 -35 7 -11 19 12 35 23 35 25 0 8 -16 3 -42
-14z"/>
<path d="M4470 4419 c0 -5 5 -7 10 -4 6 3 10 8 10 11 0 2 -4 4 -10 4 -5 0 -10
-5 -10 -11z"/>
<path d="M7550 4427 c0 -10 41 -49 46 -45 2 3 -7 15 -21 28 -14 13 -25 20 -25
17z"/>
<path d="M4120 4376 c-122 -45 -294 -124 -272 -125 7 -1 20 3 30 8 9 5 42 19
72 32 30 13 57 27 58 32 2 4 11 7 19 7 27 0 203 63 203 72 0 5 10 6 21 3 15
-5 19 -4 15 4 -10 16 -18 14 -146 -33z"/>
<path d="M4435 4410 c-3 -5 1 -10 9 -10 9 0 16 5 16 10 0 6 -4 10 -9 10 -6 0
-13 -4 -16 -10z"/>
<path d="M6780 4388 c-36 -17 -84 -39 -107 -49 -45 -19 -59 -35 -21 -23 13 4
50 19 83 34 33 15 70 31 83 35 12 3 22 11 22 16 0 6 4 8 9 4 5 -3 12 -1 16 5
11 17 -18 10 -85 -22z"/>
<path d="M7076 4405 c-11 -8 -18 -17 -15 -19 2 -3 15 4 29 14 14 11 21 20 15
19 -5 0 -19 -6 -29 -14z"/>
<path d="M2855 4404 c-29 -6 -101 -29 -110 -34 -14 -10 -142 -47 -190 -55 -28
-5 -51 -18 -77 -46 -41 -43 -47 -59 -22 -59 19 0 100 45 134 75 14 12 33 25
43 28 15 6 17 3 11 -15 -6 -19 -3 -18 20 7 18 21 24 24 19 11 -5 -16 -3 -18
13 -11 65 27 95 29 142 11 26 -10 61 -23 79 -30 18 -7 48 -27 67 -44 20 -18
37 -32 40 -32 2 0 6 9 9 21 4 14 10 18 19 13 8 -4 10 -3 5 2 -5 5 -13 10 -18
10 -5 1 -11 3 -14 4 -7 3 -22 7 -36 9 -5 0 -8 5 -5 9 2 4 -7 9 -22 10 -15 1
-32 8 -37 16 -6 7 -36 22 -68 32 -85 26 -74 38 45 53 49 5 75 3 118 -11 130
-42 294 -77 313 -66 25 13 20 16 -38 23 -28 4 -79 15 -115 25 -141 40 -265 57
-325 44z"/>
<path d="M3428 4398 c-16 -13 -33 -52 -20 -46 49 24 60 32 55 44 -6 17 -15 18
-35 2z"/>
<path d="M4795 4389 c-22 -10 -47 -19 -56 -19 -18 0 -45 -27 -37 -36 3 -3 16
-7 29 -9 27 -5 74 29 64 45 -3 5 2 10 13 10 11 0 25 7 32 15 16 19 5 18 -45
-6z"/>
<path d="M6657 4394 c-16 -9 -27 -18 -24 -20 7 -7 57 18 57 28 0 10 1 10 -33
-8z"/>
<path d="M7487 4404 c-4 -4 -7 -17 -7 -28 0 -17 2 -18 10 -6 7 11 11 8 20 -15
9 -23 8 -31 -5 -44 -13 -14 -15 -13 -15 7 0 12 -4 22 -10 22 -13 0 -13 -40 0
-60 7 -12 12 -12 22 -2 18 18 25 15 33 -15 10 -41 25 -56 41 -42 8 6 14 18 14
25 0 17 -20 19 -21 2 0 -7 -7 2 -15 20 -16 36 -12 52 13 52 10 0 14 -6 10 -20
-3 -11 -1 -23 5 -26 5 -4 8 9 6 32 -3 35 -5 39 -29 36 -22 -2 -28 3 -35 30 -9
31 -24 44 -37 32z"/>
<path d="M6565 4390 c-3 -5 -1 -10 4 -10 6 0 11 5 11 10 0 6 -2 10 -4 10 -3 0
-8 -4 -11 -10z"/>
<path d="M6877 4368 c-31 -17 -56 -33 -54 -35 5 -4 127 56 127 62 0 10 -16 4
-73 -27z"/>
<path d="M7030 4379 c0 -5 5 -7 10 -4 6 3 10 8 10 11 0 2 -4 4 -10 4 -5 0 -10
-5 -10 -11z"/>
<path d="M6895 4316 c-135 -68 -240 -116 -255 -116 -5 0 -10 -5 -10 -11 0 -11
36 -4 55 11 6 4 39 20 75 35 71 29 172 77 180 85 3 3 22 14 43 24 20 11 37 23
37 28 0 4 -1 7 -2 7 -2 -1 -57 -29 -123 -63z"/>
<path d="M7120 4370 c0 -5 4 -10 9 -10 6 0 13 5 16 10 3 6 -1 10 -9 10 -9 0
-16 -4 -16 -10z"/>
<path d="M6580 4360 c-18 -12 -2 -12 25 0 13 6 15 9 5 9 -8 0 -22 -4 -30 -9z"/>
<path d="M7075 4346 c-11 -7 -57 -33 -102 -56 -46 -24 -83 -47 -83 -52 0 -6
30 7 68 28 37 20 76 42 87 48 32 18 68 46 59 46 -5 0 -18 -6 -29 -14z"/>
<path d="M4248 4343 c7 -3 16 -2 19 1 4 3 -2 6 -13 5 -11 0 -14 -3 -6 -6z"/>
<path d="M6540 4340 c0 -5 5 -10 10 -10 6 0 10 5 10 10 0 6 -4 10 -10 10 -5 0
-10 -4 -10 -10z"/>
<path d="M4612 4311 c-62 -34 -71 -41 -51 -41 8 0 39 16 69 35 66 42 55 45
-18 6z"/>
<path d="M6740 4307 c-56 -27 -54 -26 -48 -32 3 -3 18 1 34 10 16 8 35 15 42
15 6 0 12 4 12 9 0 5 8 12 18 14 11 3 12 5 2 5 -8 1 -35 -9 -60 -21z"/>
<path d="M7133 4318 c-13 -6 -23 -14 -23 -19 0 -11 38 1 51 17 13 16 3 17 -28
2z"/>
<path d="M4815 4310 c-3 -5 -2 -10 4 -10 5 0 22 -5 38 -11 22 -8 25 -12 13
-19 -13 -7 -104 -24 -135 -25 -5 0 -16 -8 -23 -17 -7 -10 -18 -18 -24 -18 -7
0 -7 4 1 13 8 10 7 14 -4 14 -8 0 -15 -3 -15 -7 0 -4 -14 -6 -32 -4 -22 3 -29
1 -22 -6 21 -21 90 -21 141 -1 109 43 185 35 284 -28 25 -15 56 -31 69 -34 21
-6 150 -119 150 -132 0 -10 -61 0 -184 31 -72 19 -132 31 -135 28 -11 -10 29
-31 72 -38 70 -11 147 -39 147 -53 0 -10 14 -12 58 -9 31 2 58 5 60 5 1 1 2
17 2 36 0 38 18 47 40 20 16 -19 18 -19 60 6 32 20 33 22 15 35 -20 15 -45 3
-45 -22 0 -19 -81 18 -165 76 -67 46 -172 102 -292 156 -62 27 -69 28 -78 14z"/>
<path d="M6461 4306 c-7 -8 -23 -17 -36 -20 -14 -4 -25 -10 -25 -15 0 -5 16
-1 35 7 19 9 35 20 35 24 0 4 7 5 15 2 8 -4 15 -1 15 5 0 16 -25 14 -39 -3z"/>
<path d="M6571 4294 c-19 -8 -32 -17 -29 -20 7 -6 78 22 78 30 0 9 -12 7 -49
-10z"/>
<path d="M7045 4272 c-16 -8 -32 -18 -35 -21 -5 -7 -114 -61 -283 -141 -60
-28 -106 -54 -104 -57 8 -7 363 163 442 212 44 27 29 32 -20 7z"/>
<path d="M4348 4273 c-10 -2 -18 -8 -18 -13 0 -4 9 -6 20 -3 11 3 20 9 20 14
0 5 -1 8 -2 8 -2 -1 -11 -3 -20 -6z"/>
<path d="M6653 4268 c-13 -6 -23 -14 -23 -19 0 -4 11 -2 25 4 14 7 25 15 25
20 0 8 1 9 -27 -5z"/>
<path d="M7145 4260 c-33 -22 -29 -26 10 -8 14 6 25 15 25 20 0 11 -1 11 -35
-12z"/>
<path d="M3943 4253 c-46 -23 -41 -35 7 -16 22 9 40 20 40 25 0 11 -10 9 -47
-9z"/>
<path d="M4125 4260 c-3 -5 -1 -10 4 -10 6 0 11 5 11 10 0 6 -2 10 -4 10 -3 0
-8 -4 -11 -10z"/>
<path d="M6483 4252 c-18 -9 -33 -19 -33 -23 0 -4 18 2 40 12 22 11 40 22 40
24 0 7 -11 4 -47 -13z"/>
<path d="M3107 4253 c-2 -5 -4 -21 -5 -38 l-2 -30 26 27 c15 14 23 31 20 37
-8 13 -33 15 -39 4z"/>
<path d="M4290 4250 c0 -5 7 -10 15 -10 8 0 15 5 15 10 0 6 -7 10 -15 10 -8 0
-15 -4 -15 -10z"/>
<path d="M6325 4242 c-16 -8 -31 -19 -33 -24 -2 -4 -10 -8 -18 -8 -24 0 -434
-232 -434 -246 0 -2 24 9 53 26 28 17 111 62 182 100 145 77 241 129 270 147
30 18 14 21 -20 5z"/>
<path d="M7705 4250 c-3 -5 -1 -10 4 -10 6 0 11 5 11 10 0 6 -2 10 -4 10 -3 0
-8 -4 -11 -10z"/>
<path d="M3810 4240 c-9 -6 -10 -10 -3 -10 6 0 15 5 18 10 8 12 4 12 -15 0z"/>
<path d="M4053 4235 c-18 -8 -33 -16 -33 -19 0 -5 71 22 79 30 9 8 -15 3 -46
-11z"/>
<path d="M4248 4243 c-10 -2 -18 -9 -18 -15 0 -5 7 -7 16 -4 9 3 20 6 25 6 5
0 9 5 9 10 0 10 -3 11 -32 3z"/>
<path d="M6584 4234 c-17 -14 -17 -15 -1 -10 10 3 23 6 28 6 5 0 9 5 9 10 0
14 -13 12 -36 -6z"/>
<path d="M6815 4214 c-27 -13 -56 -24 -62 -24 -7 0 -13 -4 -13 -10 0 -5 -5
-10 -12 -10 -6 0 -30 -9 -52 -19 -23 -10 -58 -27 -78 -36 -36 -16 -50 -35 -28
-35 6 0 10 5 10 10 0 6 9 10 20 10 11 0 20 5 20 10 0 6 3 9 8 8 4 -1 34 11 67
26 33 16 88 41 123 57 34 15 62 31 62 34 0 9 -13 5 -65 -21z"/>
<path d="M7075 4227 c-11 -7 -22 -14 -25 -17 -14 -14 -265 -140 -279 -140 -6
0 -11 -4 -11 -10 0 -15 2 -14 138 53 156 79 212 110 212 120 0 10 -11 8 -35
-6z"/>
<path d="M2588 4219 c-10 -5 -18 -7 -18 -4 0 3 -13 -1 -30 -10 -16 -9 -30 -20
-30 -26 0 -6 -4 -8 -8 -5 -5 3 -21 -3 -36 -13 -27 -18 -27 -18 -5 -24 12 -3
31 -1 42 5 11 5 35 8 53 5 41 -7 44 5 7 23 l-28 12 23 9 c13 5 50 13 84 19 49
7 65 6 82 -5 11 -8 39 -15 61 -15 22 0 83 -7 136 -16 103 -18 133 -15 122 11
-3 9 -9 13 -12 8 -9 -15 -40 -23 -46 -13 -3 5 -13 9 -23 8 -30 0 -104 10 -180
27 -83 17 -169 19 -194 4z"/>
<path d="M4185 4220 c-17 -8 -16 -8 8 -7 15 1 27 5 27 9 0 10 -9 9 -35 -2z"/>
<path d="M4375 4223 c-11 -3 -24 -9 -29 -14 -15 -14 14 -10 49 6 29 13 19 17
-20 8z"/>
<path d="M7148 4206 c-21 -11 -38 -25 -38 -29 0 -4 18 3 40 15 22 13 40 26 40
31 0 4 -1 7 -2 6 -2 -1 -20 -11 -40 -23z"/>
<path d="M7470 4215 c-8 -9 -8 -15 -2 -15 12 0 26 19 19 26 -2 2 -10 -2 -17
-11z"/>
<path d="M4554 4203 c-5 -8 -23 -17 -39 -18 -54 -6 -102 -45 -55 -45 25 0 25
-8 -1 -36 -20 -22 -20 -22 -1 -28 12 -4 43 4 76 18 50 22 60 24 102 13 55 -14
67 -32 24 -35 -31 -2 -155 -44 -203 -69 -50 -25 -21 -25 39 0 94 39 194 60
227 48 15 -6 27 -15 27 -21 0 -5 7 -10 16 -10 9 0 29 -11 46 -25 30 -25 68
-34 68 -15 0 5 -6 7 -13 4 -8 -3 -45 21 -83 52 -73 61 -134 93 -173 94 -13 0
-50 -12 -82 -26 -33 -15 -62 -24 -65 -21 -9 9 28 42 64 57 19 7 31 18 28 25
-3 8 8 18 25 25 31 13 31 22 1 27 -10 1 -22 -5 -28 -14z"/>
<path d="M6362 4191 c-61 -33 -82 -50 -32 -27 19 9 47 21 63 27 15 6 27 15 27
20 0 5 -1 9 -2 8 -2 0 -27 -13 -56 -28z"/>
<path d="M6490 4195 c-25 -14 -49 -26 -55 -28 -5 -2 -8 -7 -5 -10 3 -4 28 5
55 18 28 13 56 25 63 25 6 0 12 5 12 10 0 15 -21 11 -70 -15z"/>
<path d="M4040 4175 c-41 -19 -79 -36 -85 -38 -5 -2 -6 -8 -2 -13 4 -5 11 -4
15 1 4 6 14 11 22 13 8 2 31 10 50 20 40 19 35 17 78 27 18 4 35 12 38 16 11
19 -45 6 -116 -26z"/>
<path d="M4285 4190 c-8 -13 15 -13 35 0 12 8 11 10 -7 10 -12 0 -25 -4 -28
-10z"/>
<path d="M7505 4190 c-3 -5 1 -10 10 -10 9 0 13 5 10 10 -3 6 -8 10 -10 10 -2
0 -7 -4 -10 -10z"/>
<path d="M4210 4174 c-25 -7 -61 -16 -80 -19 -36 -6 -78 -30 -68 -40 3 -3 22
2 43 11 22 9 48 18 59 20 51 9 106 27 106 35 0 11 -4 11 -60 -7z"/>
<path d="M4395 4171 c-6 -5 -75 -25 -154 -46 -133 -34 -221 -69 -221 -87 0
-12 10 -9 46 13 18 11 75 32 126 46 51 14 113 31 138 38 68 19 120 43 95 44
-12 1 -25 -3 -30 -8z"/>
<path d="M6537 4148 c-80 -44 -64 -46 19 -3 38 19 62 35 54 34 -8 0 -41 -14
-73 -31z"/>
<path d="M7076 4164 c-11 -7 -16 -17 -13 -21 4 -4 15 1 24 10 22 21 14 30 -11
11z"/>
<path d="M6395 4147 c-11 -7 -23 -16 -26 -20 -3 -5 -10 -9 -15 -9 -21 -2 -64
-21 -64 -29 0 -5 -3 -8 -8 -6 -11 3 -162 -75 -162 -85 0 -9 41 11 51 25 3 5 8
8 10 8 13 -2 49 13 49 20 0 5 3 8 8 7 12 -4 182 83 182 93 0 11 0 11 -25 -4z"/>
<path d="M7150 4145 c-16 -19 -1 -19 24 0 16 12 17 15 4 15 -8 0 -21 -7 -28
-15z"/>
<path d="M7036 4142 c-6 -10 -329 -172 -344 -172 -5 0 -15 -6 -21 -13 -6 -8
-29 -20 -51 -27 -22 -7 -40 -16 -40 -21 0 -4 -12 -10 -27 -14 -16 -3 -36 -14
-45 -22 -10 -9 -18 -13 -18 -9 0 4 -13 -1 -30 -11 -16 -9 -30 -20 -30 -24 0
-8 83 32 91 44 3 5 10 8 15 8 10 -1 49 17 304 142 177 87 219 112 207 123 -3
3 -8 1 -11 -4z"/>
<path d="M3913 4123 c-7 -2 -13 -9 -13 -15 0 -7 5 -7 13 1 8 6 17 8 20 4 4 -3
7 -1 7 5 0 13 -7 14 -27 5z"/>
<path d="M7101 4114 c-21 -15 -375 -197 -548 -283 -70 -34 -95 -55 -53 -44 11
3 20 9 20 14 0 5 5 9 10 9 6 0 28 8 48 18 20 11 73 37 117 59 44 22 112 55
150 74 57 28 269 143 284 156 2 2 2 5 0 8 -3 2 -15 -3 -28 -11z"/>
<path d="M2767 4103 c12 -33 16 -36 30 -18 19 27 16 35 -12 35 -19 0 -23 -4
-18 -17z"/>
<path d="M4005 4099 c-35 -16 -37 -19 -14 -19 25 0 69 24 59 33 -3 2 -23 -4
-45 -14z"/>
<path d="M3610 4100 c0 -5 5 -10 10 -10 6 0 10 5 10 10 0 6 -4 10 -10 10 -5 0
-10 -4 -10 -10z"/>
<path d="M3585 4090 c-3 -5 -1 -10 4 -10 6 0 11 5 11 10 0 6 -2 10 -4 10 -3 0
-8 -4 -11 -10z"/>
<path d="M4315 4094 c-11 -3 -38 -9 -60 -15 -22 -6 -47 -11 -55 -13 -41 -8
-140 -56 -140 -68 0 -4 15 1 33 11 17 11 64 27 102 36 81 19 165 46 165 51 0
5 -16 4 -45 -2z"/>
<path d="M2413 4065 c-10 -14 -30 -40 -45 -58 -15 -17 -25 -33 -23 -36 10 -9
75 46 81 69 17 58 14 63 -13 25z"/>
<path d="M6405 4080 c-3 -5 -1 -10 4 -10 6 0 11 5 11 10 0 6 -2 10 -4 10 -3 0
-8 -4 -11 -10z"/>
<path d="M6530 4080 c0 -5 5 -10 10 -10 6 0 10 5 10 10 0 6 -4 10 -10 10 -5 0
-10 -4 -10 -10z"/>
<path d="M3555 4070 c3 -5 8 -10 11 -10 2 0 4 5 4 10 0 6 -5 10 -11 10 -5 0
-7 -4 -4 -10z"/>
<path d="M6457 4048 c-32 -17 -55 -33 -53 -36 7 -7 116 49 116 60 0 4 -1 7 -2
7 -2 -1 -29 -15 -61 -31z"/>
<path d="M3520 4060 c0 -5 5 -10 10 -10 6 0 10 5 10 10 0 6 -4 10 -10 10 -5 0
-10 -4 -10 -10z"/>
<path d="M3893 4055 c-18 -8 -33 -18 -33 -24 0 -5 18 0 40 10 60 29 53 41 -7
14z"/>
<path d="M6360 4060 c-8 -5 -12 -11 -10 -14 3 -2 14 2 24 10 22 15 10 19 -14
4z"/>
<path d="M7110 4060 c0 -5 -5 -10 -11 -10 -6 0 -22 -9 -36 -20 -34 -26 -20
-26 23 1 29 18 45 39 29 39 -3 0 -5 -4 -5 -10z"/>
<path d="M2638 4049 c-15 -8 -124 -21 -185 -21 -24 0 -27 -6 -15 -25 5 -8 35
-5 112 14 58 13 109 29 115 34 12 12 -5 11 -27 -2z"/>
<path d="M3460 4040 c0 -5 5 -10 11 -10 5 0 7 5 4 10 -3 6 -8 10 -11 10 -2 0
-4 -4 -4 -10z"/>
<path d="M6570 4035 c-16 -19 0 -19 26 0 16 12 16 14 3 15 -9 0 -22 -7 -29
-15z"/>
<path d="M6695 4030 c-22 -11 -44 -20 -51 -20 -6 0 -17 -7 -24 -15 -7 -8 -10
-15 -7 -15 9 0 137 62 137 66 0 8 -17 3 -55 -16z"/>
<path d="M3980 4030 c-14 -4 -62 -26 -107 -49 -45 -23 -86 -41 -92 -41 -6 0
-11 -5 -11 -11 0 -6 3 -9 8 -7 69 33 128 61 132 62 3 1 14 7 25 12 11 6 32 14
48 18 15 3 27 11 27 16 0 6 -1 10 -2 9 -2 0 -14 -4 -28 -9z"/>
<path d="M4255 4031 c-11 -5 -23 -7 -27 -5 -4 3 -9 0 -13 -6 -3 -5 -15 -10
-25 -10 -18 0 -89 -36 -100 -51 -10 -12 -49 -29 -69 -29 -21 0 -84 -30 -89
-42 -2 -5 -9 -8 -15 -8 -6 0 -74 -31 -152 -69 -132 -65 -221 -107 -342 -162
-29 -13 -53 -28 -53 -32 0 -5 3 -6 8 -4 12 6 144 68 197 92 28 12 84 39 126
59 41 20 82 36 89 36 7 0 21 6 29 14 9 7 59 32 111 55 130 58 150 67 190 90
19 11 54 25 77 31 22 6 52 19 65 30 25 21 24 23 -7 11z"/>
<path d="M3435 4020 c-3 -5 -1 -10 4 -10 6 0 11 5 11 10 0 6 -2 10 -4 10 -3 0
-8 -4 -11 -10z"/>
<path d="M3793 4007 c-24 -12 -43 -26 -43 -30 0 -5 3 -7 8 -5 4 2 26 13 49 24
24 10 43 22 43 27 0 10 -10 8 -57 -16z"/>
<path d="M6263 4013 c-18 -9 -33 -20 -33 -25 0 -8 36 8 70 31 23 16 -1 12 -37
-6z"/>
<path d="M7131 4013 c-7 -8 -11 -16 -8 -19 2 -2 10 2 17 11 17 20 9 27 -9 8z"/>
<path d="M3405 4010 c-3 -5 -1 -10 4 -10 6 0 11 5 11 10 0 6 -2 10 -4 10 -3 0
-8 -4 -11 -10z"/>
<path d="M3680 4010 c-8 -5 -10 -10 -5 -10 6 0 17 5 25 10 8 5 11 10 5 10 -5
0 -17 -5 -25 -10z"/>
<path d="M6507 4004 c-16 -9 -27 -18 -24 -21 6 -5 67 24 67 32 0 8 -14 5 -43
-11z"/>
<path d="M6356 3995 c-8 -9 -18 -15 -21 -15 -12 2 -155 -74 -155 -82 0 -4 5
-8 10 -8 6 0 10 5 10 10 0 6 7 10 15 10 8 0 15 5 15 12 0 6 3 8 7 5 3 -4 12
-2 20 4 7 6 13 8 13 5 0 -4 12 1 28 12 15 10 42 24 60 31 17 8 32 17 32 22 0
14 -17 11 -34 -6z"/>
<path d="M7015 4000 c-3 -5 -14 -10 -23 -10 -10 0 -25 -9 -35 -20 -9 -11 -13
-20 -8 -20 5 0 14 6 20 14 7 8 23 17 36 20 14 4 25 11 25 16 0 13 -7 13 -15 0z"/>
<path d="M3370 3989 c0 -5 5 -7 10 -4 6 3 10 8 10 11 0 2 -4 4 -10 4 -5 0 -10
-5 -10 -11z"/>
<path d="M7068 3974 c-50 -32 -49 -41 2 -13 22 13 40 26 40 31 0 10 1 11 -42
-18z"/>
<path d="M4015 3980 c-8 -13 5 -13 25 0 13 8 13 10 -2 10 -9 0 -20 -4 -23 -10z"/>
<path d="M6190 3975 c-14 -16 -10 -18 14 -9 9 3 16 10 16 15 0 14 -16 11 -30
-6z"/>
<path d="M7825 3955 c4 -22 9 -53 12 -69 8 -47 23 -80 33 -70 5 5 -4 45 -21
94 -18 51 -28 69 -24 45z"/>
<path d="M3970 3967 c-22 -9 -23 -11 -6 -14 10 -3 23 0 29 6 16 16 5 20 -23 8z"/>
<path d="M6440 3973 c-21 -8 -65 -43 -54 -43 5 0 27 11 49 25 37 23 40 31 5
18z"/>
<path d="M6518 3947 c-62 -28 -85 -47 -58 -47 6 0 10 5 10 10 0 6 3 9 8 8 8
-1 63 24 102 47 43 25 8 15 -62 -18z"/>
<path d="M3700 3960 c-24 -15 -7 -18 20 -3 14 7 18 13 10 13 -8 0 -22 -4 -30
-10z"/>
<path d="M6150 3949 c0 -5 5 -7 10 -4 6 3 10 8 10 11 0 2 -4 4 -10 4 -5 0 -10
-5 -10 -11z"/>
<path d="M6915 3950 c-3 -5 -13 -10 -21 -10 -8 0 -31 -10 -52 -23 -20 -13 -57
-31 -82 -42 -25 -11 -62 -30 -83 -42 -21 -13 -74 -42 -118 -65 -44 -22 -78
-43 -75 -45 5 -5 208 98 217 110 3 5 9 8 13 8 8 -2 159 72 166 80 3 4 15 9 28
13 12 4 22 12 22 17 0 12 -7 12 -15 -1z"/>
<path d="M3660 3939 c0 -5 5 -7 10 -4 6 3 10 8 10 11 0 2 -4 4 -10 4 -5 0 -10
-5 -10 -11z"/>
<path d="M3890 3930 c-19 -11 -74 -38 -122 -61 -49 -22 -88 -45 -88 -49 0 -5
30 6 68 24 37 19 95 46 129 62 34 16 62 32 62 37 1 11 -11 8 -49 -13z"/>
<path d="M6120 3940 c0 -5 5 -10 10 -10 6 0 10 5 10 10 0 6 -4 10 -10 10 -5 0
-10 -4 -10 -10z"/>
<path d="M4105 3915 c-16 -13 -40 -24 -52 -25 -12 0 -25 -5 -29 -11 -3 -6 -15
-9 -25 -6 -10 3 -22 1 -25 -4 -3 -5 -27 -19 -52 -30 -68 -30 -106 -50 -117
-63 -6 -6 -16 -12 -23 -14 -7 -1 -31 -13 -52 -27 -22 -14 -43 -25 -47 -25 -23
0 -163 -77 -163 -90 0 -10 3 -11 8 -4 4 7 39 26 77 44 69 31 165 79 255 125
70 36 116 55 134 55 9 0 16 4 16 9 0 5 15 12 33 15 17 4 50 22 71 41 45 40 37
48 -9 10z"/>
<path d="M4488 3864 c-33 -41 -64 -74 -67 -74 -4 0 -22 -14 -41 -31 -33 -28
-23 -31 10 -3 8 7 29 14 45 16 17 1 30 9 30 16 0 7 14 21 30 32 27 18 31 18
42 4 9 -13 30 -15 120 -12 103 4 298 39 317 58 12 12 -87 10 -101 -2 -9 -7
-13 -7 -13 0 0 5 -9 8 -20 5 -11 -3 -20 -8 -20 -12 0 -4 -19 -6 -42 -6 -24 0
-47 -2 -53 -4 -27 -14 -124 -20 -131 -9 -3 5 -13 6 -22 4 -10 -3 -24 -1 -32 4
-13 8 -12 12 5 29 19 19 60 28 130 30 30 1 64 16 55 24 -3 3 -30 1 -60 -3 -30
-4 -69 -4 -88 1 -32 7 -35 5 -94 -67z"/>
<path d="M7090 3930 c-8 -5 -12 -11 -9 -14 3 -3 14 1 25 9 21 16 8 20 -16 5z"/>
<path d="M3712 3904 c-23 -12 -45 -23 -47 -23 -3 -1 -21 -8 -41 -16 -20 -8
-40 -15 -45 -15 -5 0 -9 -4 -9 -10 0 -14 12 -13 35 3 11 8 43 22 71 32 51 18
91 42 83 49 -2 2 -23 -7 -47 -20z"/>
<path d="M5003 3913 c9 -11 14 -23 10 -26 -11 -12 14 -7 43 8 27 14 21 24 -16
23 -8 0 -24 3 -35 8 -19 7 -19 7 -2 -13z"/>
<path d="M6297 3898 c-32 -17 -56 -32 -54 -34 6 -6 126 50 127 59 0 11 -10 7
-73 -25z"/>
<path d="M6964 3915 c-10 -8 -14 -14 -9 -15 15 0 40 18 34 24 -3 3 -14 -1 -25
-9z"/>
<path d="M6065 3910 c-3 -5 -1 -10 4 -10 6 0 11 5 11 10 0 6 -2 10 -4 10 -3 0
-8 -4 -11 -10z"/>
<path d="M4198 3882 c-3 -11 -1 -27 4 -36 9 -16 11 -16 29 0 20 18 26 44 10
44 -5 0 -16 3 -24 6 -9 3 -16 -2 -19 -14z"/>
<path d="M5788 3893 c7 -3 16 -2 19 1 4 3 -2 6 -13 5 -11 0 -14 -3 -6 -6z"/>
<path d="M6014 3885 c-10 -8 -14 -15 -8 -15 5 0 19 7 30 15 10 8 14 15 8 15
-5 0 -19 -7 -30 -15z"/>
<path d="M6155 3890 c3 -5 8 -10 11 -10 2 0 4 5 4 10 0 6 -5 10 -11 10 -5 0
-7 -4 -4 -10z"/>
<path d="M6403 3888 c-13 -6 -23 -15 -23 -20 0 -7 31 8 59 29 10 7 -16 1 -36
-9z"/>
<path d="M6890 3882 c-19 -9 -37 -19 -40 -22 -3 -3 -36 -21 -75 -40 -38 -19
-72 -37 -75 -41 -3 -3 -22 -12 -42 -20 -21 -7 -38 -16 -38 -20 0 -4 -11 -10
-25 -13 -24 -6 -36 -26 -15 -26 6 0 10 5 10 10 0 5 3 9 8 8 7 -3 182 81 192
92 3 3 37 21 77 40 39 19 72 38 72 43 1 10 -9 8 -49 -11z"/>
<path d="M7015 3880 c-3 -5 -1 -10 4 -10 6 0 11 5 11 10 0 6 -2 10 -4 10 -3 0
-8 -4 -11 -10z"/>
<path d="M6108 3873 c-10 -2 -18 -9 -18 -14 0 -12 3 -12 36 6 28 14 19 18 -18
8z"/>
<path d="M6348 3863 c-1 -5 -20 -17 -41 -27 -20 -11 -35 -21 -33 -23 6 -6 96
40 96 49 0 10 -17 11 -22 1z"/>
<path d="M5950 3850 c-9 -6 -10 -10 -3 -10 6 0 15 5 18 10 8 12 4 12 -15 0z"/>
<path d="M6208 3853 c-10 -2 -18 -9 -18 -14 0 -6 8 -5 20 1 11 6 20 13 20 15
0 3 -1 4 -2 4 -2 -1 -11 -3 -20 -6z"/>
<path d="M6928 3839 c-39 -20 -48 -29 -25 -25 16 3 77 35 77 41 0 9 -14 4 -52
-16z"/>
<path d="M2122 3838 c-6 -6 -32 -11 -57 -12 -46 -1 -59 -10 -27 -20 23 -8 78
8 98 28 8 9 12 16 7 16 -5 0 -14 -5 -21 -12z"/>
<path d="M7036 3834 c-11 -8 -16 -14 -10 -14 13 0 39 18 34 24 -3 2 -14 -2
-24 -10z"/>
<path d="M3995 3826 c-17 -7 -55 -24 -85 -37 -30 -13 -68 -34 -83 -46 -16 -13
-32 -23 -37 -23 -5 0 -15 -7 -24 -15 -13 -14 -83 -50 -265 -139 -30 -14 -61
-26 -68 -26 -7 0 -13 -4 -13 -10 0 -5 -5 -10 -11 -10 -16 0 -149 -64 -149 -72
0 -9 25 0 117 42 37 17 77 35 88 39 11 4 45 20 75 34 30 15 60 27 67 27 6 0
13 7 17 15 3 8 9 14 13 13 12 -4 93 35 93 44 0 4 4 8 9 8 6 0 30 14 54 30 25
17 50 30 57 30 6 0 9 4 6 9 -3 5 9 15 27 22 40 15 68 19 61 7 -3 -4 -10 -6
-15 -3 -5 4 -9 2 -9 -3 0 -5 -17 -18 -37 -27 -35 -17 -47 -25 -78 -52 -7 -7
-18 -13 -24 -13 -5 0 -14 -7 -19 -16 -5 -9 -12 -15 -16 -15 -13 3 -66 -30 -62
-38 3 -4 0 -8 -7 -8 -10 0 -172 -76 -217 -102 -8 -4 -53 -27 -100 -50 -47 -23
-74 -39 -60 -36 57 13 100 29 100 37 0 4 7 8 15 8 16 0 93 38 100 50 3 5 15 6
27 2 14 -3 19 -1 14 6 -4 6 4 12 21 14 16 2 27 8 25 16 -1 6 1 11 5 10 12 -3
104 34 98 40 -2 3 22 21 55 41 32 20 73 46 89 59 17 13 31 20 30 15 0 -9 -97
-88 -142 -116 -50 -31 -222 -117 -235 -117 -7 0 -12 -4 -12 -9 0 -6 11 -6 28
-1 76 23 160 53 189 66 17 8 34 14 38 14 4 0 20 9 36 20 18 14 26 27 23 38 -5
14 -4 15 5 2 5 -8 11 -12 13 -10 2 3 21 32 43 65 42 64 104 130 145 157 33 21
23 30 -15 14z m-235 -260 c0 -2 -7 -7 -16 -10 -8 -3 -12 -2 -9 4 6 10 25 14
25 6z"/>
<path d="M6028 3832 c-10 -2 -18 -8 -18 -13 0 -11 11 -11 30 1 18 11 11 18
-12 12z"/>
<path d="M3400 3819 c0 -5 5 -7 10 -4 6 3 10 8 10 11 0 2 -4 4 -10 4 -5 0 -10
-5 -10 -11z"/>
<path d="M5890 3819 c0 -5 5 -7 10 -4 6 3 10 8 10 11 0 2 -4 4 -10 4 -5 0 -10
-5 -10 -11z"/>
<path d="M6383 3814 c-44 -22 -42 -36 2 -16 19 9 35 20 35 24 0 10 1 10 -37
-8z"/>
<path d="M3635 3806 c-11 -7 -37 -19 -57 -25 -21 -7 -38 -17 -38 -22 0 -13 2
-12 58 16 28 14 55 25 61 25 6 0 11 5 11 10 0 14 -12 13 -35 -4z"/>
<path d="M5848 3806 c-26 -19 -22 -26 7 -13 14 7 25 15 25 20 0 11 -13 8 -32
-7z"/>
<path d="M6983 3813 c-21 -8 -15 -22 7 -16 11 3 20 9 20 14 0 10 -8 10 -27 2z"/>
<path d="M5985 3800 c3 -5 8 -10 11 -10 2 0 4 5 4 10 0 6 -5 10 -11 10 -5 0
-7 -4 -4 -10z"/>
<path d="M6230 3800 c-8 -5 -12 -11 -9 -14 3 -3 14 1 25 9 21 16 8 20 -16 5z"/>
<path d="M6853 3803 c-21 -8 -15 -22 7 -16 11 3 20 9 20 14 0 10 -8 10 -27 2z"/>
<path d="M3455 3785 c-25 -12 -26 -14 -5 -9 28 7 60 23 45 23 -5 0 -23 -6 -40
-14z"/>
<path d="M5955 3790 c-3 -5 -1 -10 4 -10 6 0 11 5 11 10 0 6 -2 10 -4 10 -3 0
-8 -4 -11 -10z"/>
<path d="M3315 3780 c-3 -5 -1 -10 4 -10 6 0 11 5 11 10 0 6 -2 10 -4 10 -3 0
-8 -4 -11 -10z"/>
<path d="M6070 3779 c0 -5 5 -7 10 -4 6 3 10 8 10 11 0 2 -4 4 -10 4 -5 0 -10
-5 -10 -11z"/>
<path d="M6195 3780 c-3 -5 -1 -10 4 -10 6 0 11 5 11 10 0 6 -2 10 -4 10 -3 0
-8 -4 -11 -10z"/>
<path d="M6276 3758 c-32 -16 -56 -31 -53 -34 3 -3 16 0 29 7 12 7 25 14 28
14 18 4 60 30 60 37 0 4 -1 7 -2 7 -2 -1 -29 -15 -62 -31z"/>
<path d="M6898 3762 c-67 -38 -60 -47 7 -10 51 27 66 39 48 37 -5 0 -29 -12
-55 -27z"/>
<path d="M5800 3769 c0 -5 5 -7 10 -4 6 3 10 8 10 11 0 2 -4 4 -10 4 -5 0 -10
-5 -10 -11z"/>
<path d="M6778 3759 c-21 -11 -38 -24 -38 -29 0 -8 67 27 89 46 12 11 -19 1
-51 -17z"/>
<path d="M5770 3760 c0 -5 5 -10 11 -10 5 0 7 5 4 10 -3 6 -8 10 -11 10 -2 0
-4 -4 -4 -10z"/>
<path d="M6160 3759 c0 -5 5 -7 10 -4 6 3 10 8 10 11 0 2 -4 4 -10 4 -5 0 -10
-5 -10 -11z"/>
<path d="M6403 3756 c-23 -11 -31 -26 -14 -26 5 0 16 6 23 13 7 8 20 16 28 20
13 5 13 5 0 5 -8 0 -25 -5 -37 -12z"/>
<path d="M6983 3752 c-18 -9 -33 -19 -33 -24 0 -4 16 0 35 9 19 9 35 20 35 25
0 4 -1 7 -2 7 -2 -1 -18 -9 -35 -17z"/>
<path d="M3515 3750 c-3 -5 -1 -10 4 -10 6 0 11 5 11 10 0 6 -2 10 -4 10 -3 0
-8 -4 -11 -10z"/>
<path d="M6135 3750 c-3 -5 -1 -10 4 -10 6 0 11 5 11 10 0 6 -2 10 -4 10 -3 0
-8 -4 -11 -10z"/>
<path d="M5400 3740 c-8 -5 -10 -10 -5 -10 6 0 17 5 25 10 8 5 11 10 5 10 -5
0 -17 -5 -25 -10z"/>
<path d="M3465 3730 c-18 -8 -17 -9 8 -9 15 -1 27 4 27 9 0 12 -8 12 -35 0z"/>
<path d="M5710 3730 c0 -5 5 -10 10 -10 6 0 10 5 10 10 0 6 -4 10 -10 10 -5 0
-10 -4 -10 -10z"/>
<path d="M5965 3730 c-3 -5 -1 -10 4 -10 6 0 11 5 11 10 0 6 -2 10 -4 10 -3 0
-8 -4 -11 -10z"/>
<path d="M6090 3730 c-8 -5 -12 -11 -10 -14 3 -2 14 2 24 10 22 15 10 19 -14
4z"/>
<path d="M6346 3724 c-11 -8 -16 -14 -10 -14 13 0 39 18 34 24 -3 2 -14 -2
-24 -10z"/>
<path d="M3315 3720 c-3 -5 -1 -10 4 -10 6 0 11 5 11 10 0 6 -2 10 -4 10 -3 0
-8 -4 -11 -10z"/>
<path d="M5330 3715 c-19 -7 -28 -14 -20 -14 8 0 29 6 45 14 39 17 21 18 -25
0z"/>
<path d="M5937 3723 c-4 -3 -7 -11 -7 -17 0 -6 5 -5 12 2 6 6 9 14 7 17 -3 3
-9 2 -12 -2z"/>
<path d="M6820 3719 c0 -5 5 -7 10 -4 6 3 10 8 10 11 0 2 -4 4 -10 4 -5 0 -10
-5 -10 -11z"/>
<path d="M5675 3710 c4 -6 11 -8 16 -5 14 9 11 15 -7 15 -8 0 -12 -5 -9 -10z"/>
<path d="M6055 3710 c-3 -5 -1 -10 4 -10 6 0 11 5 11 10 0 6 -2 10 -4 10 -3 0
-8 -4 -11 -10z"/>
<path d="M6910 3710 c-8 -5 -10 -10 -5 -10 6 0 17 5 25 10 8 5 11 10 5 10 -5
0 -17 -5 -25 -10z"/>
<path d="M3398 3698 c-16 -5 -28 -13 -28 -18 0 -7 54 14 69 27 8 6 -13 2 -41
-9z"/>
<path d="M5905 3700 c-3 -5 -1 -10 4 -10 6 0 11 5 11 10 0 6 -2 10 -4 10 -3 0
-8 -4 -11 -10z"/>
<path d="M6156 3694 c-11 -8 -16 -14 -10 -14 13 0 39 18 34 24 -3 2 -14 -2
-24 -10z"/>
<path d="M5648 3693 c7 -3 16 -2 19 1 4 3 -2 6 -13 5 -11 0 -14 -3 -6 -6z"/>
<path d="M6010 3690 c-8 -5 -10 -10 -5 -10 6 0 17 5 25 10 8 5 11 10 5 10 -5
0 -17 -5 -25 -10z"/>
<path d="M5615 3680 c-3 -5 -1 -10 4 -10 6 0 11 5 11 10 0 6 -2 10 -4 10 -3 0
-8 -4 -11 -10z"/>
<path d="M5870 3679 c0 -5 5 -7 10 -4 6 3 10 8 10 11 0 2 -4 4 -10 4 -5 0 -10
-5 -10 -11z"/>
<path d="M2955 3670 c-3 -5 -1 -10 4 -10 6 0 11 5 11 10 0 6 -2 10 -4 10 -3 0
-8 -4 -11 -10z"/>
<path d="M3080 3669 c0 -5 5 -7 10 -4 6 3 10 8 10 11 0 2 -4 4 -10 4 -5 0 -10
-5 -10 -11z"/>
<path d="M3340 3670 c0 -5 5 -10 10 -10 6 0 10 5 10 10 0 6 -4 10 -10 10 -5 0
-10 -4 -10 -10z"/>
<path d="M4080 3671 c0 -13 29 -20 94 -25 28 -2 42 0 35 5 -10 6 -7 11 11 19
l25 11 -25 -7 c-54 -14 -99 -15 -119 -5 -13 8 -21 8 -21 2z"/>
<path d="M2835 3660 c-3 -5 -1 -10 4 -10 6 0 11 5 11 10 0 6 -2 10 -4 10 -3 0
-8 -4 -11 -10z"/>
<path d="M3315 3660 c-3 -5 -1 -10 4 -10 6 0 11 5 11 10 0 6 -2 10 -4 10 -3 0
-8 -4 -11 -10z"/>
<path d="M5820 3660 c0 -5 5 -10 11 -10 5 0 7 5 4 10 -3 6 -8 10 -11 10 -2 0
-4 -4 -4 -10z"/>
<path d="M6085 3661 c-3 -6 -11 -9 -16 -6 -5 4 -9 1 -9 -4 0 -13 10 -14 30 -1
8 5 12 12 8 15 -3 4 -9 1 -13 -4z"/>
<path d="M6200 3649 c0 -5 5 -7 10 -4 6 3 10 8 10 11 0 2 -4 4 -10 4 -5 0 -10
-5 -10 -11z"/>
<path d="M3020 3639 c0 -5 5 -7 10 -4 6 3 10 8 10 11 0 2 -4 4 -10 4 -5 0 -10
-5 -10 -11z"/>
<path d="M5790 3639 c0 -5 5 -7 10 -4 6 3 10 8 10 11 0 2 -4 4 -10 4 -5 0 -10
-5 -10 -11z"/>
<path d="M5915 3640 c-3 -5 -1 -10 4 -10 6 0 11 5 11 10 0 6 -2 10 -4 10 -3 0
-8 -4 -11 -10z"/>
<path d="M3255 3630 c-3 -5 -1 -10 4 -10 6 0 11 5 11 10 0 6 -2 10 -4 10 -3 0
-8 -4 -11 -10z"/>
<path d="M5528 3633 c7 -3 16 -2 19 1 4 3 -2 6 -13 5 -11 0 -14 -3 -6 -6z"/>
<path d="M5755 3630 c-3 -5 1 -10 10 -10 9 0 13 5 10 10 -3 6 -8 10 -10 10 -2
0 -7 -4 -10 -10z"/>
<path d="M3225 3620 c-3 -5 -1 -10 4 -10 6 0 11 5 11 10 0 6 -2 10 -4 10 -3 0
-8 -4 -11 -10z"/>
<path d="M3473 3614 c-36 -15 -45 -35 -13 -27 11 3 20 9 20 14 0 5 7 9 15 9 8
0 15 5 15 10 0 6 -1 10 -2 9 -2 0 -18 -7 -35 -15z"/>
<path d="M5485 3620 c-3 -5 1 -10 9 -10 9 0 16 5 16 10 0 6 -4 10 -9 10 -6 0
-13 -4 -16 -10z"/>
<path d="M6000 3620 c0 -5 5 -10 10 -10 6 0 10 5 10 10 0 6 -4 10 -10 10 -5 0
-10 -4 -10 -10z"/>
<path d="M3345 3610 c-3 -5 -1 -10 4 -10 6 0 11 5 11 10 0 6 -2 10 -4 10 -3 0
-8 -4 -11 -10z"/>
<path d="M5860 3609 c0 -5 5 -7 10 -4 6 3 10 8 10 11 0 2 -4 4 -10 4 -5 0 -10
-5 -10 -11z"/>
<path d="M6120 3609 c0 -5 5 -7 10 -4 6 3 10 8 10 11 0 2 -4 4 -10 4 -5 0 -10
-5 -10 -11z"/>
<path d="M3298 3593 c-10 -2 -18 -8 -18 -13 0 -10 38 -1 46 11 5 9 1 10 -28 2z"/>
<path d="M3145 3580 c-3 -5 -1 -10 4 -10 6 0 11 5 11 10 0 6 -2 10 -4 10 -3 0
-8 -4 -11 -10z"/>
<path d="M3240 3563 c-14 -7 -18 -13 -10 -13 17 0 47 17 40 23 -3 2 -16 -2
-30 -10z"/>
<path d="M3385 3570 c-3 -5 -1 -10 4 -10 6 0 11 5 11 10 0 6 -2 10 -4 10 -3 0
-8 -4 -11 -10z"/>
<path d="M5895 3570 c-3 -5 -1 -10 4 -10 6 0 11 5 11 10 0 6 -2 10 -4 10 -3 0
-8 -4 -11 -10z"/>
<path d="M6920 3550 c-19 -11 -29 -19 -22 -20 14 0 72 28 72 35 0 9 -15 4 -50
-15z"/>
<path d="M5340 3549 c0 -5 5 -7 10 -4 6 3 10 8 10 11 0 2 -4 4 -10 4 -5 0 -10
-5 -10 -11z"/>
<path d="M5575 3540 c-3 -5 -1 -10 4 -10 6 0 11 5 11 10 0 6 -2 10 -4 10 -3 0
-8 -4 -11 -10z"/>
<path d="M5830 3540 c0 -5 5 -10 10 -10 6 0 10 5 10 10 0 6 -4 10 -10 10 -5 0
-10 -4 -10 -10z"/>
<path d="M3170 3529 c0 -5 5 -7 10 -4 6 3 10 8 10 11 0 2 -4 4 -10 4 -5 0 -10
-5 -10 -11z"/>
<path d="M3275 3520 c-3 -5 -1 -10 4 -10 6 0 11 5 11 10 0 6 -2 10 -4 10 -3 0
-8 -4 -11 -10z"/>
<path d="M7545 3520 c-3 -5 -1 -10 4 -10 6 0 11 5 11 10 0 6 -2 10 -4 10 -3 0
-8 -4 -11 -10z"/>
<path d="M5750 3499 c0 -5 5 -7 10 -4 6 3 10 8 10 11 0 2 -4 4 -10 4 -5 0 -10
-5 -10 -11z"/>
<path d="M3070 3480 c-8 -5 -10 -10 -5 -10 6 0 17 5 25 10 8 5 11 10 5 10 -5
0 -17 -5 -25 -10z"/>
<path d="M5045 3470 c-3 -5 -2 -10 4 -10 5 0 13 5 16 10 3 6 2 10 -4 10 -5 0
-13 -4 -16 -10z"/>
<path d="M5125 3460 c-3 -5 -1 -10 4 -10 6 0 11 5 11 10 0 6 -2 10 -4 10 -3 0
-8 -4 -11 -10z"/>
<path d="M5200 3450 c0 -5 5 -10 10 -10 6 0 10 5 10 10 0 6 -4 10 -10 10 -5 0
-10 -4 -10 -10z"/>
<path d="M5220 3399 c0 -5 5 -7 10 -4 6 3 10 8 10 11 0 2 -4 4 -10 4 -5 0 -10
-5 -10 -11z"/>
<path d="M7065 3403 c-11 -3 -26 -10 -32 -15 -19 -16 -16 -86 6 -127 53 -97
101 -231 116 -318 15 -89 -34 -161 -147 -219 -71 -36 -202 -77 -282 -89 l-49
-8 6 29 c3 16 -1 43 -8 59 l-13 30 4 -40 4 -40 -15 39 c-18 46 -31 62 -20 26
15 -56 14 -63 -5 -25 l-20 40 5 -35 5 -35 -14 30 -15 30 4 -40 5 -40 -15 35
-14 35 4 -40 5 -40 -14 35 c-13 32 -15 33 -16 10 -1 -23 -2 -23 -10 -5 -7 18
-8 16 -12 -10 l-5 -30 -2 28 c0 15 -5 27 -11 27 -5 0 -8 -12 -6 -27 2 -16 1
-20 -1 -10 -2 9 -9 17 -14 17 -6 0 -7 -10 -3 -22 6 -22 6 -22 -14 2 -23 27
-29 21 -12 -11 7 -13 7 -19 0 -19 -5 0 -10 6 -10 13 0 6 -5 4 -11 -5 -14 -25
-29 -22 -30 5 -1 21 -1 21 -9 -3 -8 -25 -8 -25 -10 5 -2 29 -2 29 -9 5 -5 -16
-13 -24 -24 -22 -9 2 -17 -2 -17 -9 0 -6 -7 -8 -16 -5 -9 4 -27 -1 -40 -9 -21
-14 -24 -14 -24 0 0 8 -5 15 -11 15 -6 0 -9 -7 -5 -15 3 -8 1 -15 -4 -15 -6 0
-10 8 -11 18 -1 11 -4 9 -9 -8 -6 -18 -8 -20 -9 -7 -1 10 -5 16 -11 12 -5 -3
-7 -13 -4 -23 4 -12 3 -13 -3 -4 -10 13 -43 6 -55 -12 -16 -24 -19 53 -6 148
16 108 52 197 158 383 35 62 39 75 30 99 -10 26 -11 27 -78 20 -161 -17 -357
-74 -656 -191 -90 -35 -176 -67 -190 -71 -32 -8 -38 -15 -25 -34 5 -8 9 -10 9
-4 0 7 9 14 19 17 15 4 21 -1 24 -22 3 -22 4 -21 6 9 3 33 4 33 11 10 8 -25 8
-25 10 5 1 26 3 27 10 10 8 -19 9 -18 9 4 1 13 4 22 7 18 4 -3 19 0 35 8 37
20 37 20 42 -17 4 -31 4 -31 6 7 3 36 4 37 11 15 8 -25 8 -25 10 5 2 30 2 30
10 5 8 -25 8 -25 10 5 1 26 3 27 10 10 8 -18 9 -18 10 5 1 23 2 23 10 5 8 -18
9 -18 9 -2 1 10 5 16 10 13 5 -4 11 -2 13 4 2 6 12 12 23 14 11 2 28 7 37 11
14 6 17 -1 20 -36 3 -46 24 -64 31 -27 4 22 4 22 6 2 0 -12 -7 -31 -16 -43
-24 -28 -43 -15 -54 35 -8 38 -8 38 -5 -9 4 -55 -3 -55 -15 0 -8 35 -8 34 -4
-10 3 -30 1 -46 -5 -42 -6 3 -10 -2 -11 -12 0 -10 -3 -13 -6 -6 -3 10 -8 10
-19 -1 -8 -8 -14 -17 -14 -19 0 -7 42 4 55 13 6 4 25 11 43 15 17 3 32 11 32
16 0 6 4 8 9 4 6 -3 48 8 95 24 47 17 86 27 86 24 0 -3 11 2 25 11 13 9 35 16
49 16 14 0 36 4 50 9 18 8 28 6 37 -5 11 -13 9 -28 -9 -82 -34 -102 -42 -149
-42 -247 0 -94 19 -194 46 -247 9 -17 15 -47 15 -67 -1 -20 -2 -43 -2 -52 0
-12 -6 -15 -22 -11 -20 5 -21 4 -8 -12 8 -9 20 -15 28 -12 20 8 5 -12 -19 -25
-12 -6 -18 -7 -14 -1 4 6 -14 11 -47 12 -110 4 -143 7 -159 14 -21 10 -38 0
-38 -21 0 -15 -2 -14 -18 0 -23 21 -62 22 -62 2 0 -19 -19 -20 -26 -1 -6 15
-54 10 -67 -8 -5 -7 -11 -5 -17 6 -13 22 -37 14 -68 -21 l-24 -26 6 26 6 27
-83 -2 c-45 0 -86 -5 -90 -11 -6 -6 -10 -6 -14 3 -2 6 -20 12 -39 12 -20 0
-33 -4 -30 -9 3 -5 -9 -11 -27 -13 -17 -3 -41 -9 -52 -13 -16 -7 -15 -4 5 15
l25 23 -35 -7 c-19 -4 -53 -9 -75 -11 -32 -4 -35 -3 -15 4 16 6 -26 8 -117 7
-85 -2 -143 1 -143 7 0 6 -33 8 -80 5 -62 -4 -80 -2 -80 9 0 10 -21 13 -82 14
-61 1 -76 3 -58 10 17 6 5 7 -41 4 -37 -2 -96 2 -135 11 -38 7 -85 14 -105 14
-20 0 -42 6 -48 14 -13 16 -75 25 -228 32 -88 5 -103 3 -103 -10 0 -10 -6 -13
-16 -9 -8 3 -13 11 -10 18 5 13 -34 32 -113 56 -24 7 -49 18 -55 24 -6 6 -40
11 -76 12 -66 0 -155 14 -167 26 -3 4 2 7 13 7 16 1 15 4 -9 25 -15 14 -40 28
-55 31 -47 10 -52 13 -61 37 -18 45 -111 43 -111 -2 0 -6 -4 -11 -10 -11 -5 0
-10 7 -10 15 0 16 -22 19 -108 15 -36 -1 -44 2 -49 19 -3 12 -10 21 -15 21 -6
0 -8 -9 -5 -20 5 -18 0 -20 -51 -20 -52 -1 -55 -2 -38 -15 11 -8 39 -15 63
-15 24 0 43 -4 43 -8 0 -10 -45 -32 -66 -32 -21 0 -108 45 -123 64 -8 9 -19
16 -26 16 -6 0 -17 10 -23 23 l-11 22 0 -22 c-1 -13 4 -23 9 -23 6 0 10 -11
10 -25 0 -22 -4 -25 -34 -25 -19 0 -38 -4 -41 -10 -3 -5 -22 -10 -41 -10 -20
0 -34 -5 -34 -12 0 -7 -3 -31 -7 -52 -4 -28 -3 -37 5 -32 7 4 20 2 29 -3 17
-10 17 -10 1 -11 -10 0 -18 -4 -18 -10 0 -13 -27 -13 -32 0 -6 18 -48 -2 -48
-23 0 -20 0 -20 -23 1 -26 25 -47 28 -47 8 0 -7 -14 -16 -31 -20 -46 -9 -71
-7 -64 4 4 6 10 8 15 5 14 -8 40 6 40 22 0 8 -6 13 -12 10 -7 -2 -12 -10 -10
-17 2 -9 -3 -10 -15 -4 -32 14 -113 17 -113 4 0 -6 -4 -8 -10 -5 -18 11 -10
22 23 32 29 9 27 9 -25 9 -51 0 -58 -3 -58 -21 -1 -19 -1 -19 -14 -2 -16 21
-32 22 -40 2 -6 -17 -36 -20 -36 -4 0 8 -12 9 -37 4 -33 -6 -35 -5 -24 9 8 9
22 16 32 16 11 0 19 5 19 10 0 6 -10 8 -24 4 -14 -3 -48 -1 -77 5 -41 9 -54 9
-60 -1 -9 -15 -45 14 -54 43 -8 25 -25 24 -25 -1 0 -26 -16 -26 -32 0 -9 14
-24 20 -50 20 -22 0 -38 5 -38 11 0 8 -17 10 -50 7 -35 -4 -53 -1 -61 8 -6 8
-22 14 -35 14 -13 0 -38 9 -56 20 -18 11 -41 20 -51 20 -9 0 -67 25 -128 55
-92 47 -116 55 -145 49 -30 -5 -34 -4 -34 15 0 14 -6 21 -20 21 -13 0 -20 7
-20 20 0 14 7 20 21 20 11 0 17 5 14 10 -3 6 -22 10 -41 10 -27 0 -34 4 -34
19 0 11 6 22 13 24 8 4 8 8 2 14 -5 4 -17 17 -25 27 -11 15 -12 18 -1 12 9 -6
12 -5 9 5 -4 13 -40 25 -105 36 -18 3 -33 9 -33 13 0 4 -15 11 -33 14 -18 3
-40 15 -49 25 -13 15 -35 20 -105 25 -48 3 -110 10 -138 15 -44 8 -53 7 -72
-12 -17 -15 -23 -32 -23 -64 0 -25 4 -52 9 -61 14 -27 24 -212 12 -212 -6 0
-11 21 -11 50 0 38 -4 50 -15 50 -16 0 -20 -12 -8 -24 4 -4 8 -20 9 -36 2 -44
12 -63 30 -56 12 5 14 1 9 -15 -9 -27 14 -72 32 -64 8 2 11 0 8 -5 -3 -6 -1
-10 5 -10 7 0 21 -11 32 -25 11 -14 27 -25 37 -25 9 0 25 -6 36 -14 31 -21
209 -65 439 -108 l70 -14 -45 -13 c-24 -7 -50 -15 -56 -17 -19 -5 -16 -71 3
-78 8 -3 99 -11 202 -18 151 -9 317 -8 867 6 671 17 681 16 770 -3 50 -11 146
-27 215 -37 100 -14 133 -23 168 -45 24 -15 39 -29 35 -32 -12 -7 -82 -20 -86
-16 -8 8 -37 -24 -37 -41 0 -19 19 -30 50 -30 10 0 20 -6 22 -12 6 -17 653
-17 978 0 129 7 388 19 575 27 697 31 882 49 1080 105 254 72 413 98 815 135
417 38 616 63 774 97 l99 22 68 69 c38 38 69 74 69 79 0 6 -8 4 -18 -5 -19
-18 -136 -45 -287 -68 -33 -5 -71 -11 -85 -13 -131 -20 -130 -20 -130 3 0 26
-5 26 -40 1 -62 -44 -176 -62 -250 -39 -19 5 -50 10 -67 11 -18 0 -30 4 -27 9
3 5 -2 9 -10 9 -9 0 -16 -3 -16 -7 0 -5 -13 -9 -29 -10 -23 -2 -28 2 -24 15 3
12 31 24 91 40 226 61 322 159 322 326 0 62 -28 172 -64 248 -28 61 -33 98
-13 98 25 0 176 -29 233 -45 32 -9 151 -47 265 -85 113 -38 225 -70 250 -72
40 -3 44 -1 43 20 0 12 -1 51 -2 85 l-2 64 -57 13 c-32 7 -139 41 -238 75
-207 72 -279 89 -460 110 -131 15 -183 17 -220 8z m-1125 -307 c0 -6 5 -4 10
4 8 12 10 10 10 -9 0 -14 7 -33 17 -43 19 -21 16 -26 -26 -38 -31 -8 -31 -8
-32 28 l-2 37 -7 -35 -7 -35 -3 35 c-3 34 -3 34 -10 -10 l-7 -45 -1 48 c-2 44
-4 47 -29 48 -25 1 -24 2 7 8 20 4 38 2 42 -4 5 -6 8 -4 8 6 0 17 30 22 30 5z
m-153 -48 c-3 -7 -5 -2 -5 12 0 14 2 19 5 13 2 -7 2 -19 0 -25z m40 1 c1 -22
1 -23 -4 -1 -2 12 -9 20 -14 17 -5 -4 -9 -1 -9 5 0 23 25 3 27 -21z m-60 -11
c-3 -7 -5 -2 -5 12 0 14 2 19 5 13 2 -7 2 -19 0 -25z m80 10 c-3 -8 -6 -5 -6
6 -1 11 2 17 5 13 3 -3 4 -12 1 -19z m20 -15 c-3 -10 -5 -4 -5 12 0 17 2 24 5
18 2 -7 2 -21 0 -30z m-110 -45 c-3 -7 -5 -2 -5 12 0 14 2 19 5 13 2 -7 2 -19
0 -25z m-4977 -175 c0 -21 -64 -50 -75 -33 -3 6 3 10 15 10 13 0 24 8 27 19 4
17 33 20 33 4z m-70 -83 c0 -5 -4 -10 -10 -10 -5 0 -10 5 -10 10 0 6 5 10 10
10 6 0 10 -4 10 -10z m765 -110 c3 -6 -1 -7 -9 -4 -18 7 -21 14 -7 14 6 0 13
-4 16 -10z m1900 -60 c18 -19 17 -20 -3 -20 -37 0 -54 11 -41 26 15 19 23 18
44 -6z m-1465 -60 c13 -9 13 -10 0 -10 -8 0 -22 5 -30 10 -13 9 -13 10 0 10 8
0 22 -5 30 -10z m775 -81 c11 -17 2 -18 -19 -3 -17 12 -17 14 -4 14 9 0 20 -5
23 -11z m85 -30 c0 -5 -4 -9 -10 -9 -5 0 -10 7 -10 16 0 8 5 12 10 9 6 -3 10
-10 10 -16z m180 -65 c0 -9 -28 -3 -46 11 -17 13 -16 14 14 4 17 -6 32 -13 32
-15z m1198 9 c-10 -2 -28 -2 -40 0 -13 2 -5 4 17 4 22 1 32 -1 23 -4z m109
-19 c-3 -3 -12 -4 -19 -1 -8 3 -5 6 6 6 11 1 17 -2 13 -5z m150 -26 c-3 -8 -6
-5 -6 6 -1 11 2 17 5 13 3 -3 4 -12 1 -19z m143 12 c0 -5 -4 -10 -10 -10 -5 0
-10 5 -10 10 0 6 5 10 10 10 6 0 10 -4 10 -10z m425 -60 c-11 -5 -29 -8 -40
-8 -16 0 -15 2 5 8 34 11 60 11 35 0z m112 -16 c-3 -3 -12 -4 -19 -1 -8 3 -5
6 6 6 11 1 17 -2 13 -5z m113 -4 c-8 -5 -19 -10 -25 -10 -5 0 -3 5 5 10 8 5
20 10 25 10 6 0 3 -5 -5 -10z m130 1 c-26 -15 -66 -24 -55 -13 6 5 19 12 30
15 32 8 41 7 25 -2z"/>
<path d="M6797 3314 c-12 -12 -8 -24 8 -24 18 0 20 -21 4 -37 -8 -8 -6 -11 6
-10 10 1 20 -4 22 -10 3 -8 -5 -13 -19 -14 -23 -1 -23 -1 2 -8 38 -12 41 -5
19 47 -23 53 -32 65 -42 56z"/>
<path d="M6740 3220 c-24 -8 -23 -8 8 -9 20 -1 31 3 27 9 -3 6 -7 10 -8 9 -1
-1 -13 -5 -27 -9z"/>
<path d="M6615 3203 l-30 -14 34 6 c18 3 42 5 52 5 11 0 19 3 19 8 0 12 -44
10 -75 -5z"/>
<path d="M6467 3165 c-47 -18 -147 -77 -147 -88 0 -4 19 4 43 18 49 30 123 65
140 65 7 0 19 5 27 10 23 15 -17 12 -63 -5z"/>
<path d="M5722 3000 c0 -14 2 -19 5 -12 2 6 2 18 0 25 -3 6 -5 1 -5 -13z"/>
<path d="M5662 2970 c0 -19 2 -27 5 -17 2 9 2 25 0 35 -3 9 -5 1 -5 -18z"/>
<path d="M5642 2955 c0 -16 2 -22 5 -12 2 9 2 23 0 30 -3 6 -5 -1 -5 -18z"/>
<path d="M5532 2945 c0 -16 2 -22 5 -12 2 9 2 23 0 30 -3 6 -5 -1 -5 -18z"/>
<path d="M5622 2945 c0 -16 2 -22 5 -12 2 9 2 23 0 30 -3 6 -5 -1 -5 -18z"/>
<path d="M5512 2935 c0 -16 2 -22 5 -12 2 9 2 23 0 30 -3 6 -5 -1 -5 -18z"/>
<path d="M5604 2921 c5 -48 -10 -44 -17 4 -3 24 -5 21 -7 -15 -2 -42 -3 -43
-10 -15 l-8 30 -1 -30 c-1 -23 -3 -27 -11 -15 -8 13 -10 12 -10 -3 0 -10 -4
-15 -10 -12 -5 3 -10 1 -10 -5 0 -6 -4 -8 -10 -5 -5 3 -10 2 -10 -3 0 -18 -39
-21 -43 -3 -3 10 -5 6 -6 -9 -1 -20 -3 -22 -11 -10 -8 13 -10 12 -10 -2 0 -10
2 -18 4 -18 5 0 179 61 183 65 2 1 -2 21 -7 46 l-9 44 3 -44z"/>
<path d="M5310 2920 c-25 -14 -109 -45 -247 -91 -72 -24 -130 -46 -128 -49 2
-3 -11 -5 -28 -6 -18 0 -72 -10 -122 -22 -142 -33 -285 -50 -490 -57 -104 -4
-214 -8 -242 -9 -29 -2 -53 0 -53 3 0 4 -18 7 -40 6 -23 -1 -40 4 -40 10 0 6
-15 10 -32 10 -18 -1 -37 1 -43 4 -5 3 -18 7 -28 8 -10 2 -25 9 -33 17 -7 8
-37 17 -66 21 -69 10 -84 13 -139 24 -92 20 -169 16 -169 -8 0 -7 86 -49 240
-118 19 -9 42 -19 51 -24 10 -4 22 -3 29 4 10 9 12 8 7 -4 -5 -14 -2 -15 23
-6 21 8 39 7 72 -3 23 -7 50 -13 60 -11 9 1 19 -2 22 -7 3 -5 17 -7 31 -5 13
3 22 9 20 13 -3 5 -1 11 4 15 14 8 91 9 126 1 81 -18 113 -20 280 -21 154 0
307 10 325 20 3 2 34 6 70 10 77 7 121 14 131 20 4 3 9 0 11 -7 9 -27 267 51
269 81 0 10 2 12 6 4 6 -15 43 -18 43 -3 0 5 -7 7 -15 4 -8 -4 -15 -2 -15 4 0
18 39 21 43 3 3 -9 6 13 7 49 l3 65 7 -50 7 -50 3 60 3 60 7 -58 c4 -32 10
-60 12 -62 3 -3 26 2 51 11 46 16 47 17 46 57 l-2 42 -7 -40 c-4 -22 -8 -36
-9 -32 0 5 -8 1 -17 -7 -24 -25 -34 -19 -35 22 0 20 -3 31 -6 25 -10 -26 -23
-12 -23 25 0 24 3 32 9 23 7 -11 10 -11 17 0 6 9 11 -4 15 -41 l6 -55 2 60 c2
47 5 54 11 35 8 -24 8 -23 9 8 1 33 -16 41 -49 22z m-3 -137 c-3 -10 -5 -4 -5
12 0 17 2 24 5 18 2 -7 2 -21 0 -30z m-67 6 c0 -6 -4 -7 -10 -4 -5 3 -10 11
-10 16 0 6 5 7 10 4 6 -3 10 -11 10 -16z m-245 1 c-3 -5 -12 -10 -18 -10 -7 0
-6 4 3 10 19 12 23 12 15 0z m-1115 -144 c0 -3 -4 -8 -10 -11 -5 -3 -10 -1
-10 4 0 6 5 11 10 11 6 0 10 -2 10 -4z"/>
<path d="M5492 2905 c0 -16 2 -22 5 -12 2 9 2 23 0 30 -3 6 -5 -1 -5 -18z"/>
<path d="M2470 2909 c-19 -4 -69 -13 -110 -19 -89 -12 -115 -30 -79 -53 61
-39 174 -59 228 -42 18 5 21 15 21 66 0 64 1 63 -60 48z"/>
<path d="M5403 2885 c0 -22 2 -30 4 -17 2 12 2 30 0 40 -3 9 -5 -1 -4 -23z"/>
<path d="M5472 2880 c0 -19 2 -27 5 -17 2 9 2 25 0 35 -3 9 -5 1 -5 -18z"/>
<path d="M5405 2810 c3 -5 8 -10 11 -10 2 0 4 5 4 10 0 6 -5 10 -11 10 -5 0
-7 -4 -4 -10z"/>
<path d="M2551 2784 c0 -11 3 -14 6 -6 3 7 2 16 -1 19 -3 4 -6 -2 -5 -13z"/>
<path d="M6705 2747 c16 -59 15 -71 -5 -32 -12 25 -18 30 -14 15 11 -50 16
-60 25 -60 18 0 20 27 4 61 -8 19 -13 26 -10 16z"/>
<path d="M6750 2755 c0 -5 5 -17 10 -25 5 -8 10 -10 10 -5 0 6 -5 17 -10 25
-5 8 -10 11 -10 5z"/>
<path d="M6776 2747 c3 -10 9 -15 12 -12 3 3 0 11 -7 18 -10 9 -11 8 -5 -6z"/>
<path d="M6730 2744 c0 -7 7 -25 15 -40 8 -16 15 -22 15 -14 -1 18 -29 70 -30
54z"/>
<path d="M2800 2730 c0 -5 5 -10 11 -10 5 0 7 5 4 10 -3 6 -8 10 -11 10 -2 0
-4 -4 -4 -10z"/>
<path d="M4008 2713 c7 -3 16 -2 19 1 4 3 -2 6 -13 5 -11 0 -14 -3 -6 -6z"/>
<path d="M4108 2703 c12 -2 30 -2 40 0 9 3 -1 5 -23 4 -22 0 -30 -2 -17 -4z"/>
<path d="M6271 2642 c-1 -8 -6 -10 -13 -6 -8 5 -7 1 2 -10 15 -19 26 -7 17 17
-4 9 -6 9 -6 -1z"/>
<path d="M4790 2629 c-173 -34 -351 -50 -485 -44 -161 6 -244 13 -265 21 -11
4 -12 2 -4 -6 34 -34 434 -36 624 -4 52 9 113 18 135 21 22 3 44 9 50 14 10
10 9 10 -55 -2z"/>
<path d="M3981 2619 c-1 -9 8 -19 19 -22 11 -3 20 -1 20 4 0 5 -6 9 -14 9 -8
0 -17 6 -19 13 -4 7 -6 6 -6 -4z"/>
<path d="M4213 2513 c15 -2 37 -2 50 0 12 2 0 4 -28 4 -27 0 -38 -2 -22 -4z"/>
</g>
</svg>
