<?xml version="1.0" standalone="no"?>
<!DOCTYPE svg PUBLIC "-//W3C//DTD SVG 20010904//EN"
 "http://www.w3.org/TR/2001/REC-SVG-20010904/DTD/svg10.dtd">
<svg version="1.0" xmlns="http://www.w3.org/2000/svg"
 width="864.000000pt" height="864.000000pt" viewBox="0 0 864.000000 864.000000"
 preserveAspectRatio="xMidYMid meet">

<g transform="translate(0.000000,864.000000) scale(0.100000,-0.100000)"
fill="#000000" stroke="none">
<path d="M4006 6588 c-55 -28 -131 -111 -165 -182 -62 -127 -109 -380 -115
-626 -4 -139 -3 -151 12 -145 9 4 24 8 32 8 8 0 18 5 23 11 5 8 10 6 17 -4 9
-13 11 -13 19 -1 8 12 12 12 26 -2 21 -21 24 -21 20 1 -2 9 -4 21 -4 25 -1 5
-16 8 -33 7 -57 -3 -58 -2 -58 44 0 37 4 46 21 51 17 6 20 13 16 38 -3 19 2
43 11 60 14 22 22 26 43 22 18 -4 28 -1 32 9 8 20 -13 33 -24 15 -5 -8 -9 -9
-9 -4 0 6 6 20 14 30 15 22 25 143 13 162 -4 6 0 18 8 26 8 9 15 25 15 37 0
17 -5 21 -20 17 -21 -5 -44 15 -32 29 4 5 -4 0 -18 -11 -25 -20 -25 -20 -10 0
42 57 77 60 85 8 10 -59 13 -62 14 -12 1 25 -5 54 -13 64 -14 19 -15 19 -51 2
-20 -9 -34 -13 -31 -8 4 5 2 12 -4 16 -5 3 -10 -1 -10 -9 0 -9 -5 -16 -11 -16
-7 0 -8 7 -4 18 4 9 10 25 12 34 3 10 9 15 14 12 5 -3 9 2 9 11 0 20 47 95 60
95 6 0 10 7 10 15 0 8 7 15 15 15 8 0 15 4 15 9 0 9 47 30 81 37 17 4 69 -41
69 -58 0 -5 7 -17 16 -25 8 -9 14 -23 11 -32 -2 -9 2 -22 10 -29 15 -15 8 -35
-10 -27 -7 3 -2 -2 11 -11 25 -18 31 -49 8 -41 -10 4 -13 1 -9 -9 3 -7 11 -14
18 -14 7 0 15 -7 18 -14 4 -11 1 -13 -11 -9 -12 4 -14 3 -7 -5 6 -5 19 -12 29
-14 11 -1 21 -9 24 -16 2 -8 -2 -10 -14 -5 -12 4 -15 3 -10 -5 4 -7 23 -12 42
-12 19 0 34 -5 34 -11 0 -5 -4 -7 -10 -4 -5 3 -10 1 -10 -6 0 -8 13 -10 43 -6
23 3 34 3 25 0 -10 -2 -18 -9 -18 -15 0 -6 -11 -8 -25 -6 -21 4 -25 1 -25 -18
0 -17 -6 -24 -20 -24 -11 0 -20 6 -20 13 0 9 -17 14 -54 16 -45 2 -57 -2 -69
-19 -13 -19 -16 -19 -30 -6 -9 9 -23 13 -31 10 -23 -9 -20 -24 5 -24 27 0 19
-24 -9 -28 -14 -2 -22 -11 -22 -22 0 -23 16 -35 26 -19 5 9 11 6 22 -7 10 -13
16 -15 19 -7 3 9 11 8 29 -3 19 -13 24 -14 24 -3 1 9 6 7 16 -6 12 -16 26 -20
72 -19 41 1 51 -1 37 -7 -14 -7 -8 -8 22 -5 34 3 41 1 36 -12 -5 -13 1 -14 38
-9 29 4 37 3 24 -3 -14 -6 -16 -9 -5 -10 25 -4 34 -6 50 -13 8 -3 26 -8 40
-10 14 -2 3 -5 -25 -5 -27 -1 -68 3 -90 8 -22 6 -100 12 -174 15 -74 3 -143 7
-153 11 -11 3 -35 3 -54 -1 -50 -9 -42 -45 9 -36 4 1 16 -3 27 -9 13 -7 20 -6
23 3 4 9 8 9 15 -2 6 -8 17 -11 32 -6 17 5 21 4 15 -5 -6 -10 -1 -12 23 -7 20
4 32 2 32 -4 0 -6 10 -10 23 -9 36 3 43 0 27 -11 -11 -8 -5 -9 25 -5 22 3 34
3 27 0 -24 -11 0 -25 36 -20 20 3 29 3 19 0 -9 -3 -15 -10 -12 -15 4 -5 -10
-7 -32 -4 -21 2 -99 7 -173 10 -74 3 -144 6 -155 8 -12 1 -20 -4 -20 -13 0 -9
9 -15 22 -15 12 0 25 -4 29 -8 4 -3 18 -4 32 0 19 4 23 3 17 -7 -6 -10 -1 -12
23 -7 31 6 45 -6 20 -16 -13 -5 -1 -7 67 -10 31 -2 41 -6 41 -19 0 -16 -13
-18 -128 -18 -107 0 -128 -2 -128 -15 0 -8 5 -15 10 -15 6 0 10 -7 10 -15 0
-12 7 -14 26 -9 21 5 25 4 19 -6 -6 -10 0 -11 29 -6 27 5 36 4 34 -6 -2 -8 7
-12 25 -11 15 1 27 -2 27 -8 0 -5 8 -9 18 -9 10 0 47 -11 82 -25 37 -15 72
-22 86 -19 18 5 24 2 24 -10 0 -20 9 -20 31 0 19 17 39 11 39 -12 0 -16 16
-19 25 -4 12 19 45 11 45 -11 0 -20 1 -21 25 -5 14 9 25 12 25 6 0 -5 -11 -17
-25 -26 -30 -19 -27 -31 4 -15 16 9 22 8 31 -6 9 -15 10 -12 6 15 -4 20 -2 31
4 27 6 -3 10 -13 10 -21 0 -12 5 -12 28 3 l27 17 -23 -26 -23 -26 31 -4 c29
-4 31 -3 25 19 -4 16 -2 22 5 18 5 -3 10 -13 10 -21 0 -12 4 -13 21 -4 11 7
23 9 26 6 3 -3 -2 -8 -11 -12 -23 -9 -20 -19 8 -32 20 -9 29 -8 48 8 27 21 58
11 58 -20 0 -21 15 -27 25 -10 11 18 43 11 50 -11 4 -12 12 -18 21 -15 20 8
17 -8 -6 -29 -19 -18 -20 -17 -20 6 0 13 -4 30 -9 38 -8 12 -13 12 -35 -2 -33
-22 -36 -22 -36 7 0 36 -16 41 -48 15 -25 -21 -26 -22 -4 -16 15 3 22 1 19 -6
-2 -7 -12 -11 -22 -10 -12 1 -14 -2 -6 -10 7 -7 15 -6 27 4 14 11 18 11 29 -5
7 -9 19 -16 27 -15 34 4 40 -1 34 -28 -4 -18 -3 -23 2 -14 7 9 11 10 17 2 4
-7 1 -19 -7 -28 -11 -15 -11 -16 5 -10 10 4 24 7 30 7 8 0 7 4 -2 9 -7 5 -10
14 -7 20 12 18 28 1 22 -23 -6 -24 7 -51 21 -43 5 3 15 2 23 -3 12 -8 12 -10
-2 -15 -9 -4 -28 1 -42 10 -14 10 -26 15 -26 11 0 -3 -18 4 -40 15 -22 12 -40
25 -40 30 0 5 -9 9 -20 9 -11 0 -20 -4 -20 -10 0 -5 7 -7 15 -4 8 4 15 2 15
-3 0 -6 12 -15 26 -21 14 -7 22 -17 18 -23 -4 -7 0 -9 14 -5 24 8 39 -19 16
-28 -23 -9 -36 -7 -29 4 3 6 -4 10 -17 10 -31 0 -52 15 -43 29 5 8 -2 10 -22
5 -33 -8 -42 -14 -21 -14 9 0 18 -7 22 -15 3 -8 12 -12 19 -9 10 3 17 -4 21
-21 5 -21 11 -25 29 -19 17 5 19 4 11 -6 -13 -13 25 -57 106 -120 25 -19 47
-38 48 -42 2 -5 13 -8 24 -8 14 0 18 -5 13 -18 -4 -14 13 -38 60 -88 35 -38
65 -72 65 -76 0 -3 -13 -11 -29 -16 -34 -12 -93 -95 -144 -202 -34 -71 -35
-72 -12 -66 13 3 46 20 73 37 41 25 49 35 44 52 -3 12 -12 27 -20 33 -8 5 -12
21 -10 35 5 36 66 60 165 67 69 4 86 8 104 28 l21 23 -23 -6 c-18 -5 -21 -3
-16 10 4 12 -2 17 -26 23 l-31 6 28 25 c16 13 41 26 56 30 21 4 33 15 45 42
25 56 96 174 116 191 9 9 20 33 24 53 4 20 11 40 16 43 5 3 16 22 24 41 9 20
18 33 21 30 4 -3 -3 -24 -15 -47 -11 -22 -19 -40 -17 -40 13 0 98 98 103 118
7 28 -6 114 -16 108 -4 -3 -2 34 5 82 7 48 20 137 28 197 9 61 16 127 16 148
0 45 -24 97 -45 97 -8 0 -15 5 -15 10 0 15 -21 12 -44 -7 -12 -10 -15 -11 -8
-3 6 8 12 18 12 22 0 4 -56 8 -124 8 -108 0 -126 -2 -149 -20 -35 -28 -44 -26
-92 19 -105 97 -220 115 -355 57 -11 -5 -20 7 -34 46 -22 63 -76 139 -94 133
-7 -3 -10 0 -7 5 3 6 -1 10 -10 10 -9 0 -14 4 -11 9 3 5 -9 16 -28 25 -38 18
-72 22 -43 5 9 -5 17 -14 17 -19 0 -12 -42 1 -59 18 -8 8 -23 11 -37 8 -14 -4
-24 -2 -24 4 0 5 -11 10 -25 10 -14 0 -25 -5 -25 -11 0 -7 -10 -9 -25 -5 -18
5 -27 2 -31 -9 -3 -8 -10 -12 -15 -9 -5 3 -7 10 -4 15 4 5 -3 9 -14 9 -11 0
-27 7 -35 16 -9 8 -20 12 -26 9 -5 -3 -10 -1 -10 4 0 6 5 11 10 11 6 0 10 5
10 11 0 6 -7 9 -15 5 -9 -3 -15 0 -15 9 0 8 -9 19 -20 25 -13 7 -20 21 -20 42
0 17 -16 60 -35 95 -29 50 -41 63 -60 63 -32 0 -56 10 -49 21 6 11 8 11 -40
-13z m82 -58 c31 -19 82 -108 82 -144 0 -47 36 -124 74 -160 38 -36 39 -38 10
-23 -33 17 -56 46 -69 87 -4 14 -16 37 -26 51 -10 14 -16 29 -13 31 2 3 -1 18
-7 34 -7 16 -13 31 -14 34 -13 40 -30 64 -55 78 -28 16 -39 32 -22 32 4 0 22
-9 40 -20z m-78 6 c0 -2 -7 -7 -16 -10 -8 -3 -12 -2 -9 4 6 10 25 14 25 6z
m365 -396 c-3 -5 -12 -10 -18 -10 -7 0 -6 4 3 10 19 12 23 12 15 0z m-35 -20
c0 -5 -4 -10 -10 -10 -5 0 -10 5 -10 10 0 6 5 10 10 10 6 0 10 -4 10 -10z m60
0 c0 -5 -5 -10 -11 -10 -5 0 -7 5 -4 10 3 6 8 10 11 10 2 0 4 -4 4 -10z m-535
-7 c-11 -3 -23 -10 -27 -17 -5 -7 -8 -7 -8 0 0 16 11 24 34 23 20 -1 20 -1 1
-6z m305 -133 c13 -8 13 -10 -2 -10 -9 0 -20 5 -23 10 -8 13 5 13 25 0z m260
-64 c0 -11 -19 -15 -25 -6 -3 5 1 10 9 10 9 0 16 -2 16 -4z m80 -40 c0 -3 -4
-8 -10 -11 -5 -3 -10 -1 -10 4 0 6 5 11 10 11 6 0 10 -2 10 -4z m255 -6 c-3
-5 -12 -10 -18 -10 -7 0 -6 4 3 10 19 12 23 12 15 0z m-160 -40 c3 -5 1 -10
-4 -10 -6 0 -11 5 -11 10 0 6 2 10 4 10 3 0 8 -4 11 -10z m-805 -19 c0 -5 -7
-12 -16 -15 -14 -5 -15 -4 -4 9 14 17 20 19 20 6z m532 -18 c-6 -2 -10 -9 -6
-14 3 -5 -7 -9 -23 -9 l-28 1 25 14 c14 8 30 14 35 14 6 0 4 -3 -3 -6z m258
-9 c0 -2 -7 -4 -15 -4 -8 0 -15 4 -15 10 0 5 7 7 15 4 8 -4 15 -8 15 -10z
m167 -16 c-3 -7 -5 -2 -5 12 0 14 2 19 5 13 2 -7 2 -19 0 -25z m-215 -2 c3 3
9 1 13 -5 3 -6 1 -11 -5 -11 -19 0 -50 20 -50 32 0 6 8 4 18 -5 10 -10 21 -14
24 -11z m-165 -2 c-3 -3 -12 -4 -19 -1 -8 3 -5 6 6 6 11 1 17 -2 13 -5z m53
-14 c0 -5 -4 -10 -10 -10 -5 0 -10 5 -10 10 0 6 5 10 10 10 6 0 10 -4 10 -10z
m70 -4 c0 -9 -30 -14 -35 -6 -4 6 3 10 14 10 12 0 21 -2 21 -4z m254 -11 c-4
-8 -8 -15 -10 -15 -2 0 -4 7 -4 15 0 8 4 15 10 15 5 0 7 -7 4 -15z m-569 -35
c-3 -5 -14 -10 -23 -9 -14 0 -13 2 3 9 27 11 27 11 20 0z m565 -6 c0 -8 -6
-11 -15 -8 -8 4 -15 9 -15 13 0 4 7 8 15 8 8 0 15 -6 15 -13z m-525 -14 c3 -5
-1 -10 -9 -10 -8 0 -18 5 -21 10 -3 6 1 10 9 10 8 0 18 -4 21 -10z m285 -90
c0 -5 -2 -10 -4 -10 -3 0 -8 5 -11 10 -3 6 -1 10 4 10 6 0 11 -4 11 -10z m230
-14 c0 -22 -40 -67 -53 -59 -7 4 -21 6 -32 4 -18 -3 -17 -1 5 19 14 12 18 19
10 15 -8 -4 -4 3 9 14 26 24 61 28 61 7z m-133 -32 c-3 -3 -12 -4 -19 -1 -8 3
-5 6 6 6 11 1 17 -2 13 -5z m30 -106 c-3 -8 -6 -5 -6 6 -1 11 2 17 5 13 3 -3
4 -12 1 -19z m883 -93 c-7 -20 -14 -35 -16 -33 -2 2 2 21 8 41 6 20 13 35 16
33 2 -3 -1 -21 -8 -41z m-660 -8 c0 -18 -2 -19 -10 -7 -13 20 -13 43 0 35 6
-3 10 -16 10 -28z m59 -31 c-1 -16 -2 -17 -6 -3 -5 19 -18 22 -28 7 -3 -5 -13
-10 -22 -10 -11 0 -9 5 8 19 28 22 49 17 48 -13z m511 -11 c0 -5 -5 -3 -10 5
-5 8 -10 20 -10 25 0 6 5 3 10 -5 5 -8 10 -19 10 -25z m-450 -21 c0 -8 6 -11
16 -7 10 4 20 0 26 -10 4 -9 15 -14 23 -11 8 4 18 -1 21 -10 5 -12 10 -14 19
-6 9 8 15 8 20 0 3 -5 1 -10 -4 -10 -6 0 -11 -7 -11 -15 0 -23 -17 -18 -24 7
-5 22 -6 22 -19 4 -13 -18 -14 -18 -21 7 -7 28 -20 35 -32 16 -4 -7 -12 2 -20
21 -14 32 -15 32 -34 15 -24 -22 -27 -9 -3 17 12 14 19 15 30 7 7 -6 13 -18
13 -25z m400 -4 c0 -5 -2 -10 -4 -10 -3 0 -8 5 -11 10 -3 6 -1 10 4 10 6 0 11
-4 11 -10z m-20 -20 c0 -5 -2 -10 -4 -10 -3 0 -8 5 -11 10 -3 6 -1 10 4 10 6
0 11 -4 11 -10z m-206 -36 c3 -8 2 -12 -4 -9 -6 3 -10 -4 -10 -16 0 -17 -3
-20 -11 -12 -8 8 -8 17 0 32 14 25 17 26 25 5z m148 -19 c-6 -34 -12 -32 -12
6 0 16 4 28 9 25 4 -3 6 -17 3 -31z m-116 3 c-3 -13 -6 -30 -6 -38 -1 -13 -2
-13 -10 1 -11 18 -2 59 12 59 6 0 8 -10 4 -22z m84 5 c0 -34 -17 -46 -18 -14
0 17 4 31 9 31 5 0 9 -8 9 -17z m-48 -18 c-2 -14 -6 -25 -8 -25 -2 0 -4 11 -4
25 0 14 4 25 9 25 4 0 6 -11 3 -25z m-412 -40 c7 -9 8 -15 2 -15 -5 0 -12 7
-16 15 -3 8 -4 15 -2 15 2 0 9 -7 16 -15z m80 -5 c0 -5 -2 -10 -4 -10 -3 0 -8
5 -11 10 -3 6 -1 10 4 10 6 0 11 -4 11 -10z"/>
<path d="M4220 6525 c0 -5 11 -44 24 -85 13 -41 27 -87 30 -102 6 -27 26 -40
26 -17 0 31 -35 139 -56 174 -13 22 -24 36 -24 30z"/>
<path d="M6680 6512 c0 -7 -4 -10 -10 -7 -5 3 -10 1 -10 -5 0 -6 -5 -8 -11 -4
-16 9 -120 -16 -143 -35 -16 -13 -18 -14 -12 -1 4 9 2 8 -7 -3 -8 -9 -32 -23
-53 -31 -22 -8 -38 -19 -36 -25 1 -6 -7 -11 -18 -11 -11 0 -20 -4 -20 -9 0 -6
12 -6 30 0 17 6 30 14 30 19 0 14 192 71 259 77 86 7 216 -18 297 -57 63 -31
90 -37 79 -20 -4 6 1 7 12 4 15 -5 16 -4 3 5 -8 6 -23 11 -32 11 -10 0 -18 5
-18 10 0 6 -7 10 -16 10 -8 0 -13 4 -10 9 8 12 -23 25 -53 22 -13 -2 -21 2
-17 7 3 5 -14 13 -39 17 -25 3 -43 10 -40 16 3 5 -1 6 -9 3 -9 -3 -13 -11 -9
-18 4 -8 2 -8 -7 1 -7 6 -19 9 -26 6 -8 -3 -14 0 -14 7 0 8 -7 10 -17 5 -32
-12 -68 -13 -75 -1 -6 8 -8 7 -8 -2z"/>
<path d="M6637 6459 c-11 -6 -44 -14 -79 -18 -4 -1 -14 -8 -22 -17 -12 -11
-16 -12 -16 -2 0 7 -7 2 -16 -10 -9 -13 -22 -21 -30 -18 -8 3 -14 1 -14 -4 0
-6 -9 -10 -20 -10 -21 0 -43 -17 -116 -87 -32 -31 -39 -43 -28 -47 9 -4 19 3
26 19 6 14 17 25 25 25 7 0 18 9 25 19 6 10 17 17 24 14 7 -2 17 4 23 15 7 14
17 18 31 15 12 -3 22 1 26 11 3 9 16 16 29 16 13 0 25 7 29 15 3 8 12 12 21 9
8 -4 21 -2 28 3 6 5 32 9 57 8 25 -1 50 1 55 4 16 9 95 7 95 -2 0 -5 10 -7 23
-6 12 1 30 -2 40 -6 10 -4 20 -5 24 -2 3 3 12 -1 20 -9 9 -8 21 -13 29 -10 7
3 20 -7 29 -20 9 -14 23 -23 30 -20 7 2 16 -2 19 -10 3 -8 15 -14 27 -14 15 0
19 -5 15 -15 -3 -10 3 -17 20 -21 16 -4 23 -12 20 -20 -3 -8 3 -20 14 -26 11
-7 20 -20 20 -30 0 -9 9 -20 20 -23 15 -5 19 -12 15 -25 -4 -12 2 -24 16 -34
19 -13 20 -18 9 -31 -8 -9 -17 -12 -24 -6 -6 4 -27 11 -47 15 -21 4 -42 13
-49 21 -14 17 -60 20 -60 4 0 -5 -5 -7 -11 -3 -7 4 -10 -1 -7 -12 2 -11 13
-20 26 -22 12 -2 22 -7 22 -12 0 -12 -28 -21 -35 -10 -3 5 -14 8 -24 7 -15 -1
-17 -5 -11 -18 11 -20 47 -31 54 -15 3 7 5 7 5 -1 1 -7 10 -13 21 -13 11 0 20
-4 20 -9 0 -5 -18 -7 -39 -4 -37 5 -39 4 -34 -16 6 -23 38 -29 46 -8 4 10 6
10 6 0 1 -7 10 -13 21 -13 43 0 17 -18 -26 -18 -26 -1 -49 -3 -51 -6 -3 -3
-18 22 -35 54 -82 165 -266 222 -445 138 -79 -37 -192 -166 -218 -249 -5 -15
-4 -19 4 -15 6 4 11 2 11 -5 0 -7 12 12 27 42 26 53 139 176 151 165 3 -4 17
4 31 17 67 60 186 71 277 25 41 -20 94 -74 94 -96 0 -6 7 -13 16 -16 8 -3 12
-10 9 -16 -3 -5 -1 -10 4 -10 6 0 11 -7 11 -15 0 -11 -5 -12 -25 -5 -15 6 -25
6 -25 0 0 -5 -20 -30 -45 -57 -35 -38 -43 -43 -40 -25 2 12 0 20 -4 18 -4 -3
-20 2 -35 10 -33 17 -39 17 -31 4 11 -18 -29 2 -63 32 -18 15 -36 28 -40 28
-4 -1 10 -14 30 -31 21 -17 35 -36 31 -42 -3 -5 -1 -7 4 -4 6 4 13 1 16 -6 6
-15 -34 -21 -43 -7 -3 6 -18 11 -33 12 -15 1 -27 6 -27 11 0 5 -6 4 -14 -2 -7
-6 -22 -8 -32 -5 -18 7 -18 6 -1 -12 16 -17 16 -19 -3 -29 -14 -7 -17 -14 -10
-25 9 -13 11 -13 20 0 5 8 10 10 10 3 0 -6 14 -16 30 -22 36 -12 39 1 5 23
-14 9 -25 25 -25 36 0 26 5 25 33 -2 22 -23 24 -26 26 -54 1 -15 67 -50 85
-45 5 1 4 -4 -2 -12 -17 -20 -99 2 -134 37 -16 15 -28 23 -28 18 0 -6 13 -21
29 -35 17 -14 27 -28 23 -32 -4 -4 -7 -12 -7 -18 0 -7 -15 -13 -33 -15 -31 -3
-32 -2 -26 22 5 21 3 26 -13 26 -12 0 -19 -8 -20 -21 -2 -23 20 -52 31 -42 3
4 6 -1 6 -10 0 -9 -5 -17 -11 -17 -5 0 -8 -4 -5 -9 11 -17 -90 -30 -132 -17
-13 4 -26 6 -28 3 -10 -9 79 -70 134 -93 31 -13 50 -24 42 -24 -24 0 -143 59
-170 85 -27 26 -70 30 -70 7 0 -7 -5 -10 -11 -6 -7 4 -10 1 -7 -7 2 -8 17 -15
32 -17 21 -3 26 -7 21 -22 -6 -20 25 -37 45 -25 12 7 40 -12 40 -27 0 -5 -8
-5 -18 1 -10 5 -54 10 -98 10 -43 -1 -130 0 -192 0 l-114 1 7 33 c8 38 48 75
93 83 17 3 32 10 32 15 0 12 -63 7 -73 -6 -6 -6 -10 -6 -14 2 -3 10 -10 10
-25 2 -18 -10 -19 -8 -13 13 9 29 42 66 67 74 10 3 18 11 18 18 0 15 -72 9
-82 -8 -12 -18 -9 12 3 37 15 28 49 56 70 57 9 0 20 7 23 16 3 9 13 14 21 10
8 -3 17 0 21 6 4 7 9 6 15 -3 7 -11 9 -11 9 -1 0 7 6 12 13 11 17 -3 47 11 47
23 0 5 -4 7 -8 4 -5 -3 -34 -6 -65 -7 -31 -1 -57 -5 -57 -9 0 -4 -10 -6 -22
-4 -13 1 -38 3 -55 3 -39 1 -43 20 -15 78 21 47 31 55 62 49 28 -5 74 17 108
53 33 33 20 38 -32 11 -38 -21 -48 -22 -77 -12 l-34 11 35 -3 c45 -5 77 12
120 64 19 24 41 49 48 56 18 19 15 24 -13 24 -14 0 -25 -4 -25 -9 0 -5 -15 -8
-32 -7 -21 0 -32 -3 -31 -11 2 -7 -13 -15 -35 -18 -89 -14 -87 -12 -117 -130
-20 -76 -31 -206 -16 -185 8 12 11 6 11 -25 0 -29 -3 -36 -10 -25 -6 9 -10
-46 -12 -158 -2 -110 1 -172 7 -172 6 0 32 7 59 15 61 19 120 18 216 -1 41 -8
84 -16 96 -17 11 -1 28 -8 37 -15 9 -8 21 -11 27 -7 5 3 19 -1 31 -9 12 -8 28
-12 35 -9 8 3 21 0 29 -7 8 -6 20 -10 27 -7 7 2 20 -1 28 -8 20 -16 92 -37
110 -33 9 2 14 -3 12 -12 -2 -8 0 -12 4 -8 4 4 13 3 20 -3 16 -13 34 -4 34 17
0 23 24 16 43 -13 l17 -28 6 23 c8 29 25 24 43 -13 13 -27 15 -27 27 -10 18
24 44 12 44 -20 0 -27 14 -34 24 -10 7 18 35 20 40 3 3 -7 7 -26 11 -41 5 -26
4 -28 -16 -22 -15 5 -19 4 -14 -5 4 -7 17 -9 32 -5 19 4 29 1 40 -15 8 -11 20
-20 26 -18 20 3 58 -13 52 -23 -4 -5 4 -9 17 -9 13 0 31 -9 41 -20 9 -11 26
-20 37 -20 12 0 18 -4 15 -10 -3 -5 0 -10 7 -11 7 0 0 -7 -17 -14 -16 -8 -23
-15 -15 -15 9 -1 6 -6 -8 -13 -19 -8 -25 -8 -32 3 -5 8 -12 11 -16 8 -8 -9
110 -128 126 -128 6 0 8 -5 5 -10 -9 -15 28 -57 45 -52 13 4 13 3 2 -10 -15
-19 0 -34 33 -31 16 1 16 1 3 -3 -10 -3 -18 -8 -18 -11 0 -10 75 -79 93 -86
28 -10 19 2 -10 15 l-28 12 24 4 c13 2 30 9 37 16 19 19 74 8 74 -15 0 -11 5
-19 10 -19 6 0 10 5 10 11 0 6 7 8 16 5 8 -3 22 1 30 9 9 8 29 15 45 15 16 0
29 5 29 10 0 19 21 10 30 -12 l9 -23 0 23 c1 12 -6 25 -14 28 -13 5 -13 8 0
21 8 8 15 23 15 34 0 11 5 17 10 14 6 -3 8 -22 6 -41 -3 -19 -1 -34 4 -34 15
0 34 218 20 240 -5 7 -10 -7 -13 -36 -11 -91 -13 -103 -21 -111 -8 -7 -5 20
10 135 3 23 10 42 15 42 5 0 9 5 9 10 0 6 -5 9 -11 8 -6 -2 -18 8 -27 22 -16
24 -16 24 1 11 20 -16 23 -1 6 31 -6 11 -7 18 -1 15 15 -10 13 130 -3 218 -8
44 -12 101 -9 125 21 172 18 264 -13 305 -14 20 -14 20 -30 0 -15 -20 -15 -20
-10 2 6 25 3 26 -136 44 -48 6 -94 9 -101 6 -10 -4 -13 3 -12 24 1 16 -2 29
-7 29 -5 0 -7 14 -3 30 3 18 1 30 -5 30 -6 0 -7 5 -4 10 3 6 1 10 -6 10 -6 0
-9 8 -7 18 7 24 -16 69 -26 53 -4 -6 -12 -11 -18 -11 -6 0 -5 7 3 17 13 15 12
15 -8 4 -21 -11 -23 -10 -23 14 0 15 4 24 10 20 6 -3 10 -1 10 4 0 15 -13 14
-29 -1 -12 -11 -13 -10 -7 6 4 13 2 17 -8 13 -11 -4 -13 -1 -9 10 4 11 2 14
-5 9 -7 -4 -12 -2 -12 3 0 6 -4 11 -10 11 -9 0 3 -35 39 -107 8 -18 13 -35 10
-37 -3 -3 -20 27 -39 67 -43 95 -173 226 -270 274 -97 48 -287 77 -333 52z
m706 -385 c7 1 9 1 5 -1 -4 -2 -4 -12 -1 -21 4 -13 3 -14 -5 -3 -5 7 -14 11
-20 7 -6 -4 -8 2 -4 16 3 12 7 17 9 11 3 -7 10 -11 16 -9z m-129 -26 c-9 -14
-22 -9 -27 11 -4 17 -2 18 13 8 10 -6 16 -15 14 -19z m23 -44 c-3 -3 -12 -4
-19 -1 -8 3 -5 6 6 6 11 1 17 -2 13 -5z m-197 -98 c0 -11 -19 -15 -25 -6 -3 5
1 10 9 10 9 0 16 -2 16 -4z m40 -6 c0 -5 -7 -7 -15 -4 -8 4 -15 8 -15 10 0 2
7 4 15 4 8 0 15 -4 15 -10z m180 -10 c0 -5 -2 -10 -4 -10 -3 0 -8 5 -11 10 -3
6 -1 10 4 10 6 0 11 -4 11 -10z m150 -10 c0 -5 -5 -10 -11 -10 -5 0 -7 5 -4
10 3 6 8 10 11 10 2 0 4 -4 4 -10z m-150 -60 c0 -5 -2 -10 -4 -10 -3 0 -8 5
-11 10 -3 6 -1 10 4 10 6 0 11 -4 11 -10z m135 -40 c-4 -17 -9 -30 -11 -27 -2
2 -1 18 2 36 4 17 9 30 11 27 3 -2 2 -19 -2 -36z m-458 -77 c-34 -64 -128
-139 -197 -157 -14 -3 -2 5 27 18 62 29 146 104 163 147 7 16 15 28 17 25 2
-2 -2 -17 -10 -33z m434 -4 l-10 -24 0 26 c-1 14 2 29 6 33 12 12 14 -9 4 -35z
m-14 -46 c-2 -5 -11 -25 -21 -45 -19 -43 -31 -51 -16 -12 14 35 30 64 36 64 3
0 3 -3 1 -7z m-367 -57 c0 -2 -7 -6 -15 -10 -8 -3 -15 -1 -15 4 0 6 7 10 15
10 8 0 15 -2 15 -4z m204 -35 c4 -5 -3 -7 -14 -4 -23 6 -26 13 -6 13 8 0 17
-4 20 -9z m76 4 c0 -2 -9 -20 -19 -39 -11 -19 -17 -37 -13 -42 4 -4 1 -4 -5 0
-8 4 -13 1 -13 -8 0 -9 -6 -16 -12 -16 -9 0 -8 -4 2 -10 21 -13 30 -12 30 3 0
8 9 22 20 32 11 10 20 14 20 8 0 -19 -58 -90 -92 -113 -18 -13 -38 -30 -45
-38 -10 -12 -14 -12 -33 1 -21 15 -21 16 36 83 32 38 62 71 66 72 4 2 8 10 8
17 0 8 9 19 20 25 11 6 18 15 15 21 -4 5 -1 9 4 9 6 0 11 -2 11 -5z m34 -30
c-9 -14 -18 -25 -20 -25 -2 0 2 11 8 25 6 14 15 25 20 25 5 0 1 -11 -8 -25z
m-379 5 c-3 -5 -11 -10 -16 -10 -6 0 -7 5 -4 10 3 6 11 10 16 10 6 0 7 -4 4
-10z m-467 -34 c-7 -8 -15 -12 -17 -11 -5 6 10 25 20 25 5 0 4 -6 -3 -14z
m692 10 c0 -3 -4 -8 -10 -11 -5 -3 -10 -1 -10 4 0 6 5 11 10 11 6 0 10 -2 10
-4z m-40 -60 c0 -6 5 -4 10 4 13 20 13 4 0 -20 -6 -12 -16 -17 -26 -13 -13 5
-13 7 -2 14 10 7 10 9 1 9 -7 0 -13 4 -13 8 0 5 7 9 15 9 8 0 15 -5 15 -11z
m-27 -43 c-7 -2 -19 -2 -25 0 -7 3 -2 5 12 5 14 0 19 -2 13 -5z m0 -33 c-5
-18 -33 -30 -33 -14 0 5 29 32 37 34 0 0 -1 -9 -4 -20z m-69 -85 c-4 -8 -10
-15 -15 -15 -4 0 -6 7 -3 15 4 8 10 15 15 15 4 0 6 -7 3 -15z m55 -21 c15 18
21 19 37 8 16 -10 28 -52 15 -52 -6 0 -11 9 -11 19 0 29 -15 33 -35 11 -28
-30 -42 -24 -42 18 l-1 37 12 -28 c11 -25 14 -26 25 -13z m121 -54 c5 -32 6
-33 22 -17 22 23 45 21 51 -3 3 -11 1 -20 -4 -20 -5 0 -9 7 -9 15 0 21 -14 19
-35 -5 -21 -23 -35 -12 -35 28 0 26 -12 29 -30 7 -7 -8 -17 -15 -23 -15 -6 0
0 11 13 25 30 32 44 28 50 -15z m137 -75 c2 -27 -1 -24 -13 14 -3 11 -10 9
-29 -9 -28 -26 -34 -17 -8 12 24 27 48 19 50 -17z m60 -31 c2 -26 -1 -23 -13
14 -3 9 -12 4 -30 -15 l-26 -28 22 33 c26 39 44 37 47 -4z m313 -4 c6 -11 8
-20 6 -20 -3 0 -10 9 -16 20 -6 11 -8 20 -6 20 3 0 10 -9 16 -20z m-270 -22
c0 -6 -3 -9 -6 -5 -4 3 -15 -4 -25 -16 -23 -27 -25 -15 -3 18 16 24 34 25 34
3z m-153 -4 c-3 -3 -12 -4 -19 -1 -8 3 -5 6 6 6 11 1 17 -2 13 -5z m193 -14
c0 -6 -9 -20 -20 -32 l-19 -21 11 31 c12 31 28 43 28 22z m224 -6 c3 -8 2 -12
-4 -9 -6 3 -10 10 -10 16 0 14 7 11 14 -7z m-204 -54 c-16 -30 -22 -19 -7 13
6 14 13 22 15 17 2 -5 -2 -19 -8 -30z m30 -27 c-11 -17 -11 -17 -6 0 3 10 7
26 7 35 1 15 2 15 6 0 2 -10 -1 -25 -7 -35z m118 12 c-3 -3 -9 2 -12 12 -6 14
-5 15 5 6 7 -7 10 -15 7 -18z m-93 -42 c-9 -15 -13 -19 -9 -8 3 11 9 31 12 45
4 18 7 20 10 8 2 -9 -4 -29 -13 -45z m62 25 c-3 -7 -5 -2 -5 12 0 14 2 19 5
13 2 -7 2 -19 0 -25z m60 10 c-3 -8 -6 -5 -6 6 -1 11 2 17 5 13 3 -3 4 -12 1
-19z m-70 -50 c-3 -8 -6 -5 -6 6 -1 11 2 17 5 13 3 -3 4 -12 1 -19z m33 -2 c0
-3 -4 -8 -10 -11 -5 -3 -10 -1 -10 4 0 6 5 11 10 11 6 0 10 -2 10 -4z m-232
-94 c2 -7 -1 -12 -8 -12 -6 0 -9 4 -6 9 4 5 1 12 -4 14 -6 3 -5 4 2 3 6 -1 14
-8 16 -14z"/>
<path d="M7195 5429 c-11 -17 1 -21 15 -4 8 9 8 15 2 15 -6 0 -14 -5 -17 -11z"/>
<path d="M4225 6420 c-3 -5 -1 -10 4 -10 6 0 11 5 11 10 0 6 -2 10 -4 10 -3 0
-8 -4 -11 -10z"/>
<path d="M7083 6393 c-13 -2 -23 -6 -23 -9 0 -7 144 -144 147 -140 2 1 -6 13
-17 26 -11 12 -17 27 -14 31 3 5 0 9 -6 9 -15 0 -41 26 -33 34 4 3 -2 6 -13 6
-16 0 -17 2 -4 10 12 8 10 10 -9 10 -20 0 -21 2 -11 15 7 8 11 14 9 14 -2 -1
-14 -4 -26 -6z"/>
<path d="M3927 6360 c-9 -11 -23 -20 -30 -20 -17 0 -63 -48 -54 -56 3 -4 23 8
44 25 56 47 56 47 86 44 33 -2 36 12 5 21 -32 8 -32 8 -51 -14z"/>
<path d="M6287 6309 c-22 -22 -44 -36 -49 -32 -6 3 -8 1 -4 -5 3 -5 0 -13 -6
-16 -7 -3 -2 -4 12 -3 14 1 24 8 23 15 -2 6 2 12 8 12 6 0 26 16 45 35 18 19
28 34 21 34 -6 -1 -29 -19 -50 -40z"/>
<path d="M6617 6288 c-7 -4 -24 -8 -39 -8 -29 0 -45 -15 -27 -26 6 -3 15 -1
19 6 5 8 17 10 33 6 14 -3 29 -2 32 4 3 5 20 9 37 7 17 -1 33 3 35 10 5 14
-69 14 -90 1z"/>
<path d="M6732 6291 c-11 -6 -11 -10 0 -19 9 -7 18 -7 31 3 16 11 16 13 1 19
-19 7 -16 7 -32 -3z"/>
<path d="M6794 6272 c3 -6 -2 -13 -11 -16 -10 -3 1 -4 24 -2 24 2 46 0 49 -5
3 -5 0 -9 -6 -9 -6 0 -8 -5 -5 -11 4 -5 18 -9 33 -7 15 2 27 -3 30 -11 3 -9 0
-11 -8 -6 -9 5 -11 4 -6 -3 4 -7 20 -12 37 -12 27 0 44 -20 17 -20 -7 0 -5 -5
5 -11 11 -7 23 -7 35 0 10 6 12 11 4 11 -7 0 -10 4 -7 10 3 5 -11 18 -32 27
-21 10 -45 27 -54 37 -9 11 -25 21 -35 22 -10 2 -32 6 -48 10 -20 5 -27 3 -22
-4z"/>
<path d="M6475 6240 c-3 -5 3 -10 14 -10 11 0 23 5 26 10 3 6 -3 10 -14 10
-11 0 -23 -4 -26 -10z"/>
<path d="M6675 6230 c-3 -5 1 -10 10 -10 9 0 13 5 10 10 -3 6 -8 10 -10 10 -2
0 -7 -4 -10 -10z"/>
<path d="M6736 6232 c-3 -6 -1 -14 5 -17 15 -10 25 3 12 16 -7 7 -13 7 -17 1z"/>
<path d="M6610 6220 c0 -5 4 -10 9 -10 6 0 13 5 16 10 3 6 -1 10 -9 10 -9 0
-16 -4 -16 -10z"/>
<path d="M7208 6223 c7 -3 16 -2 19 1 4 3 -2 6 -13 5 -11 0 -14 -3 -6 -6z"/>
<path d="M3980 6210 c-9 -6 -10 -10 -3 -10 6 0 15 5 18 10 8 12 4 12 -15 0z"/>
<path d="M6247 6213 c-12 -11 -8 -23 7 -23 8 0 16 7 20 15 5 15 -14 21 -27 8z"/>
<path d="M6435 6210 c-3 -5 1 -10 9 -10 8 0 18 5 21 10 3 6 -1 10 -9 10 -8 0
-18 -4 -21 -10z"/>
<path d="M6540 6210 c0 -5 7 -10 15 -10 8 0 15 5 15 10 0 6 -7 10 -15 10 -8 0
-15 -4 -15 -10z"/>
<path d="M6790 6210 c0 -5 7 -10 15 -10 8 0 15 5 15 10 0 6 -7 10 -15 10 -8 0
-15 -4 -15 -10z"/>
<path d="M4020 6190 c0 -5 5 -10 10 -10 6 0 10 5 10 10 0 6 -4 10 -10 10 -5 0
-10 -4 -10 -10z"/>
<path d="M6846 6191 c-3 -5 1 -11 9 -15 15 -6 29 7 18 18 -9 9 -21 8 -27 -3z"/>
<path d="M6390 6180 c-8 -5 -12 -12 -9 -15 8 -8 39 5 39 16 0 11 -11 11 -30
-1z"/>
<path d="M6490 6179 c0 -5 5 -7 10 -4 6 3 10 8 10 11 0 2 -4 4 -10 4 -5 0 -10
-5 -10 -11z"/>
<path d="M3970 6166 c0 -2 7 -6 15 -10 8 -3 15 -1 15 4 0 6 -7 10 -15 10 -8 0
-15 -2 -15 -4z"/>
<path d="M6214 6155 c-17 -13 -17 -14 -2 -15 9 0 20 5 23 11 11 17 0 20 -21 4z"/>
<path d="M6430 6150 c0 -5 4 -10 9 -10 6 0 13 5 16 10 3 6 -1 10 -9 10 -9 0
-16 -4 -16 -10z"/>
<path d="M6894 6142 c11 -12 19 -13 27 -5 7 7 3 12 -16 15 -25 5 -25 4 -11
-10z"/>
<path d="M4010 6136 c0 -9 5 -16 10 -16 6 0 10 4 10 9 0 6 -4 13 -10 16 -5 3
-10 -1 -10 -9z"/>
<path d="M6346 6134 c-17 -12 -17 -14 -4 -14 9 0 20 5 23 11 11 17 2 18 -19 3z"/>
<path d="M6937 6121 c-17 -6 -18 -8 -3 -21 10 -8 20 -10 26 -4 14 14 -3 32
-23 25z"/>
<path d="M3970 6110 c0 -5 5 -10 10 -10 6 0 10 5 10 10 0 6 -4 10 -10 10 -5 0
-10 -4 -10 -10z"/>
<path d="M6385 6110 c4 -6 11 -8 16 -5 14 9 11 15 -7 15 -8 0 -12 -5 -9 -10z"/>
<path d="M6306 6085 c-3 -8 -1 -15 3 -15 5 0 11 7 15 15 3 8 1 15 -3 15 -5 0
-11 -7 -15 -15z"/>
<path d="M3957 6074 c-8 -8 1 -24 14 -24 5 0 9 7 9 15 0 15 -12 20 -23 9z"/>
<path d="M6350 6069 c0 -5 5 -7 10 -4 6 3 10 8 10 11 0 2 -4 4 -10 4 -5 0 -10
-5 -10 -11z"/>
<path d="M6840 6038 c11 -12 20 -26 20 -32 0 -5 3 -7 6 -4 7 8 -25 58 -38 58
-5 0 0 -10 12 -22z"/>
<path d="M6271 6036 c-7 -8 -8 -17 -3 -20 6 -3 13 1 16 10 9 23 2 28 -13 10z"/>
<path d="M3944 6019 c-3 -6 -2 -15 4 -21 6 -6 11 -2 15 11 5 22 -7 29 -19 10z"/>
<path d="M6305 6020 c-3 -5 -1 -10 4 -10 6 0 11 5 11 10 0 6 -2 10 -4 10 -3 0
-8 -4 -11 -10z"/>
<path d="M6570 6016 c0 -2 7 -7 16 -10 8 -3 12 -2 9 4 -6 10 -25 14 -25 6z"/>
<path d="M6247 5983 c-4 -3 -7 -11 -7 -17 0 -6 5 -5 12 2 6 6 9 14 7 17 -3 3
-9 2 -12 -2z"/>
<path d="M6275 5970 c-3 -5 -1 -10 4 -10 6 0 11 5 11 10 0 6 -2 10 -4 10 -3 0
-8 -4 -11 -10z"/>
<path d="M3912 5963 c-6 -2 -10 -9 -6 -14 8 -14 21 -11 28 6 6 15 1 17 -22 8z"/>
<path d="M3857 5881 c2 -2 -6 -10 -17 -18 -26 -19 -25 -27 6 -42 33 -15 54 -3
28 16 -18 13 -17 14 10 11 18 -2 31 2 34 11 3 10 -1 12 -18 8 -13 -3 -28 -1
-34 6 -6 7 -10 10 -9 8z"/>
<path d="M6337 5863 c3 -7 1 -13 -5 -13 -14 0 -9 -48 11 -90 l15 -35 -1 76 c0
52 -4 76 -13 76 -7 0 -10 -6 -7 -14z"/>
<path d="M6230 5850 c0 -5 5 -10 11 -10 5 0 7 5 4 10 -3 6 -8 10 -11 10 -2 0
-4 -4 -4 -10z"/>
<path d="M6290 5845 c0 -8 2 -15 4 -15 2 0 6 7 10 15 3 8 1 15 -4 15 -6 0 -10
-7 -10 -15z"/>
<path d="M3842 5788 c6 -18 28 -21 28 -4 0 9 -7 16 -16 16 -9 0 -14 -5 -12
-12z"/>
<path d="M6225 5790 c3 -5 8 -10 11 -10 2 0 4 5 4 10 0 6 -5 10 -11 10 -5 0
-7 -4 -4 -10z"/>
<path d="M6106 5781 c-3 -5 1 -11 9 -15 8 -3 15 -1 15 3 0 5 16 8 35 7 19 -2
35 1 35 5 0 12 -87 12 -94 0z"/>
<path d="M6551 5753 c-1 -17 16 -25 25 -12 4 7 3 9 -4 5 -5 -3 -13 0 -15 6 -4
9 -6 10 -6 1z"/>
<path d="M6190 5740 c0 -5 5 -10 10 -10 6 0 10 5 10 10 0 6 -4 10 -10 10 -5 0
-10 -4 -10 -10z"/>
<path d="M6232 5728 c5 -15 28 -23 28 -10 0 5 -7 13 -16 16 -10 4 -14 1 -12
-6z"/>
<path d="M6195 5711 c-3 -5 -1 -12 5 -16 5 -3 10 1 10 9 0 18 -6 21 -15 7z"/>
<path d="M6145 5670 c3 -5 13 -10 21 -10 8 0 14 5 14 10 0 6 -9 10 -21 10 -11
0 -17 -4 -14 -10z"/>
<path d="M6255 5660 c3 -5 13 -10 21 -10 8 0 14 5 14 10 0 6 -9 10 -21 10 -11
0 -17 -4 -14 -10z"/>
<path d="M4306 5525 c-3 -9 0 -15 9 -15 16 0 20 16 6 24 -5 3 -11 -1 -15 -9z"/>
<path d="M4367 5506 c-4 -9 0 -13 11 -12 9 2 18 8 20 14 5 17 -25 15 -31 -2z"/>
<path d="M3875 5470 c-7 -12 2 -12 30 0 19 8 19 9 -2 9 -12 1 -25 -3 -28 -9z"/>
<path d="M3816 5450 c-18 -6 -18 -7 -2 -13 10 -4 25 -3 33 1 21 12 -5 22 -31
12z"/>
<path d="M3636 5429 c-31 -9 -184 -93 -215 -119 -14 -13 -21 -27 -18 -39 3
-14 0 -17 -13 -14 -14 4 -17 -1 -15 -21 6 -53 31 -61 71 -21 14 14 29 25 34
25 4 0 27 23 50 51 58 68 121 99 204 99 36 0 77 -5 91 -10 21 -8 31 -6 51 9
l24 19 -28 7 c-42 11 -209 21 -236 14z"/>
<path d="M3915 5393 c-27 -7 -46 -23 -39 -34 3 -5 2 -9 -3 -9 -4 0 -19 -3 -33
-6 -21 -5 -22 -4 -10 6 13 10 12 11 -3 6 -11 -3 -30 -9 -43 -12 -31 -8 -25
-30 6 -26 13 1 27 -3 32 -10 6 -10 8 -10 8 0 0 6 6 12 14 12 7 0 19 7 26 15 7
8 28 15 47 15 20 0 32 4 28 10 -8 14 21 24 43 15 11 -5 13 -9 5 -12 -25 -9
-12 -23 21 -23 19 0 38 -4 41 -10 3 -5 15 -10 26 -10 10 0 19 -5 19 -11 0 -5
4 -8 9 -5 5 4 30 -3 55 -14 26 -11 49 -19 51 -19 17 2 73 -15 93 -27 12 -8 22
-12 22 -8 0 3 10 0 23 -8 12 -8 34 -18 50 -22 37 -9 35 -29 -3 -24 -17 3 -33
1 -36 -4 -5 -7 10 -12 29 -9 4 0 7 -6 7 -14 0 -21 16 -19 39 6 l19 21 -4 -36
c-3 -41 7 -40 29 2 8 15 27 49 42 76 26 46 27 48 6 37 -31 -17 -287 36 -457
94 -72 25 -133 44 -135 44 -2 -1 -13 -4 -24 -6z"/>
<path d="M6741 5373 c0 -16 3 -22 6 -15 2 6 9 9 15 6 6 -4 5 2 -1 15 -16 28
-21 26 -20 -6z"/>
<path d="M6806 5365 c-3 -8 -12 -15 -21 -15 -20 0 -19 -16 1 -24 22 -8 24 -8
22 7 -2 6 3 11 10 10 6 -2 12 3 12 11 0 21 -17 29 -24 11z"/>
<path d="M5743 5353 c15 -2 39 -2 55 0 15 2 2 4 -28 4 -30 0 -43 -2 -27 -4z"/>
<path d="M6872 5339 c-7 -11 -17 -17 -22 -14 -6 3 -15 3 -22 -1 -8 -5 -6 -10
8 -14 23 -9 64 8 64 26 0 22 -15 24 -28 3z"/>
<path d="M5730 5333 c-8 -3 -18 -11 -22 -16 -4 -7 -11 -7 -20 0 -7 6 -22 7
-33 3 -27 -10 -75 -59 -75 -76 0 -8 -4 -14 -9 -14 -5 0 -11 -7 -14 -14 -4 -11
-1 -13 11 -9 15 6 15 5 3 -11 -10 -11 -24 -16 -42 -14 -24 4 -26 2 -19 -16 4
-12 5 -27 2 -35 -3 -9 6 -6 27 8 17 12 31 27 31 33 0 6 9 8 19 5 13 -3 18 -1
14 9 -7 20 103 50 123 33 12 -10 15 -10 12 1 -4 18 31 25 46 10 8 -8 7 -10 -5
-5 -10 4 -20 2 -24 -4 -4 -7 4 -11 19 -11 17 0 26 -6 26 -16 0 -12 7 -10 31
10 46 39 130 61 229 60 75 -1 95 -6 173 -39 48 -20 87 -41 87 -45 0 -4 -9 -15
-20 -25 -11 -10 -20 -25 -20 -34 0 -11 8 -7 23 13 15 19 29 27 40 23 9 -3 18
1 22 11 6 16 7 16 16 0 6 -10 14 -18 20 -18 5 0 4 9 -3 20 -16 25 -4 37 17 17
9 -9 16 -19 15 -22 0 -3 2 -5 5 -5 3 0 10 0 17 0 6 0 1 11 -12 25 -13 14 -19
25 -12 25 14 0 53 -50 47 -61 -3 -4 -11 -6 -18 -3 -7 2 -13 -6 -13 -21 -1 -14
1 -25 5 -25 10 0 46 44 43 53 -3 10 16 9 22 -2 4 -6 74 -23 93 -22 2 0 21 -6
43 -14 25 -9 42 -10 46 -4 3 6 24 7 52 3 26 -4 53 -7 60 -7 6 0 12 -4 12 -9 0
-4 -5 -8 -12 -8 -9 0 -9 -3 0 -12 8 -8 15 -8 28 3 16 12 17 12 11 -4 -5 -13 0
-20 16 -26 12 -5 22 -12 22 -17 0 -5 6 -8 13 -6 6 2 12 -1 12 -6 0 -14 -32
-25 -39 -14 -3 5 -15 6 -26 1 -18 -7 -18 -8 -2 -8 11 -1 31 -11 45 -22 l27
-22 -30 6 c-16 3 -46 2 -65 -3 -19 -4 -27 -8 -16 -9 12 -1 16 -6 13 -16 -4 -8
-2 -17 3 -20 6 -4 10 1 10 10 0 12 4 14 17 6 10 -5 18 -15 19 -23 0 -7 2 -23
2 -36 1 -13 6 -21 12 -17 6 4 6 15 0 30 -7 19 -6 25 4 25 8 0 16 -7 20 -15 3
-8 12 -15 21 -15 22 0 18 -23 -7 -40 -24 -15 -29 -17 -52 -19 -8 0 -21 -7 -28
-14 -21 -21 -56 -18 -73 6 -9 13 -15 16 -15 7 0 -9 -8 -6 -24 9 -14 13 -29 20
-35 17 -5 -4 -12 -2 -16 4 -3 5 -11 10 -17 10 -6 0 15 -19 46 -42 37 -27 55
-47 51 -56 -4 -12 -2 -12 8 -4 11 9 24 2 61 -33 26 -25 44 -50 41 -55 -3 -6
-4 -10 -1 -10 4 0 36 58 36 67 0 1 -7 3 -15 3 -9 0 -18 7 -22 16 -3 8 -11 13
-19 10 -7 -3 -14 0 -17 7 -2 6 19 22 46 34 27 13 58 33 69 45 15 17 18 19 14
6 -8 -28 2 -21 18 11 9 16 12 31 9 34 -3 4 2 9 11 13 9 4 30 34 46 69 38 81
39 87 15 90 -11 1 -49 20 -84 43 -68 45 -76 48 -86 32 -3 -5 -11 -10 -18 -10
-6 0 -3 6 7 13 21 15 18 18 -58 61 -29 17 -47 23 -44 15 3 -8 -6 -22 -20 -31
-22 -15 -28 -15 -47 -2 -13 8 -27 14 -31 13 -5 -2 -29 3 -54 10 -25 7 -52 15
-60 16 -8 2 -16 4 -17 5 -3 3 -3 3 -48 15 -16 4 -36 12 -42 18 -9 6 -13 6 -13
-2 0 -6 -10 -9 -22 -7 -71 14 -93 16 -78 5 12 -9 11 -10 -5 -4 -11 4 -38 8
-60 9 -58 4 -272 34 -399 57 -116 20 -122 21 -146 12z m-40 -47 c0 -3 -4 -8
-10 -11 -5 -3 -10 -1 -10 4 0 6 5 11 10 11 6 0 10 -2 10 -4z m1085 -155 c-18
-7 -55 -4 -55 5 0 2 17 4 38 3 28 0 32 -2 17 -8z m155 -131 c0 -5 -10 -10 -22
-9 -22 0 -22 1 -3 9 11 5 21 9 23 9 1 1 2 -3 2 -9z m-49 -57 c12 -16 12 -17
-2 -6 -9 7 -19 10 -22 6 -4 -3 -7 -1 -7 5 0 17 16 15 31 -5z m53 -5 c-5 -8 -2
-9 11 -4 15 5 16 4 5 -9 -7 -8 -19 -15 -27 -15 -11 0 -11 4 -3 20 6 11 13 20
16 20 3 0 2 -5 -2 -12z"/>
<path d="M4728 5323 c7 -3 16 -2 19 1 4 3 -2 6 -13 5 -11 0 -14 -3 -6 -6z"/>
<path d="M6938 5310 c-13 -21 -34 -27 -40 -11 -1 5 -9 3 -16 -5 -11 -12 -9
-14 10 -15 13 -1 28 0 33 1 6 2 18 2 28 2 10 0 17 7 17 18 0 28 -18 34 -32 10z"/>
<path d="M3970 5279 c0 -6 -10 -9 -23 -7 -14 3 -24 0 -24 -7 0 -8 16 -12 39
-12 29 0 36 3 28 12 -5 6 -7 15 -3 18 3 4 1 7 -5 7 -7 0 -12 -5 -12 -11z"/>
<path d="M3877 5269 c7 -7 15 -10 18 -7 3 3 -2 9 -12 12 -14 6 -15 5 -6 -5z"/>
<path d="M4027 5266 c-14 -11 -15 -15 -4 -24 9 -8 17 -8 27 0 12 8 12 9 -2 4
-26 -8 -22 9 5 22 13 6 16 11 7 11 -8 0 -23 -6 -33 -13z"/>
<path d="M4095 5233 c-19 -10 -25 -18 -16 -21 7 -2 23 5 34 17 25 25 22 26
-18 4z"/>
<path d="M3340 5200 c0 -11 2 -20 5 -20 2 0 9 9 15 20 9 16 8 20 -5 20 -8 0
-15 -9 -15 -20z"/>
<path d="M4174 5185 c8 -8 23 -15 33 -15 10 0 25 -9 32 -19 8 -11 20 -17 27
-14 9 3 11 -2 7 -16 -5 -21 11 -29 22 -11 11 18 26 10 23 -12 -2 -17 3 -24 20
-26 26 -4 20 -22 -9 -22 -10 0 -19 7 -19 15 0 8 -8 15 -18 15 -10 0 -23 5 -30
12 -8 8 -12 8 -12 1 0 -14 66 -64 74 -56 3 4 6 -1 6 -10 0 -11 8 -17 21 -17
12 0 23 -8 26 -20 3 -11 10 -17 15 -14 5 3 7 12 4 20 -3 8 -1 14 4 14 6 0 10
6 10 14 0 8 5 16 11 18 9 3 9 9 0 25 -7 15 -8 24 -1 28 12 7 4 25 -11 25 -5 0
-9 -8 -9 -17 0 -11 -3 -14 -8 -7 -4 6 -17 14 -30 18 -12 4 -20 12 -16 17 3 5
2 9 -3 8 -20 -3 -27 2 -13 10 10 7 3 9 -22 7 -29 -2 -42 2 -57 20 -15 17 -32
24 -57 24 -31 0 -34 -2 -20 -15z m186 -85 c0 -5 -5 -10 -11 -10 -5 0 -7 5 -4
10 3 6 8 10 11 10 2 0 4 -4 4 -10z m40 -59 c-5 -11 -19 -19 -30 -18 -26 2 -25
10 3 23 33 17 39 16 27 -5z"/>
<path d="M5714 5186 c-10 -8 -16 -18 -12 -22 5 -4 16 0 25 8 10 9 25 18 33 21
11 4 9 6 -6 6 -11 1 -29 -5 -40 -13z"/>
<path d="M7057 5166 c10 -5 21 -14 24 -19 4 -5 12 -1 17 10 10 17 7 19 -24 19
-28 0 -31 -2 -17 -10z"/>
<path d="M4366 5147 c3 -10 9 -15 12 -12 3 3 0 11 -7 18 -10 9 -11 8 -5 -6z"/>
<path d="M5670 5150 c4 -3 10 -14 14 -26 5 -16 -2 -29 -24 -51 -29 -29 -30
-30 -8 -26 28 5 136 99 126 109 -4 4 -15 1 -25 -7 -9 -8 -14 -9 -10 -3 4 7 -8
11 -37 10 -24 -1 -41 -3 -36 -6z"/>
<path d="M6358 5133 c-17 -4 -14 -33 4 -33 5 0 7 4 4 9 -4 5 0 11 6 14 18 6 6
14 -14 10z"/>
<path d="M6414 5121 c0 -11 4 -17 8 -15 4 3 8 12 8 20 0 8 -4 14 -8 14 -4 0
-8 -9 -8 -19z"/>
<path d="M7144 5133 c10 -11 37 -12 30 -2 -3 5 -12 9 -21 9 -9 0 -13 -3 -9 -7z"/>
<path d="M5565 5120 c-3 -5 -1 -10 4 -10 6 0 11 5 11 10 0 6 -2 10 -4 10 -3 0
-8 -4 -11 -10z"/>
<path d="M5625 5121 c-3 -5 -2 -12 3 -15 5 -3 9 1 9 9 0 17 -3 19 -12 6z"/>
<path d="M5530 5101 c0 -10 19 -25 25 -20 1 2 -3 10 -11 17 -8 7 -14 8 -14 3z"/>
<path d="M6311 5091 c-7 -5 -11 -15 -9 -22 3 -10 8 -7 17 9 13 24 12 26 -8 13z"/>
<path d="M6367 5082 c-10 -11 -14 -23 -9 -26 12 -7 35 19 30 34 -2 7 -11 3
-21 -8z"/>
<path d="M6405 5080 c3 -5 8 -10 11 -10 2 0 4 5 4 10 0 6 -5 10 -11 10 -5 0
-7 -4 -4 -10z"/>
<path d="M3664 5071 c3 -4 25 -11 48 -14 24 -3 77 -17 117 -31 86 -29 104 -28
34 2 -69 29 -209 60 -199 43z"/>
<path d="M6462 5046 c0 -11 2 -16 6 -10 4 6 14 13 22 16 11 3 9 6 -6 10 -15 4
-20 0 -22 -16z"/>
<path d="M6425 5050 c-4 -6 -11 -8 -16 -5 -5 3 -6 -1 -3 -9 9 -23 34 -20 34 4
0 22 -5 26 -15 10z"/>
<path d="M6520 5056 c0 -9 30 -14 35 -6 4 6 -3 10 -14 10 -12 0 -21 -2 -21 -4z"/>
<path d="M6290 5046 c0 -7 54 -29 65 -27 11 2 -1 15 -15 17 -8 1 -23 5 -32 9
-10 4 -18 4 -18 1z"/>
<path d="M4814 5005 c5 -20 3 -23 -10 -18 -14 5 -15 3 -5 -15 10 -19 9 -22 -6
-22 -13 0 -14 -3 -5 -12 18 -18 14 -27 -9 -21 -19 5 -20 4 -10 -16 10 -18 9
-21 -6 -21 -13 0 -14 -3 -5 -12 18 -18 14 -27 -10 -20 -23 5 -23 5 -4 -16 15
-17 16 -22 5 -22 -8 0 -20 5 -27 12 -15 15 -16 3 -1 -24 10 -18 8 -19 -11 -13
-19 6 -21 4 -15 -15 5 -15 4 -20 -4 -16 -6 4 -11 3 -11 -3 0 -5 5 -13 10 -16
25 -15 6 -22 -25 -9 -32 13 -50 4 -23 -12 8 -5 7 -9 -4 -13 -13 -5 -8 -15 24
-51 41 -46 57 -44 58 8 0 12 5 22 11 22 7 0 5 10 -5 25 -17 26 -17 26 11 19
l28 -7 -20 23 -20 23 23 -12 c17 -9 22 -9 22 2 0 7 -6 19 -12 26 -11 11 -9 12
10 6 21 -6 23 -5 17 16 -6 18 -4 21 9 16 17 -7 22 8 6 18 -18 11 -10 23 13 18
18 -5 20 -3 10 8 -19 19 -16 28 6 22 16 -4 19 -1 14 16 -3 13 -1 21 6 21 7 0
9 5 6 10 -3 6 1 10 9 10 9 0 16 4 16 9 0 5 3 16 6 24 3 9 -7 22 -29 36 -44 27
-51 26 -43 -4z"/>
<path d="M6478 5016 c-23 -17 -23 -25 1 -19 11 3 22 11 25 19 7 17 -4 17 -26
0z"/>
<path d="M6580 5011 c-13 -25 -13 -31 0 -31 6 0 10 7 10 15 0 9 10 20 23 25
l22 9 -22 0 c-12 1 -27 -8 -33 -18z"/>
<path d="M6768 5023 c7 -3 16 -2 19 1 4 3 -2 6 -13 5 -11 0 -14 -3 -6 -6z"/>
<path d="M6370 5006 c0 -2 7 -7 16 -10 8 -3 12 -2 9 4 -6 10 -25 14 -25 6z"/>
<path d="M6520 4980 c-8 -16 -8 -20 4 -20 19 0 32 20 14 21 -7 0 -4 4 7 9 17
7 17 9 3 9 -10 1 -22 -8 -28 -19z"/>
<path d="M6655 4992 c-5 -4 -17 -16 -25 -26 -14 -18 -14 -19 8 -5 12 8 22 17
22 21 0 3 8 9 18 11 12 3 13 5 2 6 -8 0 -19 -3 -25 -7z"/>
<path d="M6760 4980 c-9 -6 -10 -10 -3 -10 6 0 15 5 18 10 8 12 4 12 -15 0z"/>
<path d="M3623 4942 c-17 -15 -46 -36 -66 -46 -33 -19 -34 -21 -20 -42 16 -24
11 -44 -11 -44 -7 0 -21 -9 -30 -19 -17 -18 -16 -19 13 -26 19 -4 54 -32 99
-81 49 -52 77 -74 93 -74 13 0 94 -1 181 -3 150 -2 189 4 158 23 -9 6 -17 5
-22 -3 -10 -16 -20 -3 -12 17 3 9 10 13 15 10 5 -3 9 2 9 11 0 12 -5 15 -16
11 -9 -3 -18 -6 -20 -6 -3 0 -2 -4 1 -10 3 -5 4 -10 1 -10 -2 0 -18 21 -34 48
-47 74 -220 244 -266 262 -38 14 -40 13 -73 -18z"/>
<path d="M3980 4956 c0 -2 7 -7 16 -10 8 -3 12 -2 9 4 -6 10 -25 14 -25 6z"/>
<path d="M6691 4938 c-22 -23 -22 -59 -1 -66 7 -3 10 0 6 6 -3 6 -2 13 4 17
17 10 11 25 -7 19 -15 -5 -15 -3 1 10 11 9 23 16 28 16 4 0 8 5 8 10 0 17 -18
11 -39 -12z"/>
<path d="M6631 4941 c-7 -5 -12 -14 -10 -20 3 -6 9 -7 18 -2 7 5 12 14 10 20
-3 6 -9 7 -18 2z"/>
<path d="M4028 4928 c20 -26 106 -78 128 -78 10 0 -9 16 -44 34 -35 19 -71 40
-80 48 -15 12 -16 11 -4 -4z"/>
<path d="M4913 4925 c-18 -20 -16 -31 7 -32 15 -1 20 4 20 23 0 27 -9 30 -27
9z"/>
<path d="M6747 4916 c-26 -30 -30 -66 -6 -66 9 0 20 7 23 16 9 24 8 26 -16 19
-19 -5 -16 0 12 24 19 17 29 31 22 31 -8 0 -23 -11 -35 -24z"/>
<path d="M6785 4900 c-3 -5 -3 -14 0 -20 3 -5 1 -10 -5 -10 -7 0 -8 -6 -2 -17
5 -10 7 -24 5 -30 -6 -15 13 -17 22 -3 3 6 15 10 26 10 17 0 19 4 13 23 -4 12
-7 28 -7 35 0 6 -5 12 -10 12 -5 0 -7 -6 -4 -13 3 -7 -4 -19 -15 -26 -18 -11
-18 -10 -8 10 10 17 9 20 -1 14 -9 -6 -11 -3 -6 8 7 19 2 23 -8 7z"/>
<path d="M2945 4870 c-3 -5 -2 -10 4 -10 5 0 13 5 16 10 3 6 2 10 -4 10 -5 0
-13 -4 -16 -10z"/>
<path d="M4872 4828 c-14 -14 -16 -28 -3 -28 5 0 11 9 14 20 6 23 5 24 -11 8z"/>
<path d="M4540 4812 c0 -4 10 -13 23 -21 22 -14 22 -14 3 8 -20 22 -26 25 -26
13z"/>
<path d="M7730 4801 c0 -11 -4 -22 -9 -25 -4 -3 -6 -17 -3 -31 2 -15 0 -25 -7
-25 -6 0 -11 -7 -11 -15 0 -8 -4 -15 -9 -15 -5 0 -11 -10 -15 -23 -3 -13 -16
-35 -29 -49 -13 -13 -22 -29 -20 -35 4 -12 -19 -38 -39 -46 -10 -3 -10 -7 -1
-17 8 -9 21 1 56 45 79 100 130 230 98 249 -7 4 -11 -1 -11 -13z"/>
<path d="M3095 4800 c-12 -5 24 -7 88 -5 60 2 111 6 115 9 9 9 -181 5 -203 -4z"/>
<path d="M6220 4801 c0 -6 7 -11 15 -11 8 0 15 -5 15 -11 0 -5 4 -8 10 -4 9 6
196 -67 283 -112 50 -25 80 -26 34 -1 -14 7 -49 27 -79 45 -89 53 -278 117
-278 94z"/>
<path d="M4371 4768 c-31 -34 -27 -48 14 -48 11 0 32 -8 45 -17 14 -10 46 -28
72 -40 62 -28 88 -56 88 -93 0 -33 11 -38 30 -15 20 24 28 18 28 -24 1 -50 20
-90 33 -70 6 10 9 11 9 1 0 -7 -12 -17 -26 -22 -35 -14 -44 -13 -38 4 3 8 1
17 -5 21 -6 3 -11 15 -11 26 0 10 -4 19 -10 19 -5 0 -10 -11 -10 -24 0 -23
-57 -104 -93 -134 -14 -12 -19 -10 -39 12 -23 27 -155 88 -241 112 -26 7 -52
16 -57 19 -15 9 -70 -4 -70 -17 0 -6 6 -8 14 -5 8 3 16 -2 19 -13 3 -11 16
-20 33 -22 29 -3 47 -28 20 -28 -22 0 -20 -13 4 -28 17 -10 18 -15 8 -32 -16
-26 -28 -26 -21 0 5 17 1 20 -26 17 -17 -1 -31 -5 -31 -10 0 -4 0 -13 0 -21 0
-7 10 -17 23 -21 13 -4 17 -8 9 -12 -6 -2 -9 -9 -6 -14 3 -6 12 -5 22 3 9 7
13 8 9 2 -10 -17 42 -37 59 -23 8 7 17 9 21 6 3 -4 -2 -9 -11 -13 -9 -3 -13
-10 -10 -15 7 -13 3 -12 -60 12 -32 12 -53 26 -49 32 3 5 2 7 -4 4 -6 -4 -41
0 -79 8 -38 8 -98 15 -132 15 -67 0 -170 -24 -187 -43 -5 -7 -19 -14 -30 -15
-28 -5 -29 -9 -6 -15 13 -3 31 4 48 19 15 13 36 24 46 24 10 0 27 5 38 11 18
9 19 8 11 -8 -6 -10 -20 -25 -31 -33 -12 -8 -21 -18 -21 -22 0 -21 -39 -45
-64 -41 -17 4 -26 1 -26 -7 0 -7 8 -10 20 -7 10 3 21 0 23 -7 4 -10 77 55 77
69 0 19 57 60 86 61 18 0 31 -3 28 -8 -3 -4 2 -8 10 -8 9 0 16 5 16 10 0 6 5
10 10 10 19 0 10 -19 -27 -54 -44 -42 -69 -49 -29 -9 l28 27 -27 9 c-25 9 -33
4 -90 -56 -59 -62 -63 -65 -108 -63 -30 1 -47 5 -47 14 0 6 5 12 10 12 6 0 10
6 10 14 0 8 6 17 13 19 8 4 7 6 -3 6 -9 1 -24 -12 -33 -29 -10 -16 -23 -30
-28 -30 -6 0 -8 -4 -5 -8 3 -5 21 -8 41 -7 37 1 42 -4 23 -23 -6 -6 -8 -15 -4
-19 4 -4 16 3 26 17 10 14 21 23 23 20 3 -3 -3 -15 -12 -26 -14 -17 -27 -21
-64 -20 -49 1 -54 5 -35 24 6 6 9 15 5 18 -6 6 -57 -40 -57 -50 0 -2 18 -3 40
-2 27 2 40 -2 40 -11 0 -9 -9 -11 -30 -6 -20 4 -30 2 -30 -7 0 -7 8 -10 20 -7
10 3 21 0 24 -7 3 -7 12 -2 22 12 9 12 21 22 26 22 5 0 -1 -13 -13 -30 -16
-20 -26 -27 -34 -20 -13 11 -62 -37 -50 -48 3 -4 15 4 26 18 16 21 20 23 29
10 9 -13 13 -11 30 10 11 14 20 21 20 15 0 -9 -9 -21 -71 -93 -23 -26 -25 -44
-4 -36 8 4 15 1 15 -6 0 -8 -9 -10 -25 -6 -18 5 -27 2 -31 -9 -4 -8 -12 -15
-20 -15 -8 0 -4 10 11 26 33 36 32 41 -10 39 -19 0 -35 3 -35 7 0 4 -7 8 -15
8 -8 0 -15 -6 -15 -13 0 -9 12 -13 35 -12 19 0 35 -2 35 -6 0 -14 -43 -44 -60
-41 -10 2 -22 -2 -26 -9 -5 -9 -1 -10 14 -7 12 4 22 2 22 -4 0 -5 10 -6 23 -2
21 6 21 6 5 -13 -22 -24 -23 -37 -3 -29 8 3 15 3 15 1 0 -8 -39 -45 -47 -45
-4 0 -2 5 5 12 13 13 16 28 5 28 -13 0 -76 -81 -68 -88 3 -4 15 4 26 18 13 16
22 21 25 13 3 -7 12 -9 20 -6 8 3 14 0 14 -7 0 -8 -9 -10 -25 -6 -18 5 -27 2
-31 -8 -6 -16 -61 -19 -70 -4 -7 10 -24 1 -24 -14 0 -5 7 -8 15 -4 8 3 15 1
15 -5 0 -6 9 -7 22 -3 21 6 21 5 -5 -25 -22 -27 -25 -35 -15 -51 12 -19 14
-18 42 8 16 15 26 22 22 15 -4 -8 7 -13 36 -15 36 -2 53 3 102 36 33 22 71 51
85 65 14 15 44 40 65 56 22 17 57 49 79 72 23 25 51 44 70 48 18 4 43 14 57
23 l25 15 -20 -23 c-11 -12 -36 -30 -55 -40 -47 -24 -68 -49 -77 -91 -5 -29
-4 -32 8 -22 18 14 117 39 189 48 82 9 114 16 104 24 -5 3 -19 20 -31 38 l-23
32 33 19 c17 11 55 23 84 27 37 5 52 11 56 25 3 10 18 21 38 25 19 5 28 10 20
13 -8 3 -27 18 -43 34 -23 24 -36 29 -60 26 -55 -8 -3 20 61 33 31 6 66 19 77
28 153 118 184 144 184 155 0 7 9 21 21 32 17 15 41 20 118 24 96 5 96 5 99
32 2 19 -5 36 -22 53 l-25 25 50 21 c27 12 49 25 49 30 0 14 -54 -2 -67 -20
-6 -9 -13 -14 -15 -11 -4 7 -38 69 -55 103 -12 23 -60 58 -78 57 -3 0 -13 8
-23 18 -70 66 -154 132 -170 132 -6 0 -25 -14 -41 -32z m-149 -370 c-9 -9 -12
-7 -12 12 0 19 3 21 12 12 9 -9 9 -15 0 -24z m383 22 c-3 -5 -11 -10 -16 -10
-6 0 -7 5 -4 10 3 6 11 10 16 10 6 0 7 -4 4 -10z m-325 -40 c0 -5 -4 -10 -10
-10 -5 0 -10 5 -10 10 0 6 5 10 10 10 6 0 10 -4 10 -10z m60 -21 c0 -5 -4 -9
-10 -9 -5 0 -10 7 -10 16 0 8 5 12 10 9 6 -3 10 -10 10 -16z m-90 -18 c0 -10
-25 -21 -48 -21 -12 1 -10 5 8 15 29 17 40 18 40 6z m130 -11 c0 -5 -5 -10
-11 -10 -5 0 -7 5 -4 10 3 6 8 10 11 10 2 0 4 -4 4 -10z m-90 -20 c0 -5 -5
-10 -11 -10 -5 0 -7 5 -4 10 3 6 8 10 11 10 2 0 4 -4 4 -10z m-252 -31 c2 -4
10 -5 18 -2 8 3 14 2 14 -1 0 -12 -59 -71 -64 -65 -3 3 4 16 15 28 12 12 18
25 14 29 -4 4 -18 -6 -31 -21 -19 -23 -28 -26 -38 -18 -11 9 -18 8 -29 -4 -9
-8 -20 -15 -26 -15 -6 0 6 16 25 36 20 19 39 32 43 28 3 -4 0 -9 -6 -11 -17
-6 -17 -23 0 -23 7 0 18 9 25 20 10 17 10 20 -2 20 -8 0 -18 5 -22 11 -4 8 4
9 27 4 19 -4 35 -11 37 -16z m167 3 c-3 -3 -11 0 -18 7 -9 10 -8 11 6 5 10 -3
15 -9 12 -12z m-315 -10 c0 -13 -39 -46 -46 -40 -3 4 3 16 13 27 18 22 33 27
33 13z m204 -24 c-24 -28 -47 -47 -57 -48 -4 0 7 16 24 35 35 38 64 49 33 13z
m30 -10 c-29 -35 -57 -59 -62 -54 -4 5 66 76 75 76 4 0 -2 -10 -13 -22z m16
-33 c-19 -19 -38 -35 -43 -35 -5 0 2 12 17 26 14 15 26 31 26 35 0 5 8 9 17 9
13 0 8 -9 -17 -35z m145 25 c3 -5 1 -10 -4 -10 -6 0 -11 5 -11 10 0 6 2 10 4
10 3 0 8 -4 11 -10z m-85 -5 c0 -9 -38 -43 -43 -38 -6 6 24 43 35 43 5 0 8 -2
8 -5z m-370 -15 c0 -5 -5 -10 -11 -10 -5 0 -7 5 -4 10 3 6 8 10 11 10 2 0 4
-4 4 -10z m393 -7 c-21 -8 -14 -26 8 -20 17 5 18 3 8 -9 -8 -10 -16 -11 -22
-5 -5 5 -16 7 -23 4 -8 -3 -14 -2 -14 2 0 10 32 34 45 34 6 0 4 -3 -2 -6z
m-508 -123 c-10 -11 -22 -20 -28 -20 -5 0 1 11 14 24 28 29 40 25 14 -4z m15
-20 c0 -5 -5 -10 -11 -10 -5 0 -7 5 -4 10 3 6 8 10 11 10 2 0 4 -4 4 -10z
m-20 -30 c0 -5 -5 -10 -11 -10 -5 0 -7 5 -4 10 3 6 8 10 11 10 2 0 4 -4 4 -10z
m-10 -31 c13 -9 12 -10 -3 -5 -11 3 -22 -2 -29 -14 -7 -11 -16 -20 -21 -20 -8
0 24 49 33 50 3 0 12 -5 20 -11z m66 -51 c-9 -12 -16 -19 -16 -15 0 11 24 47
28 42 2 -2 -3 -14 -12 -27z m-126 -8 c0 -5 -5 -10 -11 -10 -5 0 -7 5 -4 10 3
6 8 10 11 10 2 0 4 -4 4 -10z m150 -4 c0 -3 -4 -8 -10 -11 -5 -3 -10 -1 -10 4
0 6 5 11 10 11 6 0 10 -2 10 -4z m-56 -28 c-3 -4 -11 -5 -19 -1 -21 7 -19 12
4 10 11 0 18 -5 15 -9z m-144 -28 c0 -5 -5 -10 -11 -10 -5 0 -7 5 -4 10 3 6 8
10 11 10 2 0 4 -4 4 -10z m30 -10 c0 -5 -4 -10 -10 -10 -5 0 -10 5 -10 10 0 6
5 10 10 10 6 0 10 -4 10 -10z m-50 -21 c0 -5 5 -7 10 -4 6 3 10 1 10 -5 0 -7
-7 -9 -16 -6 -9 3 -20 6 -25 6 -6 0 -7 5 -4 10 8 13 25 13 25 -1z m0 -39 c0
-5 -4 -10 -10 -10 -5 0 -10 5 -10 10 0 6 5 10 10 10 6 0 10 -4 10 -10z m40
-10 c12 -7 10 -9 -8 -7 -12 0 -22 5 -22 9 0 11 12 10 30 -2z m-70 -20 c0 -5
-5 -10 -11 -10 -5 0 -7 5 -4 10 3 6 8 10 11 10 2 0 4 -4 4 -10z m-50 -59 c0
-5 -7 -12 -16 -15 -14 -5 -15 -4 -4 9 14 17 20 19 20 6z m0 -41 c0 -5 -5 -10
-11 -10 -5 0 -7 5 -4 10 3 6 8 10 11 10 2 0 4 -4 4 -10z m-60 -30 c-8 -5 -17
-7 -19 -4 -3 3 1 9 9 14 8 5 17 7 19 4 3 -3 -1 -9 -9 -14z"/>
<path d="M6890 4792 c-24 -11 -19 -48 5 -44 28 5 37 16 29 35 -7 18 -11 19
-34 9z"/>
<path d="M4510 4770 c6 -11 13 -20 16 -20 2 0 0 9 -6 20 -6 11 -13 20 -16 20
-2 0 0 -9 6 -20z"/>
<path d="M7298 4768 c3 -14 2 -19 -6 -14 -8 5 -12 0 -12 -13 0 -11 8 -25 18
-31 14 -8 12 -9 -10 -4 -28 6 -39 -8 -17 -22 8 -4 7 -9 -2 -14 -10 -7 -10 -12
2 -26 13 -16 12 -16 -8 -5 -27 14 -29 4 -7 -28 16 -23 16 -23 -6 -11 -27 14
-35 8 -21 -18 9 -18 8 -19 -10 -15 -18 5 -20 3 -15 -15 6 -17 4 -19 -16 -14
-20 5 -21 3 -10 -10 10 -13 10 -17 0 -21 -11 -3 -10 -9 1 -28 10 -19 10 -21 0
-11 -21 19 -39 14 -50 -15 -8 -22 -5 -33 18 -67 21 -31 28 -37 31 -23 2 9 12
17 23 17 17 0 18 3 9 20 -8 15 -8 20 1 20 7 0 9 9 5 25 -5 20 -3 23 11 18 17
-7 17 -6 0 20 -21 32 -22 44 -2 27 19 -16 34 -5 17 12 -19 19 -14 30 8 18 23
-13 28 7 8 29 -11 11 -9 11 10 2 21 -11 22 -10 16 14 -5 21 -3 24 11 19 15 -6
16 -4 5 16 -11 20 -10 22 4 17 20 -8 20 -3 -1 31 -10 17 -11 22 -3 15 20 -19
32 -16 25 6 -5 16 -2 18 16 14 18 -5 21 -3 16 11 -4 9 -3 14 2 11 5 -3 13 0
17 6 8 13 -44 58 -68 59 -12 0 -15 -6 -10 -22z"/>
<path d="M7695 4779 c-4 -6 -5 -12 -2 -15 2 -3 7 2 10 11 7 17 1 20 -8 4z"/>
<path d="M6098 4769 c-8 -5 -25 -32 -38 -61 -12 -29 -28 -60 -36 -69 -12 -14
-11 -18 6 -34 11 -10 20 -24 20 -31 0 -15 -38 -27 -83 -27 -18 0 -23 -3 -15
-9 11 -6 11 -10 0 -16 -9 -6 3 -16 40 -32 29 -12 100 -56 158 -98 112 -80 163
-107 183 -96 27 15 61 52 93 99 18 28 43 62 54 78 l22 27 -69 68 c-37 38 -84
80 -104 93 -20 13 -61 41 -92 61 -62 41 -116 60 -139 47z"/>
<path d="M4590 4766 c0 -2 8 -10 18 -17 15 -13 16 -12 3 4 -13 16 -21 21 -21
13z"/>
<path d="M4825 4738 l-16 -33 20 25 c20 24 26 40 16 40 -2 0 -12 -15 -20 -32z"/>
<path d="M7512 4761 c-11 -7 -10 -10 3 -15 20 -7 38 1 30 15 -7 11 -16 11 -33
0z"/>
<path d="M4797 4693 c-4 -3 -7 -13 -7 -22 1 -13 3 -13 11 2 11 19 8 33 -4 20z"/>
<path d="M7467 4653 c18 -28 28 -31 14 -4 -6 10 -8 20 -6 23 3 3 -1 5 -9 5
-12 0 -12 -4 1 -24z"/>
<path d="M4759 4610 c-7 -23 -20 -42 -31 -46 -10 -3 -16 -10 -13 -15 9 -13 38
-11 59 4 16 11 17 17 7 36 -9 16 -9 26 -1 36 7 9 7 15 1 19 -6 4 -15 -11 -22
-34z"/>
<path d="M2950 4624 c-14 -8 -31 -12 -38 -9 -7 3 -10 0 -7 -5 3 -6 -3 -10 -14
-10 -11 0 -28 -11 -39 -25 -11 -14 -29 -25 -41 -25 -24 0 -26 -12 -9 -43 27
-49 23 -51 -84 -62 -117 -11 -131 -22 -27 -22 93 1 96 0 159 -39 35 -21 93
-66 129 -99 36 -33 80 -70 96 -81 32 -23 79 -38 69 -23 -3 5 1 16 8 24 7 8 18
20 23 27 6 8 38 46 73 85 34 39 62 74 62 78 0 4 -17 23 -39 43 -117 112 -247
204 -283 201 -7 -1 -24 -7 -38 -15z"/>
<path d="M5088 4633 c6 -2 18 -2 25 0 6 3 1 5 -13 5 -14 0 -19 -2 -12 -5z"/>
<path d="M7506 4601 c-4 -5 -2 -12 3 -15 5 -4 12 -2 15 3 4 5 2 12 -3 15 -5 4
-12 2 -15 -3z"/>
<path d="M3783 4573 c9 -2 23 -2 30 0 6 3 -1 5 -18 5 -16 0 -22 -2 -12 -5z"/>
<path d="M6924 4548 c-4 -7 -9 -27 -11 -45 -3 -31 -1 -33 71 -68 41 -19 77
-43 80 -52 4 -8 4 -32 0 -52 -5 -30 -4 -34 7 -23 17 16 29 15 29 -3 0 -10 10
-14 35 -13 l34 1 -21 31 c-12 17 -28 35 -35 39 -7 4 -13 15 -13 22 0 8 -6 14
-12 13 -7 -2 -12 2 -11 8 1 6 -22 42 -50 80 -51 68 -86 89 -103 62z"/>
<path d="M3960 4520 c0 -5 15 -10 33 -10 24 0 28 3 17 10 -20 13 -50 13 -50 0z"/>
<path d="M4970 4490 c-18 -12 -2 -12 25 0 13 6 15 9 5 9 -8 0 -22 -4 -30 -9z"/>
<path d="M4090 4405 c0 -8 5 -15 10 -15 6 0 10 7 10 15 0 8 -4 15 -10 15 -5 0
-10 -7 -10 -15z"/>
<path d="M6519 4328 c-34 -46 -64 -91 -66 -101 -3 -9 -17 -20 -32 -23 -45 -10
-47 -12 -13 -13 49 -1 92 24 99 59 3 16 9 28 13 25 11 -7 54 53 68 92 20 60
-7 45 -69 -39z"/>
<path d="M4050 4389 c0 -5 5 -7 10 -4 6 3 10 8 10 11 0 2 -4 4 -10 4 -5 0 -10
-5 -10 -11z"/>
<path d="M3965 4370 c3 -5 11 -10 16 -10 6 0 7 5 4 10 -3 6 -11 10 -16 10 -6
0 -7 -4 -4 -10z"/>
<path d="M4015 4370 c-10 -16 -4 -19 34 -22 22 -2 36 2 39 11 3 9 -1 11 -17 6
-12 -4 -28 -2 -36 5 -10 8 -15 8 -20 0z"/>
<path d="M3545 4360 c3 -5 8 -10 11 -10 2 0 4 5 4 10 0 6 -5 10 -11 10 -5 0
-7 -4 -4 -10z"/>
<path d="M3770 4360 c0 -5 5 -10 11 -10 5 0 7 5 4 10 -3 6 -8 10 -11 10 -2 0
-4 -4 -4 -10z"/>
<path d="M7822 4340 c0 -14 2 -19 5 -12 2 6 2 18 0 25 -3 6 -5 1 -5 -13z"/>
<path d="M3617 4319 c7 -7 15 -10 18 -7 3 3 -2 9 -12 12 -14 6 -15 5 -6 -5z"/>
<path d="M5789 4292 c-10 -16 -17 -18 -31 -11 -19 10 -27 -5 -8 -16 18 -11 11
-43 -16 -75 -23 -27 -25 -33 -13 -48 30 -37 39 -60 26 -66 -9 -3 -8 -7 3 -15
12 -8 9 -12 -13 -20 -18 -7 -35 -8 -46 -2 -10 6 -41 10 -69 9 -28 0 -56 3 -63
8 -7 4 -10 3 -6 -3 4 -6 24 -13 44 -16 21 -4 60 -20 86 -37 26 -16 47 -27 47
-24 0 3 25 -17 55 -44 34 -32 74 -57 106 -67 l51 -17 31 38 c18 21 58 67 90
102 31 35 57 68 57 73 0 12 -113 131 -180 189 -68 59 -130 76 -151 42z"/>
<path d="M3585 4290 c3 -5 11 -10 16 -10 6 0 7 5 4 10 -3 6 -11 10 -16 10 -6
0 -7 -4 -4 -10z"/>
<path d="M2275 4270 c-4 -6 -62 -38 -131 -71 -68 -33 -126 -65 -129 -69 -3 -5
3 -27 15 -49 24 -49 24 -48 3 -54 -10 -3 -2 -5 18 -6 20 0 73 8 118 19 103 26
271 51 339 51 31 0 50 4 46 10 -17 28 -174 102 -197 93 -8 -3 -23 12 -35 35
-26 46 -38 56 -47 41z"/>
<path d="M3742 4260 c-10 -16 -10 -20 1 -20 6 0 18 9 25 20 10 16 10 20 -1 20
-6 0 -18 -9 -25 -20z"/>
<path d="M7160 4270 c0 -5 5 -10 11 -10 5 0 7 5 4 10 -3 6 -8 10 -11 10 -2 0
-4 -4 -4 -10z"/>
<path d="M3410 4260 c0 -5 5 -10 11 -10 5 0 7 5 4 10 -3 6 -8 10 -11 10 -2 0
-4 -4 -4 -10z"/>
<path d="M3536 4256 c10 -8 21 -12 24 -10 5 6 -21 24 -34 24 -6 0 -1 -6 10
-14z"/>
<path d="M7036 4209 c-4 -33 -21 -104 -37 -157 -20 -65 -32 -129 -36 -192 -5
-88 -4 -100 22 -165 31 -79 47 -104 35 -54 -4 19 -16 66 -25 104 -12 51 -15
91 -11 147 7 90 47 222 76 253 21 22 21 24 4 74 -9 28 -17 51 -19 51 -1 0 -6
-27 -9 -61z"/>
<path d="M4560 4250 c0 -5 10 -10 23 -10 18 0 19 2 7 10 -19 13 -30 13 -30 0z"/>
<path d="M7170 4242 c0 -19 23 -24 56 -11 16 6 24 13 17 16 -7 2 -22 -1 -34
-7 -17 -10 -23 -9 -30 1 -7 11 -9 11 -9 1z"/>
<path d="M3610 4215 c-19 -21 -21 -25 -7 -25 9 0 17 7 17 15 0 8 7 15 15 15 8
0 15 5 15 10 0 17 -15 11 -40 -15z"/>
<path d="M3705 4220 c-3 -5 1 -10 9 -10 8 0 18 5 21 10 3 6 -1 10 -9 10 -8 0
-18 -4 -21 -10z"/>
<path d="M3380 4209 c0 -5 5 -7 10 -4 6 3 10 8 10 11 0 2 -4 4 -10 4 -5 0 -10
-5 -10 -11z"/>
<path d="M3510 4199 c0 -5 5 -7 10 -4 6 3 10 8 10 11 0 2 -4 4 -10 4 -5 0 -10
-5 -10 -11z"/>
<path d="M3455 4180 c3 -5 14 -10 23 -10 15 0 15 2 2 10 -20 13 -33 13 -25 0z"/>
<path d="M3560 4170 c0 -5 6 -10 14 -10 8 0 18 5 21 10 3 6 -3 10 -14 10 -12
0 -21 -4 -21 -10z"/>
<path d="M6394 4173 c11 -11 45 -13 51 -3 4 6 -7 10 -26 10 -18 0 -29 -3 -25
-7z"/>
<path d="M3400 4160 c0 -12 50 -33 58 -25 4 3 -4 8 -16 12 -12 3 -22 9 -22 14
0 5 -4 9 -10 9 -5 0 -10 -5 -10 -10z"/>
<path d="M3543 4144 c0 -16 23 -19 31 -5 3 5 -2 11 -12 13 -11 3 -19 0 -19 -8z"/>
<path d="M6380 4150 c0 -5 5 -10 11 -10 5 0 7 5 4 10 -3 6 -8 10 -11 10 -2 0
-4 -4 -4 -10z"/>
<path d="M3630 4130 c0 -5 7 -10 15 -10 8 0 15 5 15 10 0 6 -7 10 -15 10 -8 0
-15 -4 -15 -10z"/>
<path d="M3325 4120 c3 -5 10 -10 16 -10 5 0 9 5 9 10 0 6 -7 10 -16 10 -8 0
-12 -4 -9 -10z"/>
<path d="M3525 4110 c-3 -5 1 -10 9 -10 9 0 16 5 16 10 0 6 -4 10 -9 10 -6 0
-13 -4 -16 -10z"/>
<path d="M4988 4103 c7 -3 16 -2 19 1 4 3 -2 6 -13 5 -11 0 -14 -3 -6 -6z"/>
<path d="M3390 4090 c8 -5 22 -9 30 -9 10 0 8 3 -5 9 -27 12 -43 12 -25 0z"/>
<path d="M3500 4080 c-13 -8 -13 -10 2 -10 9 0 20 5 23 10 8 13 -5 13 -25 0z"/>
<path d="M3540 4070 c0 -5 4 -10 9 -10 6 0 13 5 16 10 3 6 -1 10 -9 10 -9 0
-16 -4 -16 -10z"/>
<path d="M4425 4063 c-27 -8 -60 -17 -72 -20 -11 -3 -23 -14 -26 -24 -3 -10
-4 -19 -4 -19 1 0 34 11 72 25 39 13 71 21 73 16 3 -8 82 26 82 35 0 9 -79 1
-125 -13z"/>
<path d="M3328 4063 c6 -2 18 -2 25 0 6 3 1 5 -13 5 -14 0 -19 -2 -12 -5z"/>
<path d="M3475 4050 c-3 -5 1 -10 9 -10 9 0 16 5 16 10 0 6 -4 10 -9 10 -6 0
-13 -4 -16 -10z"/>
<path d="M3510 4041 c0 -10 69 -11 75 -1 3 4 -13 8 -35 8 -22 0 -40 -3 -40 -7z"/>
<path d="M3440 4015 c0 -8 -4 -15 -10 -15 -5 0 -10 -4 -10 -10 0 -5 7 -10 15
-10 8 0 15 7 15 15 0 8 5 15 10 15 6 0 10 5 10 10 0 6 -7 10 -15 10 -8 0 -15
-7 -15 -15z"/>
<path d="M3350 4005 c14 -8 30 -14 35 -14 6 0 -1 6 -15 14 -14 8 -29 14 -35
14 -5 0 1 -6 15 -14z"/>
<path d="M3490 4010 c0 -5 4 -10 9 -10 6 0 13 5 16 10 3 6 -1 10 -9 10 -9 0
-16 -4 -16 -10z"/>
<path d="M3530 4009 c0 -7 -8 -18 -17 -25 -15 -11 -15 -13 -3 -14 14 0 50 33
50 45 0 3 -7 5 -15 5 -8 0 -15 -5 -15 -11z"/>
<path d="M6253 3993 c-10 -16 -66 -74 -124 -130 -96 -93 -111 -103 -145 -104
l-39 -1 32 -10 c24 -8 41 -7 64 2 37 16 169 145 204 200 13 21 29 41 35 45 5
3 10 10 10 16 0 18 -18 9 -37 -18z"/>
<path d="M3606 3991 c-10 -11 -25 -17 -35 -14 -11 3 -22 -1 -26 -8 -6 -9 -2
-11 13 -7 12 4 22 2 22 -3 0 -17 18 -9 35 17 20 31 15 41 -9 15z"/>
<path d="M4280 3990 c-13 -8 -13 -10 2 -10 9 0 20 5 23 10 8 13 -5 13 -25 0z"/>
<path d="M3460 3980 c0 -5 4 -10 9 -10 6 0 13 5 16 10 3 6 -1 10 -9 10 -9 0
-16 -4 -16 -10z"/>
<path d="M3268 3973 c7 -3 16 -2 19 1 4 3 -2 6 -13 5 -11 0 -14 -3 -6 -6z"/>
<path d="M3400 3960 c0 -5 4 -10 9 -10 6 0 13 5 16 10 3 6 -1 10 -9 10 -9 0
-16 -4 -16 -10z"/>
<path d="M3345 3950 c3 -5 8 -10 11 -10 2 0 4 5 4 10 0 6 -5 10 -11 10 -5 0
-7 -4 -4 -10z"/>
<path d="M3427 3939 c-27 -31 -11 -36 19 -6 17 18 22 27 13 27 -8 0 -23 -9
-32 -21z"/>
<path d="M3447 3909 c-15 -17 -21 -18 -33 -8 -19 16 -27 6 -27 -31 0 -16 -4
-30 -9 -30 -4 0 -8 -4 -8 -10 0 -14 28 -12 33 3 4 12 67 18 67 6 0 -4 -7 -12
-15 -19 -10 -9 -15 -9 -15 -1 0 6 -7 11 -15 11 -8 0 -15 -4 -15 -10 0 -5 7
-10 15 -10 8 0 15 -4 15 -10 0 -12 6 -13 -58 4 -39 11 -52 11 -49 3 2 -7 14
-11 25 -9 12 2 22 -2 22 -9 0 -6 8 -9 20 -6 10 3 21 0 23 -7 2 -6 23 8 46 31
45 44 44 50 -6 49 -40 -1 -40 2 -8 36 14 15 25 30 25 33 0 11 -17 4 -33 -16z
m-27 -28 c0 -5 -7 -11 -15 -15 -15 -5 -20 5 -8 17 9 10 23 9 23 -2z"/>
<path d="M3284 3886 c14 -19 26 -39 26 -45 0 -6 7 -11 15 -11 20 0 19 2 -15
38 -16 18 -30 36 -30 42 0 5 -5 10 -11 10 -6 0 0 -15 15 -34z"/>
<path d="M3316 3911 c-3 -4 6 -13 20 -20 15 -6 22 -16 18 -23 -4 -7 -3 -8 4
-4 8 5 9 13 2 25 -11 21 -37 34 -44 22z"/>
<path d="M3490 3910 c0 -5 6 -10 14 -10 8 0 18 5 21 10 3 6 -3 10 -14 10 -12
0 -21 -4 -21 -10z"/>
<path d="M5251 3893 c7 -10 35 -38 61 -63 27 -25 48 -51 48 -57 0 -7 -16 -19
-36 -28 -35 -15 -36 -16 -32 -65 2 -40 0 -49 -12 -45 -67 19 -104 26 -116 21
-8 -3 -14 -2 -14 3 0 5 -11 11 -25 13 -20 4 -23 3 -14 -8 6 -8 17 -14 23 -14
17 0 176 -99 177 -111 1 -5 2 -13 3 -18 0 -5 5 -13 9 -17 4 -5 17 -28 27 -52
19 -42 21 -43 52 -37 18 4 39 11 48 16 8 4 80 29 160 55 80 26 147 49 150 52
7 6 -61 63 -148 125 -41 29 -75 61 -78 73 -9 34 -49 66 -86 69 -18 2 -35 4
-38 5 -3 2 -9 4 -15 4 -5 1 -40 23 -76 49 -70 50 -90 58 -68 30z"/>
<path d="M6225 3890 c-3 -6 1 -7 9 -4 18 7 21 14 7 14 -6 0 -13 -4 -16 -10z"/>
<path d="M6185 3843 c-16 -15 -29 -31 -27 -36 1 -4 -1 -6 -6 -3 -4 2 -22 -10
-40 -28 -36 -37 -35 -61 4 -70 14 -4 22 -11 19 -16 -3 -4 0 -20 6 -33 10 -22
16 -25 44 -20 29 5 33 2 37 -21 3 -15 0 -31 -8 -37 -22 -18 -17 -53 10 -65 22
-10 25 -8 40 27 9 22 23 57 33 79 12 31 22 40 40 40 14 0 23 6 23 15 0 8 5 15
10 15 6 0 10 7 10 15 0 8 -5 15 -11 15 -7 0 -9 10 -7 24 3 17 0 26 -11 29 -26
6 -39 -3 -34 -23 3 -11 0 -20 -6 -20 -6 0 -11 7 -11 15 0 8 -9 15 -20 15 -15
0 -20 7 -20 25 0 14 -4 25 -10 25 -5 0 -10 9 -10 20 0 14 -5 18 -17 13 -16 -6
-16 -5 -4 10 21 26 0 20 -34 -10z m-65 -87 c0 -2 -8 -10 -17 -17 -16 -13 -17
-12 -4 4 13 16 21 21 21 13z"/>
<path d="M4178 3843 c7 -3 16 -2 19 1 4 3 -2 6 -13 5 -11 0 -14 -3 -6 -6z"/>
<path d="M3353 3768 c2 -7 10 -13 18 -13 8 0 17 -4 20 -9 9 -12 42 1 34 13 -3
6 -12 8 -19 5 -8 -3 -17 -1 -21 5 -9 15 -38 14 -32 -1z"/>
<path d="M3385 3689 c-10 -15 3 -25 16 -12 7 7 7 13 1 17 -6 3 -14 1 -17 -5z"/>
<path d="M7030 3594 c0 -6 7 -34 16 -63 8 -28 13 -65 10 -81 -2 -17 1 -33 6
-37 16 -9 3 113 -16 157 -8 19 -15 30 -16 24z"/>
<path d="M3720 3528 c0 -34 11 -45 61 -67 60 -27 140 -38 364 -51 105 -6 253
-18 330 -26 l140 -14 33 36 c18 20 40 47 48 59 24 37 -7 61 -93 71 -74 8 -341
-1 -493 -16 -52 -5 -150 -10 -216 -10 -108 0 -124 2 -148 21 l-26 20 0 -23z"/>
<path d="M7264 3302 c-23 -20 -77 -59 -120 -86 -43 -27 -101 -63 -129 -81 -27
-18 -107 -65 -178 -105 -141 -80 -213 -136 -264 -206 l-33 -48 0 -126 c0 -143
-7 -159 -71 -161 -51 -1 -87 -13 -71 -23 13 -8 88 -1 118 11 8 3 14 0 14 -6 0
-7 -8 -14 -17 -17 -10 -3 -25 -8 -33 -11 -8 -3 -33 -7 -55 -8 -82 -3 -191 -16
-230 -27 -36 -9 -81 -13 -260 -22 -27 -2 -86 -6 -130 -10 l-80 -7 47 26 c48
25 79 56 42 41 -124 -50 -106 -49 -504 -50 -419 -1 -517 8 -817 75 -44 9 -89
12 -82 4 3 -2 66 -16 142 -32 75 -15 134 -29 132 -31 -4 -4 -220 18 -411 43
-61 8 -126 15 -145 15 -26 0 -30 3 -19 10 11 7 3 10 -30 10 -89 0 -182 9 -193
19 -7 5 -41 14 -77 21 -74 13 -130 31 -130 41 0 11 -98 30 -123 24 -12 -3 -42
1 -66 10 -24 8 -67 15 -95 15 -37 0 -47 3 -36 10 17 11 23 10 -95 15 -84 3
-83 3 -67 13 8 6 1 9 -20 9 -101 3 -118 5 -112 14 3 6 0 9 -7 8 -8 -1 -31 6
-52 15 -21 9 -43 15 -50 14 -7 -1 -33 8 -59 20 -34 17 -52 21 -65 14 -12 -7
-31 -6 -58 4 -22 7 -42 14 -45 14 -2 0 1 5 7 11 8 8 18 6 37 -6 22 -15 26 -15
26 -2 0 24 -27 40 -56 33 -19 -5 -30 -2 -41 11 -13 17 -14 16 -8 -7 24 -95 24
-93 7 -106 -12 -8 -21 -9 -29 -2 -8 7 -45 6 -114 -1 -101 -11 -127 -9 -99 9 8
6 10 10 4 10 -6 0 -14 -3 -18 -7 -20 -20 -133 -2 -120 19 3 5 -5 6 -20 2 -22
-5 -25 -3 -20 11 8 20 -11 35 -42 35 -12 0 -25 7 -28 16 -3 8 -14 14 -23 13
-29 -4 -103 12 -103 22 0 5 -6 9 -14 9 -7 0 -19 7 -26 15 -7 8 -17 12 -22 9
-5 -3 -12 3 -15 15 -3 12 -11 21 -19 21 -7 0 -57 43 -110 95 -53 52 -106 97
-118 100 -36 8 -168 35 -225 46 -29 6 -64 8 -77 5 -17 -5 -23 -2 -22 6 2 9
-11 12 -47 10 -27 -2 -59 -4 -70 -5 -11 0 -26 -7 -33 -14 -7 -7 -24 -13 -37
-13 -13 0 -27 -5 -30 -10 -3 -6 -17 -7 -31 -4 -20 5 -26 2 -31 -14 -6 -23 -24
-33 -71 -38 -18 -2 -39 -10 -48 -19 -8 -8 -22 -15 -29 -15 -9 0 -12 -6 -8 -17
3 -10 3 -15 -2 -11 -4 4 -14 0 -23 -8 -9 -10 -24 -13 -38 -10 -18 5 -24 2 -24
-9 0 -9 -4 -13 -10 -10 -5 3 -10 1 -10 -5 0 -6 -4 -9 -9 -6 -5 3 -11 -1 -15
-9 -3 -8 -11 -15 -17 -15 -8 0 -8 5 2 16 11 13 9 14 -17 8 -36 -8 -56 -25 -23
-18 20 4 21 3 4 -4 -10 -5 -30 -8 -42 -6 -24 2 -32 -11 -10 -19 7 -3 5 -6 -5
-6 -9 -1 -21 -9 -27 -18 -8 -15 -11 -15 -26 -3 -14 12 -18 12 -26 -1 -14 -22
-11 -28 13 -21 13 3 19 1 15 -5 -5 -7 1 -9 15 -6 23 4 23 4 3 -11 -11 -8 -25
-19 -30 -24 -6 -5 -16 -7 -23 -6 -7 1 -8 0 -2 -3 5 -2 7 -10 3 -16 -4 -7 0 -8
12 -4 12 5 24 0 39 -16 33 -35 93 -53 216 -63 25 -2 70 -7 100 -12 48 -7 52
-9 30 -16 -44 -15 -60 -36 -60 -82 0 -25 6 -49 15 -58 38 -38 206 -58 480 -57
285 0 394 8 945 71 371 42 398 42 421 -2 7 -12 17 -18 29 -15 12 3 20 -2 25
-17 5 -16 8 -18 12 -6 8 19 35 40 45 34 5 -3 8 -13 8 -24 0 -23 35 -16 69 14
l24 21 -13 -25 c-12 -24 -12 -24 6 -9 14 11 34 14 70 11 45 -3 51 -6 47 -23
-4 -14 -14 -19 -39 -19 -19 0 -34 -4 -34 -10 0 -5 -12 -10 -27 -10 -25 -1 -26
-2 -10 -11 13 -8 22 -7 32 1 8 6 18 9 24 6 5 -3 12 0 15 6 3 7 3 2 0 -11 -5
-20 -4 -23 12 -16 43 17 55 17 68 -1 12 -15 16 -16 30 -5 13 11 19 11 30 1 8
-6 28 -11 43 -9 15 1 35 -1 43 -4 8 -3 29 -5 45 -5 54 1 195 -13 218 -21 16
-6 0 -12 -68 -25 -148 -29 -159 -32 -190 -47 -43 -21 -41 -48 7 -89 l41 -35
431 1 c237 1 620 9 851 18 231 9 545 21 697 26 300 11 599 38 755 69 54 11
118 22 143 26 25 4 83 23 130 42 160 67 321 105 815 193 320 58 440 88 529
133 39 19 49 27 74 58 10 14 6 13 -27 -3 -33 -16 -46 -18 -77 -9 -23 6 -43 7
-55 1 -12 -7 -19 -6 -22 3 -4 9 -7 9 -18 0 -7 -7 -29 -13 -49 -13 -20 0 -42
-6 -49 -12 -11 -10 -13 -10 -7 0 9 15 -20 17 -29 1 -4 -6 -19 -7 -35 -4 -16 3
-31 2 -35 -4 -3 -6 -25 -11 -49 -11 -30 0 -48 -6 -61 -20 -10 -11 -23 -20 -28
-20 -6 0 0 11 13 25 31 33 20 41 -21 16 -47 -29 -141 -29 -169 -1 -11 11 -23
20 -27 20 -5 0 -14 4 -22 9 -11 7 -7 19 23 59 75 102 224 467 212 517 -9 34
-23 31 -72 -13z m-137 -214 c-3 -7 -5 -2 -5 12 0 14 2 19 5 13 2 -7 2 -19 0
-25z m-5408 -32 c-12 -10 -60 -16 -54 -6 3 5 18 10 32 10 15 0 24 -2 22 -4z
m116 -76 c-27 -12 -43 -12 -25 0 8 5 22 9 30 9 10 0 8 -3 -5 -9z m-578 -103
c-8 -21 27 -37 61 -28 16 5 57 7 90 5 35 -3 63 0 67 6 3 5 11 10 17 10 7 0 7
-4 -1 -13 -6 -8 -8 -17 -4 -20 11 -12 79 -7 109 7 39 18 126 27 121 13 -5 -17
27 -48 53 -50 21 -1 47 -33 36 -44 -9 -10 24 -35 39 -29 8 3 15 1 15 -5 0 -6
4 -8 9 -5 5 4 7 -2 4 -13 -6 -25 2 -29 71 -33 65 -3 73 -9 48 -30 -12 -10 -33
-13 -69 -10 -43 3 -53 7 -53 22 0 28 -18 34 -32 10 -15 -23 -24 -24 -78 -8
-26 9 -40 19 -40 30 0 12 -5 15 -16 11 -8 -3 -13 -12 -10 -19 4 -10 -3 -14
-22 -14 -41 0 -72 11 -72 25 0 7 -6 18 -14 24 -11 9 -15 8 -20 -4 -4 -12 -15
-14 -43 -11 -21 3 -41 5 -45 5 -4 1 -5 7 -2 15 9 23 -14 28 -28 6 -7 -11 -21
-20 -31 -20 -10 0 -15 4 -12 10 3 5 -6 12 -20 16 -16 4 -25 14 -26 28 -2 20
-2 20 -6 -1 -4 -18 -11 -23 -38 -23 -20 0 -35 6 -39 15 -7 18 -27 20 -23 3 1
-8 -10 -14 -27 -16 -19 -2 -26 0 -21 8 4 7 -1 14 -14 17 -11 3 -19 9 -16 13 3
5 1 11 -5 15 -5 3 -10 -1 -10 -9 0 -9 -3 -16 -7 -17 -5 0 -16 -2 -25 -4 -10
-2 -18 3 -18 11 0 8 -7 14 -15 14 -8 0 -15 -6 -15 -14 0 -8 -7 -16 -15 -20 -9
-3 -15 0 -15 9 0 8 -6 15 -14 15 -7 0 -16 9 -19 20 -7 26 -27 26 -27 1 0 -20
-17 -37 -27 -27 -3 3 -3 17 1 31 4 16 13 25 27 25 11 0 30 5 42 12 12 7 35 11
50 9 15 -1 34 2 40 8 7 5 36 11 65 12 29 2 52 6 52 11 0 4 5 8 11 8 6 0 9 -6
6 -13z m300 -3 c-3 -3 -12 -4 -19 -1 -8 3 -5 6 6 6 11 1 17 -2 13 -5z m5231
-91 c-10 -2 -26 -2 -35 0 -10 3 -2 5 17 5 19 0 27 -2 18 -5z m-61 -9 c-3 -3
-12 -4 -19 -1 -8 3 -5 6 6 6 11 1 17 -2 13 -5z m-5707 -18 c0 -3 -4 -8 -10
-11 -5 -3 -10 -1 -10 4 0 6 5 11 10 11 6 0 10 -2 10 -4z m147 -12 c-3 -3 -12
-4 -19 -1 -8 3 -5 6 6 6 11 1 17 -2 13 -5z m1693 -34 c13 -8 13 -10 -2 -10 -9
0 -20 5 -23 10 -8 13 5 13 25 0z m-1287 -27 c-7 -2 -19 -2 -25 0 -7 3 -2 5 12
5 14 0 19 -2 13 -5z m1172 -12 c-3 -6 -11 -8 -17 -5 -6 4 -5 9 3 15 16 10 23
4 14 -10z m-95 -10 c0 -8 -89 -33 -108 -30 -5 1 84 33 106 38 1 1 2 -3 2 -8z
m-590 -31 c0 -5 -6 -10 -14 -10 -8 0 -18 5 -21 10 -3 6 3 10 14 10 12 0 21 -4
21 -10z m1115 -11 c7 -7 1 -8 -20 -3 -55 13 -73 24 -30 19 22 -3 44 -10 50
-16z m133 -17 c17 -2 32 -9 32 -14 0 -15 -72 0 -90 19 -13 14 -13 15 5 8 11
-4 35 -10 53 -13z m157 -26 c36 -10 45 -16 33 -21 -20 -8 -88 12 -88 26 0 5 1
9 3 9 1 -1 25 -7 52 -14z m170 -20 c10 -2 21 -9 23 -16 4 -10 -5 -11 -38 -6
-24 4 -47 9 -52 12 -16 10 3 24 26 18 12 -3 31 -6 41 -8z m-287 -48 c-3 -7
-21 -16 -41 -19 -20 -3 -34 -2 -31 3 3 4 -5 9 -18 10 -13 0 -3 4 22 8 70 11
72 11 68 -2z m127 -18 l40 -9 -47 2 c-27 1 -48 -2 -48 -7 0 -4 -7 -3 -15 4
-22 18 -18 31 8 25 12 -3 40 -9 62 -15z m143 -18 c17 -2 32 -8 32 -13 0 -8
-28 -5 -67 6 -6 2 -13 -1 -16 -8 -2 -6 -6 -1 -10 12 -4 18 -2 21 11 15 9 -4
32 -9 50 -12z m222 8 c0 -5 -5 -10 -11 -10 -5 0 -7 5 -4 10 3 6 8 10 11 10 2
0 4 -4 4 -10z m-47 -7 c-7 -2 -19 -2 -25 0 -7 3 -2 5 12 5 14 0 19 -2 13 -5z
m307 -29 c0 -2 -9 -4 -20 -4 -11 0 -20 4 -20 9 0 5 9 7 20 4 11 -3 20 -7 20
-9z m145 -24 c-3 -5 -10 -10 -16 -10 -5 0 -9 5 -9 10 0 6 7 10 16 10 8 0 12
-4 9 -10z m1943 -61 c-18 -12 -25 -11 -31 4 -4 10 2 13 20 9 18 -3 21 -7 11
-13z"/>
<path d="M1380 2820 c0 -6 11 -8 28 -4 39 10 40 14 4 14 -18 0 -32 -5 -32 -10z"/>
<path d="M1240 2790 c0 -5 5 -10 11 -10 5 0 7 5 4 10 -3 6 -8 10 -11 10 -2 0
-4 -4 -4 -10z"/>
<path d="M750 2960 c0 -5 5 -10 10 -10 6 0 10 5 10 10 0 6 -4 10 -10 10 -5 0
-10 -4 -10 -10z"/>
<path d="M630 2834 c0 -1 6 -7 14 -13 10 -9 15 -8 19 2 3 8 -3 13 -14 13 -11
0 -19 -1 -19 -2z"/>
<path d="M7824 2814 c32 -12 42 -12 52 -2 11 11 3 13 -39 15 l-52 2 39 -15z"/>
<path d="M7425 2740 c-3 -5 -2 -10 4 -10 5 0 13 5 16 10 3 6 2 10 -4 10 -5 0
-13 -4 -16 -10z"/>
<path d="M3275 2680 c3 -5 14 -10 23 -10 15 0 15 2 2 10 -20 13 -33 13 -25 0z"/>
<path d="M3753 2563 c15 -2 37 -2 50 0 12 2 0 4 -28 4 -27 0 -38 -2 -22 -4z"/>
<path d="M3901 2521 c-20 -13 -1 -18 49 -13 35 4 41 7 25 13 -27 10 -57 11
-74 0z"/>
<path d="M3097 2497 c-22 -27 -16 -32 18 -15 21 12 24 16 13 25 -10 9 -17 7
-31 -10z"/>
<path d="M3040 2470 c0 -5 4 -10 9 -10 6 0 13 5 16 10 3 6 -1 10 -9 10 -9 0
-16 -4 -16 -10z"/>
</g>
</svg>
